<svg width="54" height="54" viewBox="0 0 54 54" fill="none" xmlns="http://www.w3.org/2000/svg">
<rect width="54" height="54" rx="27" fill="white"/>
<path d="M20.5149 24.3122C22.0007 24.3122 22.1587 22.7125 22.1587 22.0127C22.1587 19.9417 21.0049 19.7131 20.5149 19.7131C19.0291 19.7131 18.8711 21.3128 18.8711 22.0127C18.8711 24.098 20.0091 24.3122 20.5149 24.3122Z" fill="#F7691A"/>
<path d="M34.1399 15.4571C33.476 15.1571 32.4959 15 31.2154 15C30.0773 15 29.0498 15.1714 28.1645 15.4999C27.2635 15.8284 26.568 16.3426 26.0621 17.0425C25.5563 17.7423 25.3034 18.6564 25.3034 19.7705V22.1557V23.3555V30.7111C25.0979 30.6826 24.8924 30.654 24.7027 30.5969C24.4023 30.5255 24.1494 30.5397 23.9281 30.654C23.7068 30.7683 23.5329 31.0254 23.4064 31.411C23.3274 31.6681 23.2958 31.8966 23.3116 32.1251C23.3116 32.1823 23.3274 32.2394 23.3274 32.2965C23.359 32.5251 23.5013 32.7107 23.691 32.7679C25.0821 33.2392 26.5996 33.2249 28.0223 32.8679C28.4807 32.7536 28.7811 32.2822 28.7811 31.7824V23.1555C29.0024 23.0841 29.2553 23.0127 29.524 22.9555C30.2196 22.8127 30.9309 22.7699 31.6422 22.8127C32.3536 22.8556 33.0017 22.9413 33.5708 23.0841C33.7131 22.9127 33.8396 22.6842 33.9186 22.4128C33.9976 22.1414 34.0134 21.8701 33.9502 21.613C33.7921 20.9845 33.3179 20.5989 32.5275 20.4418C31.9742 20.3132 31.3419 20.2704 30.6306 20.2989C29.9824 20.3275 29.366 20.3989 28.7495 20.5132V19.899C28.7495 19.0849 28.9866 18.4993 29.4608 18.1422C29.935 17.7852 30.6938 17.6138 31.7371 17.6138C32.243 17.6138 32.733 17.6566 33.1914 17.7423C33.6498 17.828 34.0767 17.9423 34.4403 18.0851C34.6141 17.9423 34.7722 17.7566 34.8987 17.5424C35.0251 17.3138 35.0883 17.071 35.0883 16.8139C35.1358 16.214 34.8038 15.7713 34.1399 15.4571Z" fill="#F7691A"/>
<path d="M30.8523 35.9967C30.8365 36.011 28.6867 37.1108 25.4303 37.1108C22.1897 37.1108 20.1031 36.0395 20.0082 35.9967C19.3759 35.6539 18.5539 35.8396 18.1904 36.4109C17.811 36.9822 18.0165 37.7249 18.6488 38.0677C18.7594 38.1248 21.3835 39.5246 25.4303 39.5246C29.4613 39.5246 32.1012 38.1248 32.2118 38.0677C32.8441 37.7249 33.0496 36.9965 32.6702 36.4252C32.3067 35.8539 31.4847 35.6682 30.8523 35.9967Z" fill="#F7691A"/>
</svg>
