<svg width="64" height="64" viewBox="0 0 64 64" fill="none" xmlns="http://www.w3.org/2000/svg">
<circle cx="32" cy="32" r="30" fill="url(#paint0_linear_58_964)" stroke="white" stroke-width="4" stroke-linecap="round" stroke-linejoin="round"/>
<path d="M26.2667 29.3932C27.6058 29.3932 27.7483 27.9514 27.7483 27.3206C27.7483 25.454 26.7083 25.248 26.2667 25.248C24.9276 25.248 24.7852 26.6898 24.7852 27.3206C24.7852 29.2001 25.8109 29.3932 26.2667 29.3932Z" fill="white"/>
<path d="M38.5461 21.4119C37.9477 21.1416 37.0644 21 35.9103 21C34.8845 21 33.9584 21.1545 33.1606 21.4506C32.3485 21.7466 31.7216 22.2101 31.2657 22.8408C30.8098 23.4716 30.5818 24.2955 30.5818 25.2996V27.4494V28.5307V35.1603C30.3966 35.1346 30.2114 35.1088 30.0404 35.0574C29.7697 34.993 29.5417 35.0059 29.3423 35.1088C29.1428 35.2118 28.9861 35.4435 28.8721 35.7911C28.8009 36.0228 28.7724 36.2288 28.7866 36.4348C28.7866 36.4863 28.8009 36.5378 28.8009 36.5892C28.8294 36.7952 28.9576 36.9626 29.1286 37.0141C30.3823 37.4389 31.7501 37.426 33.0323 37.1042C33.4455 37.0012 33.7162 36.5764 33.7162 36.1258V28.3505C33.9157 28.2861 34.1436 28.2218 34.3859 28.1703C35.0127 28.0416 35.6539 28.0029 36.295 28.0416C36.9361 28.0802 37.5203 28.1574 38.0332 28.2861C38.1614 28.1317 38.2754 27.9257 38.3466 27.6811C38.4179 27.4365 38.4321 27.1919 38.3751 26.9602C38.2327 26.3938 37.8052 26.0462 37.0929 25.9046C36.5942 25.7888 36.0243 25.7502 35.3832 25.7759C34.799 25.8016 34.2434 25.866 33.6877 25.969V25.4155C33.6877 24.6817 33.9015 24.1539 34.3289 23.8321C34.7563 23.5102 35.4402 23.3558 36.3805 23.3558C36.8364 23.3558 37.2781 23.3944 37.6912 23.4716C38.1044 23.5489 38.4891 23.6518 38.8168 23.7806C38.9735 23.6518 39.116 23.4845 39.23 23.2914C39.344 23.0854 39.4009 22.8666 39.4009 22.6349C39.4437 22.0942 39.1445 21.6951 38.5461 21.4119Z" fill="white"/>
<path d="M35.5837 39.9239C35.5695 39.9368 33.6319 40.928 30.6969 40.928C27.7762 40.928 25.8955 39.9625 25.81 39.9239C25.2401 39.615 24.4993 39.7823 24.1716 40.2973C23.8296 40.8122 24.0148 41.4816 24.5847 41.7905C24.6845 41.842 27.0495 43.1036 30.6969 43.1036C34.33 43.1036 36.7093 41.842 36.809 41.7905C37.3789 41.4816 37.5641 40.825 37.2222 40.3101C36.8945 39.7952 36.1536 39.6279 35.5837 39.9239Z" fill="white"/>
<defs>
<linearGradient id="paint0_linear_58_964" x1="4" y1="4" x2="4" y2="60" gradientUnits="userSpaceOnUse">
<stop stop-color="#3482C3"/>
<stop offset="1" stop-color="#093093"/>
</linearGradient>
</defs>
</svg>
