<svg width="117" height="108" viewBox="0 0 117 108" fill="none" xmlns="http://www.w3.org/2000/svg">
<g opacity="0.7">
<path d="M114.075 1.45946C114.075 2.2655 114.73 2.91892 115.538 2.91892C116.345 2.91892 117 2.2655 117 1.45946C117 0.653422 116.345 0 115.538 0C114.73 0 114.075 0.653422 114.075 1.45946Z" fill="url(#paint0_linear_70_961)"/>
<path d="M114.075 10.2162C114.075 11.0223 114.73 11.6757 115.538 11.6757C116.345 11.6757 117 11.0223 117 10.2162C117 9.41018 116.345 8.75676 115.538 8.75676C114.73 8.75676 114.075 9.41018 114.075 10.2162Z" fill="url(#paint1_linear_70_961)"/>
<path d="M114.075 18.973C114.075 19.779 114.73 20.4324 115.538 20.4324C116.345 20.4324 117 19.779 117 18.973C117 18.1669 116.345 17.5135 115.538 17.5135C114.73 17.5135 114.075 18.1669 114.075 18.973Z" fill="url(#paint2_linear_70_961)"/>
<path d="M114.075 27.7297C114.075 28.5358 114.73 29.1892 115.538 29.1892C116.345 29.1892 117 28.5358 117 27.7297C117 26.9237 116.345 26.2703 115.538 26.2703C114.73 26.2703 114.075 26.9237 114.075 27.7297Z" fill="url(#paint3_linear_70_961)"/>
<path d="M114.075 36.4865C114.075 37.2925 114.73 37.9459 115.538 37.9459C116.345 37.9459 117 37.2925 117 36.4865C117 35.6804 116.345 35.027 115.538 35.027C114.73 35.027 114.075 35.6804 114.075 36.4865Z" fill="url(#paint4_linear_70_961)"/>
<path d="M114.075 45.2432C114.075 46.0493 114.73 46.7027 115.538 46.7027C116.345 46.7027 117 46.0493 117 45.2432C117 44.4372 116.345 43.7838 115.538 43.7838C114.73 43.7838 114.075 44.4372 114.075 45.2432Z" fill="url(#paint5_linear_70_961)"/>
<path d="M114.075 54C114.075 54.806 114.73 55.4595 115.538 55.4595C116.345 55.4595 117 54.806 117 54C117 53.194 116.345 52.5405 115.538 52.5405C114.73 52.5405 114.075 53.194 114.075 54Z" fill="url(#paint6_linear_70_961)"/>
<path d="M114.075 62.7568C114.075 63.5628 114.73 64.2162 115.538 64.2162C116.345 64.2162 117 63.5628 117 62.7568C117 61.9507 116.345 61.2973 115.538 61.2973C114.73 61.2973 114.075 61.9507 114.075 62.7568Z" fill="url(#paint7_linear_70_961)"/>
<path d="M114.075 71.5135C114.075 72.3195 114.73 72.973 115.538 72.973C116.345 72.973 117 72.3195 117 71.5135C117 70.7075 116.345 70.0541 115.538 70.0541C114.73 70.0541 114.075 70.7075 114.075 71.5135Z" fill="url(#paint8_linear_70_961)"/>
<path d="M114.075 80.2703C114.075 81.0763 114.73 81.7297 115.538 81.7297C116.345 81.7297 117 81.0763 117 80.2703C117 79.4642 116.345 78.8108 115.538 78.8108C114.73 78.8108 114.075 79.4642 114.075 80.2703Z" fill="url(#paint9_linear_70_961)"/>
<path d="M114.075 89.027C114.075 89.8331 114.73 90.4865 115.538 90.4865C116.345 90.4865 117 89.8331 117 89.027C117 88.221 116.345 87.5676 115.538 87.5676C114.73 87.5676 114.075 88.221 114.075 89.027Z" fill="url(#paint10_linear_70_961)"/>
<path d="M114.075 97.7838C114.075 98.5898 114.73 99.2432 115.538 99.2432C116.345 99.2432 117 98.5898 117 97.7838C117 96.9777 116.345 96.3243 115.538 96.3243C114.73 96.3243 114.075 96.9777 114.075 97.7838Z" fill="url(#paint11_linear_70_961)"/>
<path d="M114.075 106.541C114.075 107.347 114.73 108 115.538 108C116.345 108 117 107.347 117 106.541C117 105.735 116.345 105.081 115.538 105.081C114.73 105.081 114.075 105.735 114.075 106.541Z" fill="url(#paint12_linear_70_961)"/>
<path d="M105.3 1.45946C105.3 2.2655 105.955 2.91892 106.763 2.91892C107.57 2.91892 108.225 2.2655 108.225 1.45946C108.225 0.653422 107.57 0 106.763 0C105.955 0 105.3 0.653422 105.3 1.45946Z" fill="url(#paint13_linear_70_961)"/>
<path d="M105.3 10.2162C105.3 11.0223 105.955 11.6757 106.763 11.6757C107.57 11.6757 108.225 11.0223 108.225 10.2162C108.225 9.41018 107.57 8.75676 106.763 8.75676C105.955 8.75676 105.3 9.41018 105.3 10.2162Z" fill="url(#paint14_linear_70_961)"/>
<path d="M105.3 18.973C105.3 19.779 105.955 20.4324 106.763 20.4324C107.57 20.4324 108.225 19.779 108.225 18.973C108.225 18.1669 107.57 17.5135 106.763 17.5135C105.955 17.5135 105.3 18.1669 105.3 18.973Z" fill="url(#paint15_linear_70_961)"/>
<path d="M105.3 27.7297C105.3 28.5358 105.955 29.1892 106.763 29.1892C107.57 29.1892 108.225 28.5358 108.225 27.7297C108.225 26.9237 107.57 26.2703 106.763 26.2703C105.955 26.2703 105.3 26.9237 105.3 27.7297Z" fill="url(#paint16_linear_70_961)"/>
<path d="M105.3 36.4865C105.3 37.2925 105.955 37.9459 106.763 37.9459C107.57 37.9459 108.225 37.2925 108.225 36.4865C108.225 35.6804 107.57 35.027 106.763 35.027C105.955 35.027 105.3 35.6804 105.3 36.4865Z" fill="url(#paint17_linear_70_961)"/>
<path d="M105.3 45.2432C105.3 46.0493 105.955 46.7027 106.763 46.7027C107.57 46.7027 108.225 46.0493 108.225 45.2432C108.225 44.4372 107.57 43.7838 106.763 43.7838C105.955 43.7838 105.3 44.4372 105.3 45.2432Z" fill="url(#paint18_linear_70_961)"/>
<path d="M105.3 54C105.3 54.806 105.955 55.4595 106.763 55.4595C107.57 55.4595 108.225 54.806 108.225 54C108.225 53.194 107.57 52.5405 106.763 52.5405C105.955 52.5405 105.3 53.194 105.3 54Z" fill="url(#paint19_linear_70_961)"/>
<path d="M105.3 62.7568C105.3 63.5628 105.955 64.2162 106.763 64.2162C107.57 64.2162 108.225 63.5628 108.225 62.7568C108.225 61.9507 107.57 61.2973 106.763 61.2973C105.955 61.2973 105.3 61.9507 105.3 62.7568Z" fill="url(#paint20_linear_70_961)"/>
<path d="M105.3 71.5135C105.3 72.3195 105.955 72.973 106.763 72.973C107.57 72.973 108.225 72.3195 108.225 71.5135C108.225 70.7075 107.57 70.0541 106.763 70.0541C105.955 70.0541 105.3 70.7075 105.3 71.5135Z" fill="url(#paint21_linear_70_961)"/>
<path d="M105.3 80.2703C105.3 81.0763 105.955 81.7297 106.763 81.7297C107.57 81.7297 108.225 81.0763 108.225 80.2703C108.225 79.4642 107.57 78.8108 106.763 78.8108C105.955 78.8108 105.3 79.4642 105.3 80.2703Z" fill="url(#paint22_linear_70_961)"/>
<path d="M105.3 89.027C105.3 89.8331 105.955 90.4865 106.763 90.4865C107.57 90.4865 108.225 89.8331 108.225 89.027C108.225 88.221 107.57 87.5676 106.763 87.5676C105.955 87.5676 105.3 88.221 105.3 89.027Z" fill="url(#paint23_linear_70_961)"/>
<path d="M105.3 97.7838C105.3 98.5898 105.955 99.2432 106.763 99.2432C107.57 99.2432 108.225 98.5898 108.225 97.7838C108.225 96.9777 107.57 96.3243 106.763 96.3243C105.955 96.3243 105.3 96.9777 105.3 97.7838Z" fill="url(#paint24_linear_70_961)"/>
<path d="M105.3 106.541C105.3 107.347 105.955 108 106.763 108C107.57 108 108.225 107.347 108.225 106.541C108.225 105.735 107.57 105.081 106.763 105.081C105.955 105.081 105.3 105.735 105.3 106.541Z" fill="url(#paint25_linear_70_961)"/>
<path d="M96.525 1.45946C96.525 2.2655 97.1798 2.91892 97.9875 2.91892C98.7952 2.91892 99.45 2.2655 99.45 1.45946C99.45 0.653422 98.7952 0 97.9875 0C97.1798 0 96.525 0.653422 96.525 1.45946Z" fill="url(#paint26_linear_70_961)"/>
<path d="M96.525 10.2162C96.525 11.0223 97.1798 11.6757 97.9875 11.6757C98.7952 11.6757 99.45 11.0223 99.45 10.2162C99.45 9.41018 98.7952 8.75676 97.9875 8.75676C97.1798 8.75676 96.525 9.41018 96.525 10.2162Z" fill="url(#paint27_linear_70_961)"/>
<path d="M96.525 18.973C96.525 19.779 97.1798 20.4324 97.9875 20.4324C98.7952 20.4324 99.45 19.779 99.45 18.973C99.45 18.1669 98.7952 17.5135 97.9875 17.5135C97.1798 17.5135 96.525 18.1669 96.525 18.973Z" fill="url(#paint28_linear_70_961)"/>
<path d="M96.525 27.7297C96.525 28.5358 97.1798 29.1892 97.9875 29.1892C98.7952 29.1892 99.45 28.5358 99.45 27.7297C99.45 26.9237 98.7952 26.2703 97.9875 26.2703C97.1798 26.2703 96.525 26.9237 96.525 27.7297Z" fill="url(#paint29_linear_70_961)"/>
<path d="M96.525 36.4865C96.525 37.2925 97.1798 37.9459 97.9875 37.9459C98.7952 37.9459 99.45 37.2925 99.45 36.4865C99.45 35.6804 98.7952 35.027 97.9875 35.027C97.1798 35.027 96.525 35.6804 96.525 36.4865Z" fill="url(#paint30_linear_70_961)"/>
<path d="M96.525 45.2432C96.525 46.0493 97.1798 46.7027 97.9875 46.7027C98.7952 46.7027 99.45 46.0493 99.45 45.2432C99.45 44.4372 98.7952 43.7838 97.9875 43.7838C97.1798 43.7838 96.525 44.4372 96.525 45.2432Z" fill="url(#paint31_linear_70_961)"/>
<path d="M96.525 54C96.525 54.806 97.1798 55.4595 97.9875 55.4595C98.7952 55.4595 99.45 54.806 99.45 54C99.45 53.194 98.7952 52.5405 97.9875 52.5405C97.1798 52.5405 96.525 53.194 96.525 54Z" fill="url(#paint32_linear_70_961)"/>
<path d="M96.525 62.7568C96.525 63.5628 97.1798 64.2162 97.9875 64.2162C98.7952 64.2162 99.45 63.5628 99.45 62.7568C99.45 61.9507 98.7952 61.2973 97.9875 61.2973C97.1798 61.2973 96.525 61.9507 96.525 62.7568Z" fill="url(#paint33_linear_70_961)"/>
<path d="M96.525 71.5135C96.525 72.3195 97.1798 72.973 97.9875 72.973C98.7952 72.973 99.45 72.3195 99.45 71.5135C99.45 70.7075 98.7952 70.0541 97.9875 70.0541C97.1798 70.0541 96.525 70.7075 96.525 71.5135Z" fill="url(#paint34_linear_70_961)"/>
<path d="M96.525 80.2703C96.525 81.0763 97.1798 81.7297 97.9875 81.7297C98.7952 81.7297 99.45 81.0763 99.45 80.2703C99.45 79.4642 98.7952 78.8108 97.9875 78.8108C97.1798 78.8108 96.525 79.4642 96.525 80.2703Z" fill="url(#paint35_linear_70_961)"/>
<path d="M96.525 89.027C96.525 89.8331 97.1798 90.4865 97.9875 90.4865C98.7952 90.4865 99.45 89.8331 99.45 89.027C99.45 88.221 98.7952 87.5676 97.9875 87.5676C97.1798 87.5676 96.525 88.221 96.525 89.027Z" fill="url(#paint36_linear_70_961)"/>
<path d="M96.525 97.7838C96.525 98.5898 97.1798 99.2432 97.9875 99.2432C98.7952 99.2432 99.45 98.5898 99.45 97.7838C99.45 96.9777 98.7952 96.3243 97.9875 96.3243C97.1798 96.3243 96.525 96.9777 96.525 97.7838Z" fill="url(#paint37_linear_70_961)"/>
<path d="M96.525 106.541C96.525 107.347 97.1798 108 97.9875 108C98.7952 108 99.45 107.347 99.45 106.541C99.45 105.735 98.7952 105.081 97.9875 105.081C97.1798 105.081 96.525 105.735 96.525 106.541Z" fill="url(#paint38_linear_70_961)"/>
<path d="M87.75 1.45946C87.75 2.2655 88.4048 2.91892 89.2125 2.91892C90.0202 2.91892 90.675 2.2655 90.675 1.45946C90.675 0.653422 90.0202 0 89.2125 0C88.4048 0 87.75 0.653422 87.75 1.45946Z" fill="url(#paint39_linear_70_961)"/>
<path d="M87.75 10.2162C87.75 11.0223 88.4048 11.6757 89.2125 11.6757C90.0202 11.6757 90.675 11.0223 90.675 10.2162C90.675 9.41018 90.0202 8.75676 89.2125 8.75676C88.4048 8.75676 87.75 9.41018 87.75 10.2162Z" fill="url(#paint40_linear_70_961)"/>
<path d="M87.75 18.973C87.75 19.779 88.4048 20.4324 89.2125 20.4324C90.0202 20.4324 90.675 19.779 90.675 18.973C90.675 18.1669 90.0202 17.5135 89.2125 17.5135C88.4048 17.5135 87.75 18.1669 87.75 18.973Z" fill="url(#paint41_linear_70_961)"/>
<path d="M87.75 27.7297C87.75 28.5358 88.4048 29.1892 89.2125 29.1892C90.0202 29.1892 90.675 28.5358 90.675 27.7297C90.675 26.9237 90.0202 26.2703 89.2125 26.2703C88.4048 26.2703 87.75 26.9237 87.75 27.7297Z" fill="url(#paint42_linear_70_961)"/>
<path d="M87.75 36.4865C87.75 37.2925 88.4048 37.9459 89.2125 37.9459C90.0202 37.9459 90.675 37.2925 90.675 36.4865C90.675 35.6804 90.0202 35.027 89.2125 35.027C88.4048 35.027 87.75 35.6804 87.75 36.4865Z" fill="url(#paint43_linear_70_961)"/>
<path d="M87.75 45.2432C87.75 46.0493 88.4048 46.7027 89.2125 46.7027C90.0202 46.7027 90.675 46.0493 90.675 45.2432C90.675 44.4372 90.0202 43.7838 89.2125 43.7838C88.4048 43.7838 87.75 44.4372 87.75 45.2432Z" fill="url(#paint44_linear_70_961)"/>
<path d="M87.75 54C87.75 54.806 88.4048 55.4595 89.2125 55.4595C90.0202 55.4595 90.675 54.806 90.675 54C90.675 53.194 90.0202 52.5405 89.2125 52.5405C88.4048 52.5405 87.75 53.194 87.75 54Z" fill="url(#paint45_linear_70_961)"/>
<path d="M87.75 62.7568C87.75 63.5628 88.4048 64.2162 89.2125 64.2162C90.0202 64.2162 90.675 63.5628 90.675 62.7568C90.675 61.9507 90.0202 61.2973 89.2125 61.2973C88.4048 61.2973 87.75 61.9507 87.75 62.7568Z" fill="url(#paint46_linear_70_961)"/>
<path d="M87.75 71.5135C87.75 72.3195 88.4048 72.973 89.2125 72.973C90.0202 72.973 90.675 72.3195 90.675 71.5135C90.675 70.7075 90.0202 70.0541 89.2125 70.0541C88.4048 70.0541 87.75 70.7075 87.75 71.5135Z" fill="url(#paint47_linear_70_961)"/>
<path d="M87.75 80.2703C87.75 81.0763 88.4048 81.7297 89.2125 81.7297C90.0202 81.7297 90.675 81.0763 90.675 80.2703C90.675 79.4642 90.0202 78.8108 89.2125 78.8108C88.4048 78.8108 87.75 79.4642 87.75 80.2703Z" fill="url(#paint48_linear_70_961)"/>
<path d="M87.75 89.027C87.75 89.8331 88.4048 90.4865 89.2125 90.4865C90.0202 90.4865 90.675 89.8331 90.675 89.027C90.675 88.221 90.0202 87.5676 89.2125 87.5676C88.4048 87.5676 87.75 88.221 87.75 89.027Z" fill="url(#paint49_linear_70_961)"/>
<path d="M87.75 97.7838C87.75 98.5898 88.4048 99.2432 89.2125 99.2432C90.0202 99.2432 90.675 98.5898 90.675 97.7838C90.675 96.9777 90.0202 96.3243 89.2125 96.3243C88.4048 96.3243 87.75 96.9777 87.75 97.7838Z" fill="url(#paint50_linear_70_961)"/>
<path d="M87.75 106.541C87.75 107.347 88.4048 108 89.2125 108C90.0202 108 90.675 107.347 90.675 106.541C90.675 105.735 90.0202 105.081 89.2125 105.081C88.4048 105.081 87.75 105.735 87.75 106.541Z" fill="url(#paint51_linear_70_961)"/>
<path d="M78.975 1.45946C78.975 2.2655 79.6298 2.91892 80.4375 2.91892C81.2452 2.91892 81.9 2.2655 81.9 1.45946C81.9 0.653422 81.2452 0 80.4375 0C79.6298 0 78.975 0.653422 78.975 1.45946Z" fill="url(#paint52_linear_70_961)"/>
<path d="M78.975 10.2162C78.975 11.0223 79.6298 11.6757 80.4375 11.6757C81.2452 11.6757 81.9 11.0223 81.9 10.2162C81.9 9.41018 81.2452 8.75676 80.4375 8.75676C79.6298 8.75676 78.975 9.41018 78.975 10.2162Z" fill="url(#paint53_linear_70_961)"/>
<path d="M78.975 18.973C78.975 19.779 79.6298 20.4324 80.4375 20.4324C81.2452 20.4324 81.9 19.779 81.9 18.973C81.9 18.1669 81.2452 17.5135 80.4375 17.5135C79.6298 17.5135 78.975 18.1669 78.975 18.973Z" fill="url(#paint54_linear_70_961)"/>
<path d="M78.975 27.7297C78.975 28.5358 79.6298 29.1892 80.4375 29.1892C81.2452 29.1892 81.9 28.5358 81.9 27.7297C81.9 26.9237 81.2452 26.2703 80.4375 26.2703C79.6298 26.2703 78.975 26.9237 78.975 27.7297Z" fill="url(#paint55_linear_70_961)"/>
<path d="M78.975 36.4865C78.975 37.2925 79.6298 37.9459 80.4375 37.9459C81.2452 37.9459 81.9 37.2925 81.9 36.4865C81.9 35.6804 81.2452 35.027 80.4375 35.027C79.6298 35.027 78.975 35.6804 78.975 36.4865Z" fill="url(#paint56_linear_70_961)"/>
<path d="M78.975 45.2432C78.975 46.0493 79.6298 46.7027 80.4375 46.7027C81.2452 46.7027 81.9 46.0493 81.9 45.2432C81.9 44.4372 81.2452 43.7838 80.4375 43.7838C79.6298 43.7838 78.975 44.4372 78.975 45.2432Z" fill="url(#paint57_linear_70_961)"/>
<path d="M78.975 54C78.975 54.806 79.6298 55.4595 80.4375 55.4595C81.2452 55.4595 81.9 54.806 81.9 54C81.9 53.194 81.2452 52.5405 80.4375 52.5405C79.6298 52.5405 78.975 53.194 78.975 54Z" fill="url(#paint58_linear_70_961)"/>
<path d="M78.975 62.7568C78.975 63.5628 79.6298 64.2162 80.4375 64.2162C81.2452 64.2162 81.9 63.5628 81.9 62.7568C81.9 61.9507 81.2452 61.2973 80.4375 61.2973C79.6298 61.2973 78.975 61.9507 78.975 62.7568Z" fill="url(#paint59_linear_70_961)"/>
<path d="M78.975 71.5135C78.975 72.3195 79.6298 72.973 80.4375 72.973C81.2452 72.973 81.9 72.3195 81.9 71.5135C81.9 70.7075 81.2452 70.0541 80.4375 70.0541C79.6298 70.0541 78.975 70.7075 78.975 71.5135Z" fill="url(#paint60_linear_70_961)"/>
<path d="M78.975 80.2703C78.975 81.0763 79.6298 81.7297 80.4375 81.7297C81.2452 81.7297 81.9 81.0763 81.9 80.2703C81.9 79.4642 81.2452 78.8108 80.4375 78.8108C79.6298 78.8108 78.975 79.4642 78.975 80.2703Z" fill="url(#paint61_linear_70_961)"/>
<path d="M78.975 89.027C78.975 89.8331 79.6298 90.4865 80.4375 90.4865C81.2452 90.4865 81.9 89.8331 81.9 89.027C81.9 88.221 81.2452 87.5676 80.4375 87.5676C79.6298 87.5676 78.975 88.221 78.975 89.027Z" fill="url(#paint62_linear_70_961)"/>
<path d="M78.975 97.7838C78.975 98.5898 79.6298 99.2432 80.4375 99.2432C81.2452 99.2432 81.9 98.5898 81.9 97.7838C81.9 96.9777 81.2452 96.3243 80.4375 96.3243C79.6298 96.3243 78.975 96.9777 78.975 97.7838Z" fill="url(#paint63_linear_70_961)"/>
<path d="M78.975 106.541C78.975 107.347 79.6298 108 80.4375 108C81.2452 108 81.9 107.347 81.9 106.541C81.9 105.735 81.2452 105.081 80.4375 105.081C79.6298 105.081 78.975 105.735 78.975 106.541Z" fill="url(#paint64_linear_70_961)"/>
<path d="M70.2 1.45946C70.2 2.2655 70.8548 2.91892 71.6625 2.91892C72.4702 2.91892 73.125 2.2655 73.125 1.45946C73.125 0.653422 72.4702 0 71.6625 0C70.8548 0 70.2 0.653422 70.2 1.45946Z" fill="url(#paint65_linear_70_961)"/>
<path d="M70.2 10.2162C70.2 11.0223 70.8548 11.6757 71.6625 11.6757C72.4702 11.6757 73.125 11.0223 73.125 10.2162C73.125 9.41018 72.4702 8.75676 71.6625 8.75676C70.8548 8.75676 70.2 9.41018 70.2 10.2162Z" fill="url(#paint66_linear_70_961)"/>
<path d="M70.2 18.973C70.2 19.779 70.8548 20.4324 71.6625 20.4324C72.4702 20.4324 73.125 19.779 73.125 18.973C73.125 18.1669 72.4702 17.5135 71.6625 17.5135C70.8548 17.5135 70.2 18.1669 70.2 18.973Z" fill="url(#paint67_linear_70_961)"/>
<path d="M70.2 27.7297C70.2 28.5358 70.8548 29.1892 71.6625 29.1892C72.4702 29.1892 73.125 28.5358 73.125 27.7297C73.125 26.9237 72.4702 26.2703 71.6625 26.2703C70.8548 26.2703 70.2 26.9237 70.2 27.7297Z" fill="url(#paint68_linear_70_961)"/>
<path d="M70.2 36.4865C70.2 37.2925 70.8548 37.9459 71.6625 37.9459C72.4702 37.9459 73.125 37.2925 73.125 36.4865C73.125 35.6804 72.4702 35.027 71.6625 35.027C70.8548 35.027 70.2 35.6804 70.2 36.4865Z" fill="url(#paint69_linear_70_961)"/>
<path d="M70.2 45.2432C70.2 46.0493 70.8548 46.7027 71.6625 46.7027C72.4702 46.7027 73.125 46.0493 73.125 45.2432C73.125 44.4372 72.4702 43.7838 71.6625 43.7838C70.8548 43.7838 70.2 44.4372 70.2 45.2432Z" fill="url(#paint70_linear_70_961)"/>
<path d="M70.2 54C70.2 54.806 70.8548 55.4595 71.6625 55.4595C72.4702 55.4595 73.125 54.806 73.125 54C73.125 53.194 72.4702 52.5405 71.6625 52.5405C70.8548 52.5405 70.2 53.194 70.2 54Z" fill="url(#paint71_linear_70_961)"/>
<path d="M70.2 62.7568C70.2 63.5628 70.8548 64.2162 71.6625 64.2162C72.4702 64.2162 73.125 63.5628 73.125 62.7568C73.125 61.9507 72.4702 61.2973 71.6625 61.2973C70.8548 61.2973 70.2 61.9507 70.2 62.7568Z" fill="url(#paint72_linear_70_961)"/>
<path d="M70.2 71.5135C70.2 72.3195 70.8548 72.973 71.6625 72.973C72.4702 72.973 73.125 72.3195 73.125 71.5135C73.125 70.7075 72.4702 70.0541 71.6625 70.0541C70.8548 70.0541 70.2 70.7075 70.2 71.5135Z" fill="url(#paint73_linear_70_961)"/>
<path d="M70.2 80.2703C70.2 81.0763 70.8548 81.7297 71.6625 81.7297C72.4702 81.7297 73.125 81.0763 73.125 80.2703C73.125 79.4642 72.4702 78.8108 71.6625 78.8108C70.8548 78.8108 70.2 79.4642 70.2 80.2703Z" fill="url(#paint74_linear_70_961)"/>
<path d="M70.2 89.027C70.2 89.8331 70.8548 90.4865 71.6625 90.4865C72.4702 90.4865 73.125 89.8331 73.125 89.027C73.125 88.221 72.4702 87.5676 71.6625 87.5676C70.8548 87.5676 70.2 88.221 70.2 89.027Z" fill="url(#paint75_linear_70_961)"/>
<path d="M70.2 97.7838C70.2 98.5898 70.8548 99.2432 71.6625 99.2432C72.4702 99.2432 73.125 98.5898 73.125 97.7838C73.125 96.9777 72.4702 96.3243 71.6625 96.3243C70.8548 96.3243 70.2 96.9777 70.2 97.7838Z" fill="url(#paint76_linear_70_961)"/>
<path d="M70.2 106.541C70.2 107.347 70.8548 108 71.6625 108C72.4702 108 73.125 107.347 73.125 106.541C73.125 105.735 72.4702 105.081 71.6625 105.081C70.8548 105.081 70.2 105.735 70.2 106.541Z" fill="url(#paint77_linear_70_961)"/>
<path d="M61.425 1.45946C61.425 2.2655 62.0798 2.91892 62.8875 2.91892C63.6952 2.91892 64.35 2.2655 64.35 1.45946C64.35 0.653422 63.6952 0 62.8875 0C62.0798 0 61.425 0.653422 61.425 1.45946Z" fill="url(#paint78_linear_70_961)"/>
<path d="M61.425 10.2162C61.425 11.0223 62.0798 11.6757 62.8875 11.6757C63.6952 11.6757 64.35 11.0223 64.35 10.2162C64.35 9.41018 63.6952 8.75676 62.8875 8.75676C62.0798 8.75676 61.425 9.41018 61.425 10.2162Z" fill="url(#paint79_linear_70_961)"/>
<path d="M61.425 18.973C61.425 19.779 62.0798 20.4324 62.8875 20.4324C63.6952 20.4324 64.35 19.779 64.35 18.973C64.35 18.1669 63.6952 17.5135 62.8875 17.5135C62.0798 17.5135 61.425 18.1669 61.425 18.973Z" fill="url(#paint80_linear_70_961)"/>
<path d="M61.425 27.7297C61.425 28.5358 62.0798 29.1892 62.8875 29.1892C63.6952 29.1892 64.35 28.5358 64.35 27.7297C64.35 26.9237 63.6952 26.2703 62.8875 26.2703C62.0798 26.2703 61.425 26.9237 61.425 27.7297Z" fill="url(#paint81_linear_70_961)"/>
<path d="M61.425 36.4865C61.425 37.2925 62.0798 37.9459 62.8875 37.9459C63.6952 37.9459 64.35 37.2925 64.35 36.4865C64.35 35.6804 63.6952 35.027 62.8875 35.027C62.0798 35.027 61.425 35.6804 61.425 36.4865Z" fill="url(#paint82_linear_70_961)"/>
<path d="M61.425 45.2432C61.425 46.0493 62.0798 46.7027 62.8875 46.7027C63.6952 46.7027 64.35 46.0493 64.35 45.2432C64.35 44.4372 63.6952 43.7838 62.8875 43.7838C62.0798 43.7838 61.425 44.4372 61.425 45.2432Z" fill="url(#paint83_linear_70_961)"/>
<path d="M61.425 54C61.425 54.806 62.0798 55.4595 62.8875 55.4595C63.6952 55.4595 64.35 54.806 64.35 54C64.35 53.194 63.6952 52.5405 62.8875 52.5405C62.0798 52.5405 61.425 53.194 61.425 54Z" fill="url(#paint84_linear_70_961)"/>
<path d="M61.425 62.7568C61.425 63.5628 62.0798 64.2162 62.8875 64.2162C63.6952 64.2162 64.35 63.5628 64.35 62.7568C64.35 61.9507 63.6952 61.2973 62.8875 61.2973C62.0798 61.2973 61.425 61.9507 61.425 62.7568Z" fill="url(#paint85_linear_70_961)"/>
<path d="M61.425 71.5135C61.425 72.3195 62.0798 72.973 62.8875 72.973C63.6952 72.973 64.35 72.3195 64.35 71.5135C64.35 70.7075 63.6952 70.0541 62.8875 70.0541C62.0798 70.0541 61.425 70.7075 61.425 71.5135Z" fill="url(#paint86_linear_70_961)"/>
<path d="M61.425 80.2703C61.425 81.0763 62.0798 81.7297 62.8875 81.7297C63.6952 81.7297 64.35 81.0763 64.35 80.2703C64.35 79.4642 63.6952 78.8108 62.8875 78.8108C62.0798 78.8108 61.425 79.4642 61.425 80.2703Z" fill="url(#paint87_linear_70_961)"/>
<path d="M61.425 89.027C61.425 89.8331 62.0798 90.4865 62.8875 90.4865C63.6952 90.4865 64.35 89.8331 64.35 89.027C64.35 88.221 63.6952 87.5676 62.8875 87.5676C62.0798 87.5676 61.425 88.221 61.425 89.027Z" fill="url(#paint88_linear_70_961)"/>
<path d="M61.425 97.7838C61.425 98.5898 62.0798 99.2432 62.8875 99.2432C63.6952 99.2432 64.35 98.5898 64.35 97.7838C64.35 96.9777 63.6952 96.3243 62.8875 96.3243C62.0798 96.3243 61.425 96.9777 61.425 97.7838Z" fill="url(#paint89_linear_70_961)"/>
<path d="M61.425 106.541C61.425 107.347 62.0798 108 62.8875 108C63.6952 108 64.35 107.347 64.35 106.541C64.35 105.735 63.6952 105.081 62.8875 105.081C62.0798 105.081 61.425 105.735 61.425 106.541Z" fill="url(#paint90_linear_70_961)"/>
<path d="M52.65 1.45946C52.65 2.2655 53.3048 2.91892 54.1125 2.91892C54.9202 2.91892 55.575 2.2655 55.575 1.45946C55.575 0.653422 54.9202 0 54.1125 0C53.3048 0 52.65 0.653422 52.65 1.45946Z" fill="url(#paint91_linear_70_961)"/>
<path d="M52.65 10.2162C52.65 11.0223 53.3048 11.6757 54.1125 11.6757C54.9202 11.6757 55.575 11.0223 55.575 10.2162C55.575 9.41018 54.9202 8.75676 54.1125 8.75676C53.3048 8.75676 52.65 9.41018 52.65 10.2162Z" fill="url(#paint92_linear_70_961)"/>
<path d="M52.65 18.973C52.65 19.779 53.3048 20.4324 54.1125 20.4324C54.9202 20.4324 55.575 19.779 55.575 18.973C55.575 18.1669 54.9202 17.5135 54.1125 17.5135C53.3048 17.5135 52.65 18.1669 52.65 18.973Z" fill="url(#paint93_linear_70_961)"/>
<path d="M52.65 27.7297C52.65 28.5358 53.3048 29.1892 54.1125 29.1892C54.9202 29.1892 55.575 28.5358 55.575 27.7297C55.575 26.9237 54.9202 26.2703 54.1125 26.2703C53.3048 26.2703 52.65 26.9237 52.65 27.7297Z" fill="url(#paint94_linear_70_961)"/>
<path d="M52.65 36.4865C52.65 37.2925 53.3048 37.9459 54.1125 37.9459C54.9202 37.9459 55.575 37.2925 55.575 36.4865C55.575 35.6804 54.9202 35.027 54.1125 35.027C53.3048 35.027 52.65 35.6804 52.65 36.4865Z" fill="url(#paint95_linear_70_961)"/>
<path d="M52.65 45.2432C52.65 46.0493 53.3048 46.7027 54.1125 46.7027C54.9202 46.7027 55.575 46.0493 55.575 45.2432C55.575 44.4372 54.9202 43.7838 54.1125 43.7838C53.3048 43.7838 52.65 44.4372 52.65 45.2432Z" fill="url(#paint96_linear_70_961)"/>
<path d="M52.65 54C52.65 54.806 53.3048 55.4595 54.1125 55.4595C54.9202 55.4595 55.575 54.806 55.575 54C55.575 53.194 54.9202 52.5405 54.1125 52.5405C53.3048 52.5405 52.65 53.194 52.65 54Z" fill="url(#paint97_linear_70_961)"/>
<path d="M52.65 62.7568C52.65 63.5628 53.3048 64.2162 54.1125 64.2162C54.9202 64.2162 55.575 63.5628 55.575 62.7568C55.575 61.9507 54.9202 61.2973 54.1125 61.2973C53.3048 61.2973 52.65 61.9507 52.65 62.7568Z" fill="url(#paint98_linear_70_961)"/>
<path d="M52.65 71.5135C52.65 72.3195 53.3048 72.973 54.1125 72.973C54.9202 72.973 55.575 72.3195 55.575 71.5135C55.575 70.7075 54.9202 70.0541 54.1125 70.0541C53.3048 70.0541 52.65 70.7075 52.65 71.5135Z" fill="url(#paint99_linear_70_961)"/>
<path d="M52.65 80.2703C52.65 81.0763 53.3048 81.7297 54.1125 81.7297C54.9202 81.7297 55.575 81.0763 55.575 80.2703C55.575 79.4642 54.9202 78.8108 54.1125 78.8108C53.3048 78.8108 52.65 79.4642 52.65 80.2703Z" fill="url(#paint100_linear_70_961)"/>
<path d="M52.65 89.027C52.65 89.8331 53.3048 90.4865 54.1125 90.4865C54.9202 90.4865 55.575 89.8331 55.575 89.027C55.575 88.221 54.9202 87.5676 54.1125 87.5676C53.3048 87.5676 52.65 88.221 52.65 89.027Z" fill="url(#paint101_linear_70_961)"/>
<path d="M52.65 97.7838C52.65 98.5898 53.3048 99.2432 54.1125 99.2432C54.9202 99.2432 55.575 98.5898 55.575 97.7838C55.575 96.9777 54.9202 96.3243 54.1125 96.3243C53.3048 96.3243 52.65 96.9777 52.65 97.7838Z" fill="url(#paint102_linear_70_961)"/>
<path d="M52.65 106.541C52.65 107.347 53.3048 108 54.1125 108C54.9202 108 55.575 107.347 55.575 106.541C55.575 105.735 54.9202 105.081 54.1125 105.081C53.3048 105.081 52.65 105.735 52.65 106.541Z" fill="url(#paint103_linear_70_961)"/>
<path d="M43.875 1.45946C43.875 2.2655 44.5298 2.91892 45.3375 2.91892C46.1452 2.91892 46.8 2.2655 46.8 1.45946C46.8 0.653422 46.1452 0 45.3375 0C44.5298 0 43.875 0.653422 43.875 1.45946Z" fill="url(#paint104_linear_70_961)"/>
<path d="M43.875 10.2162C43.875 11.0223 44.5298 11.6757 45.3375 11.6757C46.1452 11.6757 46.8 11.0223 46.8 10.2162C46.8 9.41018 46.1452 8.75676 45.3375 8.75676C44.5298 8.75676 43.875 9.41018 43.875 10.2162Z" fill="url(#paint105_linear_70_961)"/>
<path d="M43.875 18.973C43.875 19.779 44.5298 20.4324 45.3375 20.4324C46.1452 20.4324 46.8 19.779 46.8 18.973C46.8 18.1669 46.1452 17.5135 45.3375 17.5135C44.5298 17.5135 43.875 18.1669 43.875 18.973Z" fill="url(#paint106_linear_70_961)"/>
<path d="M43.875 27.7297C43.875 28.5358 44.5298 29.1892 45.3375 29.1892C46.1452 29.1892 46.8 28.5358 46.8 27.7297C46.8 26.9237 46.1452 26.2703 45.3375 26.2703C44.5298 26.2703 43.875 26.9237 43.875 27.7297Z" fill="url(#paint107_linear_70_961)"/>
<path d="M43.875 36.4865C43.875 37.2925 44.5298 37.9459 45.3375 37.9459C46.1452 37.9459 46.8 37.2925 46.8 36.4865C46.8 35.6804 46.1452 35.027 45.3375 35.027C44.5298 35.027 43.875 35.6804 43.875 36.4865Z" fill="url(#paint108_linear_70_961)"/>
<path d="M43.875 45.2432C43.875 46.0493 44.5298 46.7027 45.3375 46.7027C46.1452 46.7027 46.8 46.0493 46.8 45.2432C46.8 44.4372 46.1452 43.7838 45.3375 43.7838C44.5298 43.7838 43.875 44.4372 43.875 45.2432Z" fill="url(#paint109_linear_70_961)"/>
<path d="M43.875 54C43.875 54.806 44.5298 55.4595 45.3375 55.4595C46.1452 55.4595 46.8 54.806 46.8 54C46.8 53.194 46.1452 52.5405 45.3375 52.5405C44.5298 52.5405 43.875 53.194 43.875 54Z" fill="url(#paint110_linear_70_961)"/>
<path d="M43.875 62.7568C43.875 63.5628 44.5298 64.2162 45.3375 64.2162C46.1452 64.2162 46.8 63.5628 46.8 62.7568C46.8 61.9507 46.1452 61.2973 45.3375 61.2973C44.5298 61.2973 43.875 61.9507 43.875 62.7568Z" fill="url(#paint111_linear_70_961)"/>
<path d="M43.875 71.5135C43.875 72.3195 44.5298 72.973 45.3375 72.973C46.1452 72.973 46.8 72.3195 46.8 71.5135C46.8 70.7075 46.1452 70.0541 45.3375 70.0541C44.5298 70.0541 43.875 70.7075 43.875 71.5135Z" fill="url(#paint112_linear_70_961)"/>
<path d="M43.875 80.2703C43.875 81.0763 44.5298 81.7297 45.3375 81.7297C46.1452 81.7297 46.8 81.0763 46.8 80.2703C46.8 79.4642 46.1452 78.8108 45.3375 78.8108C44.5298 78.8108 43.875 79.4642 43.875 80.2703Z" fill="url(#paint113_linear_70_961)"/>
<path d="M43.875 89.027C43.875 89.8331 44.5298 90.4865 45.3375 90.4865C46.1452 90.4865 46.8 89.8331 46.8 89.027C46.8 88.221 46.1452 87.5676 45.3375 87.5676C44.5298 87.5676 43.875 88.221 43.875 89.027Z" fill="url(#paint114_linear_70_961)"/>
<path d="M43.875 97.7838C43.875 98.5898 44.5298 99.2432 45.3375 99.2432C46.1452 99.2432 46.8 98.5898 46.8 97.7838C46.8 96.9777 46.1452 96.3243 45.3375 96.3243C44.5298 96.3243 43.875 96.9777 43.875 97.7838Z" fill="url(#paint115_linear_70_961)"/>
<path d="M43.875 106.541C43.875 107.347 44.5298 108 45.3375 108C46.1452 108 46.8 107.347 46.8 106.541C46.8 105.735 46.1452 105.081 45.3375 105.081C44.5298 105.081 43.875 105.735 43.875 106.541Z" fill="url(#paint116_linear_70_961)"/>
<path d="M35.1 1.45946C35.1 2.2655 35.7548 2.91892 36.5625 2.91892C37.3702 2.91892 38.025 2.2655 38.025 1.45946C38.025 0.653422 37.3702 0 36.5625 0C35.7548 0 35.1 0.653422 35.1 1.45946Z" fill="url(#paint117_linear_70_961)"/>
<path d="M35.1 10.2162C35.1 11.0223 35.7548 11.6757 36.5625 11.6757C37.3702 11.6757 38.025 11.0223 38.025 10.2162C38.025 9.41018 37.3702 8.75676 36.5625 8.75676C35.7548 8.75676 35.1 9.41018 35.1 10.2162Z" fill="url(#paint118_linear_70_961)"/>
<path d="M35.1 18.973C35.1 19.779 35.7548 20.4324 36.5625 20.4324C37.3702 20.4324 38.025 19.779 38.025 18.973C38.025 18.1669 37.3702 17.5135 36.5625 17.5135C35.7548 17.5135 35.1 18.1669 35.1 18.973Z" fill="url(#paint119_linear_70_961)"/>
<path d="M35.1 27.7297C35.1 28.5358 35.7548 29.1892 36.5625 29.1892C37.3702 29.1892 38.025 28.5358 38.025 27.7297C38.025 26.9237 37.3702 26.2703 36.5625 26.2703C35.7548 26.2703 35.1 26.9237 35.1 27.7297Z" fill="url(#paint120_linear_70_961)"/>
<path d="M35.1 36.4865C35.1 37.2925 35.7548 37.9459 36.5625 37.9459C37.3702 37.9459 38.025 37.2925 38.025 36.4865C38.025 35.6804 37.3702 35.027 36.5625 35.027C35.7548 35.027 35.1 35.6804 35.1 36.4865Z" fill="url(#paint121_linear_70_961)"/>
<path d="M35.1 45.2432C35.1 46.0493 35.7548 46.7027 36.5625 46.7027C37.3702 46.7027 38.025 46.0493 38.025 45.2432C38.025 44.4372 37.3702 43.7838 36.5625 43.7838C35.7548 43.7838 35.1 44.4372 35.1 45.2432Z" fill="url(#paint122_linear_70_961)"/>
<path d="M35.1 54C35.1 54.806 35.7548 55.4595 36.5625 55.4595C37.3702 55.4595 38.025 54.806 38.025 54C38.025 53.194 37.3702 52.5405 36.5625 52.5405C35.7548 52.5405 35.1 53.194 35.1 54Z" fill="url(#paint123_linear_70_961)"/>
<path d="M35.1 62.7568C35.1 63.5628 35.7548 64.2162 36.5625 64.2162C37.3702 64.2162 38.025 63.5628 38.025 62.7568C38.025 61.9507 37.3702 61.2973 36.5625 61.2973C35.7548 61.2973 35.1 61.9507 35.1 62.7568Z" fill="url(#paint124_linear_70_961)"/>
<path d="M35.1 71.5135C35.1 72.3195 35.7548 72.973 36.5625 72.973C37.3702 72.973 38.025 72.3195 38.025 71.5135C38.025 70.7075 37.3702 70.0541 36.5625 70.0541C35.7548 70.0541 35.1 70.7075 35.1 71.5135Z" fill="url(#paint125_linear_70_961)"/>
<path d="M35.1 80.2703C35.1 81.0763 35.7548 81.7297 36.5625 81.7297C37.3702 81.7297 38.025 81.0763 38.025 80.2703C38.025 79.4642 37.3702 78.8108 36.5625 78.8108C35.7548 78.8108 35.1 79.4642 35.1 80.2703Z" fill="url(#paint126_linear_70_961)"/>
<path d="M35.1 89.027C35.1 89.8331 35.7548 90.4865 36.5625 90.4865C37.3702 90.4865 38.025 89.8331 38.025 89.027C38.025 88.221 37.3702 87.5676 36.5625 87.5676C35.7548 87.5676 35.1 88.221 35.1 89.027Z" fill="url(#paint127_linear_70_961)"/>
<path d="M35.1 97.7838C35.1 98.5898 35.7548 99.2432 36.5625 99.2432C37.3702 99.2432 38.025 98.5898 38.025 97.7838C38.025 96.9777 37.3702 96.3243 36.5625 96.3243C35.7548 96.3243 35.1 96.9777 35.1 97.7838Z" fill="url(#paint128_linear_70_961)"/>
<path d="M35.1 106.541C35.1 107.347 35.7548 108 36.5625 108C37.3702 108 38.025 107.347 38.025 106.541C38.025 105.735 37.3702 105.081 36.5625 105.081C35.7548 105.081 35.1 105.735 35.1 106.541Z" fill="url(#paint129_linear_70_961)"/>
<path d="M26.325 1.45946C26.325 2.2655 26.9798 2.91892 27.7875 2.91892C28.5952 2.91892 29.25 2.2655 29.25 1.45946C29.25 0.653422 28.5952 0 27.7875 0C26.9798 0 26.325 0.653422 26.325 1.45946Z" fill="url(#paint130_linear_70_961)"/>
<path d="M26.325 10.2162C26.325 11.0223 26.9798 11.6757 27.7875 11.6757C28.5952 11.6757 29.25 11.0223 29.25 10.2162C29.25 9.41018 28.5952 8.75676 27.7875 8.75676C26.9798 8.75676 26.325 9.41018 26.325 10.2162Z" fill="url(#paint131_linear_70_961)"/>
<path d="M26.325 18.973C26.325 19.779 26.9798 20.4324 27.7875 20.4324C28.5952 20.4324 29.25 19.779 29.25 18.973C29.25 18.1669 28.5952 17.5135 27.7875 17.5135C26.9798 17.5135 26.325 18.1669 26.325 18.973Z" fill="url(#paint132_linear_70_961)"/>
<path d="M26.325 27.7297C26.325 28.5358 26.9798 29.1892 27.7875 29.1892C28.5952 29.1892 29.25 28.5358 29.25 27.7297C29.25 26.9237 28.5952 26.2703 27.7875 26.2703C26.9798 26.2703 26.325 26.9237 26.325 27.7297Z" fill="url(#paint133_linear_70_961)"/>
<path d="M26.325 36.4865C26.325 37.2925 26.9798 37.9459 27.7875 37.9459C28.5952 37.9459 29.25 37.2925 29.25 36.4865C29.25 35.6804 28.5952 35.027 27.7875 35.027C26.9798 35.027 26.325 35.6804 26.325 36.4865Z" fill="url(#paint134_linear_70_961)"/>
<path d="M26.325 45.2432C26.325 46.0493 26.9798 46.7027 27.7875 46.7027C28.5952 46.7027 29.25 46.0493 29.25 45.2432C29.25 44.4372 28.5952 43.7838 27.7875 43.7838C26.9798 43.7838 26.325 44.4372 26.325 45.2432Z" fill="url(#paint135_linear_70_961)"/>
<path d="M26.325 54C26.325 54.806 26.9798 55.4595 27.7875 55.4595C28.5952 55.4595 29.25 54.806 29.25 54C29.25 53.194 28.5952 52.5405 27.7875 52.5405C26.9798 52.5405 26.325 53.194 26.325 54Z" fill="url(#paint136_linear_70_961)"/>
<path d="M26.325 62.7568C26.325 63.5628 26.9798 64.2162 27.7875 64.2162C28.5952 64.2162 29.25 63.5628 29.25 62.7568C29.25 61.9507 28.5952 61.2973 27.7875 61.2973C26.9798 61.2973 26.325 61.9507 26.325 62.7568Z" fill="url(#paint137_linear_70_961)"/>
<path d="M26.325 71.5135C26.325 72.3195 26.9798 72.973 27.7875 72.973C28.5952 72.973 29.25 72.3195 29.25 71.5135C29.25 70.7075 28.5952 70.0541 27.7875 70.0541C26.9798 70.0541 26.325 70.7075 26.325 71.5135Z" fill="url(#paint138_linear_70_961)"/>
<path d="M26.325 80.2703C26.325 81.0763 26.9798 81.7297 27.7875 81.7297C28.5952 81.7297 29.25 81.0763 29.25 80.2703C29.25 79.4642 28.5952 78.8108 27.7875 78.8108C26.9798 78.8108 26.325 79.4642 26.325 80.2703Z" fill="url(#paint139_linear_70_961)"/>
<path d="M26.325 89.027C26.325 89.8331 26.9798 90.4865 27.7875 90.4865C28.5952 90.4865 29.25 89.8331 29.25 89.027C29.25 88.221 28.5952 87.5676 27.7875 87.5676C26.9798 87.5676 26.325 88.221 26.325 89.027Z" fill="url(#paint140_linear_70_961)"/>
<path d="M26.325 97.7838C26.325 98.5898 26.9798 99.2432 27.7875 99.2432C28.5952 99.2432 29.25 98.5898 29.25 97.7838C29.25 96.9777 28.5952 96.3243 27.7875 96.3243C26.9798 96.3243 26.325 96.9777 26.325 97.7838Z" fill="url(#paint141_linear_70_961)"/>
<path d="M26.325 106.541C26.325 107.347 26.9798 108 27.7875 108C28.5952 108 29.25 107.347 29.25 106.541C29.25 105.735 28.5952 105.081 27.7875 105.081C26.9798 105.081 26.325 105.735 26.325 106.541Z" fill="url(#paint142_linear_70_961)"/>
<path d="M17.55 1.45946C17.55 2.2655 18.2048 2.91892 19.0125 2.91892C19.8202 2.91892 20.475 2.2655 20.475 1.45946C20.475 0.653422 19.8202 0 19.0125 0C18.2048 0 17.55 0.653422 17.55 1.45946Z" fill="url(#paint143_linear_70_961)"/>
<path d="M17.55 10.2162C17.55 11.0223 18.2048 11.6757 19.0125 11.6757C19.8202 11.6757 20.475 11.0223 20.475 10.2162C20.475 9.41018 19.8202 8.75676 19.0125 8.75676C18.2048 8.75676 17.55 9.41018 17.55 10.2162Z" fill="url(#paint144_linear_70_961)"/>
<path d="M17.55 18.973C17.55 19.779 18.2048 20.4324 19.0125 20.4324C19.8202 20.4324 20.475 19.779 20.475 18.973C20.475 18.1669 19.8202 17.5135 19.0125 17.5135C18.2048 17.5135 17.55 18.1669 17.55 18.973Z" fill="url(#paint145_linear_70_961)"/>
<path d="M17.55 27.7297C17.55 28.5358 18.2048 29.1892 19.0125 29.1892C19.8202 29.1892 20.475 28.5358 20.475 27.7297C20.475 26.9237 19.8202 26.2703 19.0125 26.2703C18.2048 26.2703 17.55 26.9237 17.55 27.7297Z" fill="url(#paint146_linear_70_961)"/>
<path d="M17.55 36.4865C17.55 37.2925 18.2048 37.9459 19.0125 37.9459C19.8202 37.9459 20.475 37.2925 20.475 36.4865C20.475 35.6804 19.8202 35.027 19.0125 35.027C18.2048 35.027 17.55 35.6804 17.55 36.4865Z" fill="url(#paint147_linear_70_961)"/>
<path d="M17.55 45.2432C17.55 46.0493 18.2048 46.7027 19.0125 46.7027C19.8202 46.7027 20.475 46.0493 20.475 45.2432C20.475 44.4372 19.8202 43.7838 19.0125 43.7838C18.2048 43.7838 17.55 44.4372 17.55 45.2432Z" fill="url(#paint148_linear_70_961)"/>
<path d="M17.55 54C17.55 54.806 18.2048 55.4595 19.0125 55.4595C19.8202 55.4595 20.475 54.806 20.475 54C20.475 53.194 19.8202 52.5405 19.0125 52.5405C18.2048 52.5405 17.55 53.194 17.55 54Z" fill="url(#paint149_linear_70_961)"/>
<path d="M17.55 62.7568C17.55 63.5628 18.2048 64.2162 19.0125 64.2162C19.8202 64.2162 20.475 63.5628 20.475 62.7568C20.475 61.9507 19.8202 61.2973 19.0125 61.2973C18.2048 61.2973 17.55 61.9507 17.55 62.7568Z" fill="url(#paint150_linear_70_961)"/>
<path d="M17.55 71.5135C17.55 72.3195 18.2048 72.973 19.0125 72.973C19.8202 72.973 20.475 72.3195 20.475 71.5135C20.475 70.7075 19.8202 70.0541 19.0125 70.0541C18.2048 70.0541 17.55 70.7075 17.55 71.5135Z" fill="url(#paint151_linear_70_961)"/>
<path d="M17.55 80.2703C17.55 81.0763 18.2048 81.7297 19.0125 81.7297C19.8202 81.7297 20.475 81.0763 20.475 80.2703C20.475 79.4642 19.8202 78.8108 19.0125 78.8108C18.2048 78.8108 17.55 79.4642 17.55 80.2703Z" fill="url(#paint152_linear_70_961)"/>
<path d="M17.55 89.027C17.55 89.8331 18.2048 90.4865 19.0125 90.4865C19.8202 90.4865 20.475 89.8331 20.475 89.027C20.475 88.221 19.8202 87.5676 19.0125 87.5676C18.2048 87.5676 17.55 88.221 17.55 89.027Z" fill="url(#paint153_linear_70_961)"/>
<path d="M17.55 97.7838C17.55 98.5898 18.2048 99.2432 19.0125 99.2432C19.8202 99.2432 20.475 98.5898 20.475 97.7838C20.475 96.9777 19.8202 96.3243 19.0125 96.3243C18.2048 96.3243 17.55 96.9777 17.55 97.7838Z" fill="url(#paint154_linear_70_961)"/>
<path d="M17.55 106.541C17.55 107.347 18.2048 108 19.0125 108C19.8202 108 20.475 107.347 20.475 106.541C20.475 105.735 19.8202 105.081 19.0125 105.081C18.2048 105.081 17.55 105.735 17.55 106.541Z" fill="url(#paint155_linear_70_961)"/>
<path d="M8.775 1.45946C8.775 2.2655 9.42979 2.91892 10.2375 2.91892C11.0452 2.91892 11.7 2.2655 11.7 1.45946C11.7 0.653422 11.0452 0 10.2375 0C9.42979 0 8.775 0.653422 8.775 1.45946Z" fill="url(#paint156_linear_70_961)"/>
<path d="M8.775 10.2162C8.775 11.0223 9.42979 11.6757 10.2375 11.6757C11.0452 11.6757 11.7 11.0223 11.7 10.2162C11.7 9.41018 11.0452 8.75676 10.2375 8.75676C9.42979 8.75676 8.775 9.41018 8.775 10.2162Z" fill="url(#paint157_linear_70_961)"/>
<path d="M8.775 18.973C8.775 19.779 9.42979 20.4324 10.2375 20.4324C11.0452 20.4324 11.7 19.779 11.7 18.973C11.7 18.1669 11.0452 17.5135 10.2375 17.5135C9.42979 17.5135 8.775 18.1669 8.775 18.973Z" fill="url(#paint158_linear_70_961)"/>
<path d="M8.775 27.7297C8.775 28.5358 9.42979 29.1892 10.2375 29.1892C11.0452 29.1892 11.7 28.5358 11.7 27.7297C11.7 26.9237 11.0452 26.2703 10.2375 26.2703C9.42979 26.2703 8.775 26.9237 8.775 27.7297Z" fill="url(#paint159_linear_70_961)"/>
<path d="M8.775 36.4865C8.775 37.2925 9.42979 37.9459 10.2375 37.9459C11.0452 37.9459 11.7 37.2925 11.7 36.4865C11.7 35.6804 11.0452 35.027 10.2375 35.027C9.42979 35.027 8.775 35.6804 8.775 36.4865Z" fill="url(#paint160_linear_70_961)"/>
<path d="M8.775 45.2432C8.775 46.0493 9.42979 46.7027 10.2375 46.7027C11.0452 46.7027 11.7 46.0493 11.7 45.2432C11.7 44.4372 11.0452 43.7838 10.2375 43.7838C9.42979 43.7838 8.775 44.4372 8.775 45.2432Z" fill="url(#paint161_linear_70_961)"/>
<path d="M8.775 54C8.775 54.806 9.42979 55.4595 10.2375 55.4595C11.0452 55.4595 11.7 54.806 11.7 54C11.7 53.194 11.0452 52.5405 10.2375 52.5405C9.42979 52.5405 8.775 53.194 8.775 54Z" fill="url(#paint162_linear_70_961)"/>
<path d="M8.775 62.7568C8.775 63.5628 9.42979 64.2162 10.2375 64.2162C11.0452 64.2162 11.7 63.5628 11.7 62.7568C11.7 61.9507 11.0452 61.2973 10.2375 61.2973C9.42979 61.2973 8.775 61.9507 8.775 62.7568Z" fill="url(#paint163_linear_70_961)"/>
<path d="M8.775 71.5135C8.775 72.3195 9.42979 72.973 10.2375 72.973C11.0452 72.973 11.7 72.3195 11.7 71.5135C11.7 70.7075 11.0452 70.0541 10.2375 70.0541C9.42979 70.0541 8.775 70.7075 8.775 71.5135Z" fill="url(#paint164_linear_70_961)"/>
<path d="M8.775 80.2703C8.775 81.0763 9.42979 81.7297 10.2375 81.7297C11.0452 81.7297 11.7 81.0763 11.7 80.2703C11.7 79.4642 11.0452 78.8108 10.2375 78.8108C9.42979 78.8108 8.775 79.4642 8.775 80.2703Z" fill="url(#paint165_linear_70_961)"/>
<path d="M8.775 89.027C8.775 89.8331 9.42979 90.4865 10.2375 90.4865C11.0452 90.4865 11.7 89.8331 11.7 89.027C11.7 88.221 11.0452 87.5676 10.2375 87.5676C9.42979 87.5676 8.775 88.221 8.775 89.027Z" fill="url(#paint166_linear_70_961)"/>
<path d="M8.775 97.7838C8.775 98.5898 9.42979 99.2432 10.2375 99.2432C11.0452 99.2432 11.7 98.5898 11.7 97.7838C11.7 96.9777 11.0452 96.3243 10.2375 96.3243C9.42979 96.3243 8.775 96.9777 8.775 97.7838Z" fill="url(#paint167_linear_70_961)"/>
<path d="M8.775 106.541C8.775 107.347 9.42979 108 10.2375 108C11.0452 108 11.7 107.347 11.7 106.541C11.7 105.735 11.0452 105.081 10.2375 105.081C9.42979 105.081 8.775 105.735 8.775 106.541Z" fill="url(#paint168_linear_70_961)"/>
<path d="M1.90735e-06 1.45946C1.90735e-06 2.2655 0.654785 2.91892 1.4625 2.91892C2.27022 2.91892 2.925 2.2655 2.925 1.45946C2.925 0.653422 2.27022 0 1.4625 0C0.654785 0 1.90735e-06 0.653422 1.90735e-06 1.45946Z" fill="url(#paint169_linear_70_961)"/>
<path d="M1.90735e-06 10.2162C1.90735e-06 11.0223 0.654785 11.6757 1.4625 11.6757C2.27022 11.6757 2.925 11.0223 2.925 10.2162C2.925 9.41018 2.27022 8.75676 1.4625 8.75676C0.654785 8.75676 1.90735e-06 9.41018 1.90735e-06 10.2162Z" fill="url(#paint170_linear_70_961)"/>
<path d="M1.90735e-06 18.973C1.90735e-06 19.779 0.654785 20.4324 1.4625 20.4324C2.27022 20.4324 2.925 19.779 2.925 18.973C2.925 18.1669 2.27022 17.5135 1.4625 17.5135C0.654785 17.5135 1.90735e-06 18.1669 1.90735e-06 18.973Z" fill="url(#paint171_linear_70_961)"/>
<path d="M1.90735e-06 27.7297C1.90735e-06 28.5358 0.654785 29.1892 1.4625 29.1892C2.27022 29.1892 2.925 28.5358 2.925 27.7297C2.925 26.9237 2.27022 26.2703 1.4625 26.2703C0.654785 26.2703 1.90735e-06 26.9237 1.90735e-06 27.7297Z" fill="url(#paint172_linear_70_961)"/>
<path d="M1.90735e-06 36.4865C1.90735e-06 37.2925 0.654785 37.9459 1.4625 37.9459C2.27022 37.9459 2.925 37.2925 2.925 36.4865C2.925 35.6804 2.27022 35.027 1.4625 35.027C0.654785 35.027 1.90735e-06 35.6804 1.90735e-06 36.4865Z" fill="url(#paint173_linear_70_961)"/>
<path d="M1.90735e-06 45.2432C1.90735e-06 46.0493 0.654785 46.7027 1.4625 46.7027C2.27022 46.7027 2.925 46.0493 2.925 45.2432C2.925 44.4372 2.27022 43.7838 1.4625 43.7838C0.654785 43.7838 1.90735e-06 44.4372 1.90735e-06 45.2432Z" fill="url(#paint174_linear_70_961)"/>
<path d="M1.90735e-06 54C1.90735e-06 54.806 0.654785 55.4595 1.4625 55.4595C2.27022 55.4595 2.925 54.806 2.925 54C2.925 53.194 2.27022 52.5405 1.4625 52.5405C0.654785 52.5405 1.90735e-06 53.194 1.90735e-06 54Z" fill="url(#paint175_linear_70_961)"/>
<path d="M1.90735e-06 62.7568C1.90735e-06 63.5628 0.654785 64.2162 1.4625 64.2162C2.27022 64.2162 2.925 63.5628 2.925 62.7568C2.925 61.9507 2.27022 61.2973 1.4625 61.2973C0.654785 61.2973 1.90735e-06 61.9507 1.90735e-06 62.7568Z" fill="url(#paint176_linear_70_961)"/>
<path d="M1.90735e-06 71.5135C1.90735e-06 72.3195 0.654785 72.973 1.4625 72.973C2.27022 72.973 2.925 72.3195 2.925 71.5135C2.925 70.7075 2.27022 70.0541 1.4625 70.0541C0.654785 70.0541 1.90735e-06 70.7075 1.90735e-06 71.5135Z" fill="url(#paint177_linear_70_961)"/>
<path d="M1.90735e-06 80.2703C1.90735e-06 81.0763 0.654785 81.7297 1.4625 81.7297C2.27022 81.7297 2.925 81.0763 2.925 80.2703C2.925 79.4642 2.27022 78.8108 1.4625 78.8108C0.654785 78.8108 1.90735e-06 79.4642 1.90735e-06 80.2703Z" fill="url(#paint178_linear_70_961)"/>
<path d="M1.90735e-06 89.027C1.90735e-06 89.8331 0.654785 90.4865 1.4625 90.4865C2.27022 90.4865 2.925 89.8331 2.925 89.027C2.925 88.221 2.27022 87.5676 1.4625 87.5676C0.654785 87.5676 1.90735e-06 88.221 1.90735e-06 89.027Z" fill="url(#paint179_linear_70_961)"/>
<path d="M1.90735e-06 97.7838C1.90735e-06 98.5898 0.654785 99.2432 1.4625 99.2432C2.27022 99.2432 2.925 98.5898 2.925 97.7838C2.925 96.9777 2.27022 96.3243 1.4625 96.3243C0.654785 96.3243 1.90735e-06 96.9777 1.90735e-06 97.7838Z" fill="url(#paint180_linear_70_961)"/>
<path d="M1.90735e-06 106.541C1.90735e-06 107.347 0.654785 108 1.4625 108C2.27022 108 2.925 107.347 2.925 106.541C2.925 105.735 2.27022 105.081 1.4625 105.081C0.654785 105.081 1.90735e-06 105.735 1.90735e-06 106.541Z" fill="url(#paint181_linear_70_961)"/>
</g>
<defs>
<linearGradient id="paint0_linear_70_961" x1="-14" y1="142" x2="79.5" y2="13" gradientUnits="userSpaceOnUse">
<stop stop-color="#3482C3"/>
<stop offset="1" stop-color="#E0EDFD" stop-opacity="0"/>
</linearGradient>
<linearGradient id="paint1_linear_70_961" x1="-14" y1="142" x2="79.5" y2="13" gradientUnits="userSpaceOnUse">
<stop stop-color="#3482C3"/>
<stop offset="1" stop-color="#E0EDFD" stop-opacity="0"/>
</linearGradient>
<linearGradient id="paint2_linear_70_961" x1="-14" y1="142" x2="79.5" y2="13" gradientUnits="userSpaceOnUse">
<stop stop-color="#3482C3"/>
<stop offset="1" stop-color="#E0EDFD" stop-opacity="0"/>
</linearGradient>
<linearGradient id="paint3_linear_70_961" x1="-14" y1="142" x2="79.5" y2="13" gradientUnits="userSpaceOnUse">
<stop stop-color="#3482C3"/>
<stop offset="1" stop-color="#E0EDFD" stop-opacity="0"/>
</linearGradient>
<linearGradient id="paint4_linear_70_961" x1="-14" y1="142" x2="79.5" y2="13" gradientUnits="userSpaceOnUse">
<stop stop-color="#3482C3"/>
<stop offset="1" stop-color="#E0EDFD" stop-opacity="0"/>
</linearGradient>
<linearGradient id="paint5_linear_70_961" x1="-14" y1="142" x2="79.5" y2="13" gradientUnits="userSpaceOnUse">
<stop stop-color="#3482C3"/>
<stop offset="1" stop-color="#E0EDFD" stop-opacity="0"/>
</linearGradient>
<linearGradient id="paint6_linear_70_961" x1="-14" y1="142" x2="79.5" y2="13" gradientUnits="userSpaceOnUse">
<stop stop-color="#3482C3"/>
<stop offset="1" stop-color="#E0EDFD" stop-opacity="0"/>
</linearGradient>
<linearGradient id="paint7_linear_70_961" x1="-14" y1="142" x2="79.5" y2="13" gradientUnits="userSpaceOnUse">
<stop stop-color="#3482C3"/>
<stop offset="1" stop-color="#E0EDFD" stop-opacity="0"/>
</linearGradient>
<linearGradient id="paint8_linear_70_961" x1="-14" y1="142" x2="79.5" y2="13" gradientUnits="userSpaceOnUse">
<stop stop-color="#3482C3"/>
<stop offset="1" stop-color="#E0EDFD" stop-opacity="0"/>
</linearGradient>
<linearGradient id="paint9_linear_70_961" x1="-14" y1="142" x2="79.5" y2="13" gradientUnits="userSpaceOnUse">
<stop stop-color="#3482C3"/>
<stop offset="1" stop-color="#E0EDFD" stop-opacity="0"/>
</linearGradient>
<linearGradient id="paint10_linear_70_961" x1="-14" y1="142" x2="79.5" y2="13" gradientUnits="userSpaceOnUse">
<stop stop-color="#3482C3"/>
<stop offset="1" stop-color="#E0EDFD" stop-opacity="0"/>
</linearGradient>
<linearGradient id="paint11_linear_70_961" x1="-14" y1="142" x2="79.5" y2="13" gradientUnits="userSpaceOnUse">
<stop stop-color="#3482C3"/>
<stop offset="1" stop-color="#E0EDFD" stop-opacity="0"/>
</linearGradient>
<linearGradient id="paint12_linear_70_961" x1="-14" y1="142" x2="79.5" y2="13" gradientUnits="userSpaceOnUse">
<stop stop-color="#3482C3"/>
<stop offset="1" stop-color="#E0EDFD" stop-opacity="0"/>
</linearGradient>
<linearGradient id="paint13_linear_70_961" x1="-14" y1="142" x2="79.5" y2="13" gradientUnits="userSpaceOnUse">
<stop stop-color="#3482C3"/>
<stop offset="1" stop-color="#E0EDFD" stop-opacity="0"/>
</linearGradient>
<linearGradient id="paint14_linear_70_961" x1="-14" y1="142" x2="79.5" y2="13" gradientUnits="userSpaceOnUse">
<stop stop-color="#3482C3"/>
<stop offset="1" stop-color="#E0EDFD" stop-opacity="0"/>
</linearGradient>
<linearGradient id="paint15_linear_70_961" x1="-14" y1="142" x2="79.5" y2="13" gradientUnits="userSpaceOnUse">
<stop stop-color="#3482C3"/>
<stop offset="1" stop-color="#E0EDFD" stop-opacity="0"/>
</linearGradient>
<linearGradient id="paint16_linear_70_961" x1="-14" y1="142" x2="79.5" y2="13" gradientUnits="userSpaceOnUse">
<stop stop-color="#3482C3"/>
<stop offset="1" stop-color="#E0EDFD" stop-opacity="0"/>
</linearGradient>
<linearGradient id="paint17_linear_70_961" x1="-14" y1="142" x2="79.5" y2="13" gradientUnits="userSpaceOnUse">
<stop stop-color="#3482C3"/>
<stop offset="1" stop-color="#E0EDFD" stop-opacity="0"/>
</linearGradient>
<linearGradient id="paint18_linear_70_961" x1="-14" y1="142" x2="79.5" y2="13" gradientUnits="userSpaceOnUse">
<stop stop-color="#3482C3"/>
<stop offset="1" stop-color="#E0EDFD" stop-opacity="0"/>
</linearGradient>
<linearGradient id="paint19_linear_70_961" x1="-14" y1="142" x2="79.5" y2="13" gradientUnits="userSpaceOnUse">
<stop stop-color="#3482C3"/>
<stop offset="1" stop-color="#E0EDFD" stop-opacity="0"/>
</linearGradient>
<linearGradient id="paint20_linear_70_961" x1="-14" y1="142" x2="79.5" y2="13" gradientUnits="userSpaceOnUse">
<stop stop-color="#3482C3"/>
<stop offset="1" stop-color="#E0EDFD" stop-opacity="0"/>
</linearGradient>
<linearGradient id="paint21_linear_70_961" x1="-14" y1="142" x2="79.5" y2="13" gradientUnits="userSpaceOnUse">
<stop stop-color="#3482C3"/>
<stop offset="1" stop-color="#E0EDFD" stop-opacity="0"/>
</linearGradient>
<linearGradient id="paint22_linear_70_961" x1="-14" y1="142" x2="79.5" y2="13" gradientUnits="userSpaceOnUse">
<stop stop-color="#3482C3"/>
<stop offset="1" stop-color="#E0EDFD" stop-opacity="0"/>
</linearGradient>
<linearGradient id="paint23_linear_70_961" x1="-14" y1="142" x2="79.5" y2="13" gradientUnits="userSpaceOnUse">
<stop stop-color="#3482C3"/>
<stop offset="1" stop-color="#E0EDFD" stop-opacity="0"/>
</linearGradient>
<linearGradient id="paint24_linear_70_961" x1="-14" y1="142" x2="79.5" y2="13" gradientUnits="userSpaceOnUse">
<stop stop-color="#3482C3"/>
<stop offset="1" stop-color="#E0EDFD" stop-opacity="0"/>
</linearGradient>
<linearGradient id="paint25_linear_70_961" x1="-14" y1="142" x2="79.5" y2="13" gradientUnits="userSpaceOnUse">
<stop stop-color="#3482C3"/>
<stop offset="1" stop-color="#E0EDFD" stop-opacity="0"/>
</linearGradient>
<linearGradient id="paint26_linear_70_961" x1="-14" y1="142" x2="79.5" y2="13" gradientUnits="userSpaceOnUse">
<stop stop-color="#3482C3"/>
<stop offset="1" stop-color="#E0EDFD" stop-opacity="0"/>
</linearGradient>
<linearGradient id="paint27_linear_70_961" x1="-14" y1="142" x2="79.5" y2="13" gradientUnits="userSpaceOnUse">
<stop stop-color="#3482C3"/>
<stop offset="1" stop-color="#E0EDFD" stop-opacity="0"/>
</linearGradient>
<linearGradient id="paint28_linear_70_961" x1="-14" y1="142" x2="79.5" y2="13" gradientUnits="userSpaceOnUse">
<stop stop-color="#3482C3"/>
<stop offset="1" stop-color="#E0EDFD" stop-opacity="0"/>
</linearGradient>
<linearGradient id="paint29_linear_70_961" x1="-14" y1="142" x2="79.5" y2="13" gradientUnits="userSpaceOnUse">
<stop stop-color="#3482C3"/>
<stop offset="1" stop-color="#E0EDFD" stop-opacity="0"/>
</linearGradient>
<linearGradient id="paint30_linear_70_961" x1="-14" y1="142" x2="79.5" y2="13" gradientUnits="userSpaceOnUse">
<stop stop-color="#3482C3"/>
<stop offset="1" stop-color="#E0EDFD" stop-opacity="0"/>
</linearGradient>
<linearGradient id="paint31_linear_70_961" x1="-14" y1="142" x2="79.5" y2="13" gradientUnits="userSpaceOnUse">
<stop stop-color="#3482C3"/>
<stop offset="1" stop-color="#E0EDFD" stop-opacity="0"/>
</linearGradient>
<linearGradient id="paint32_linear_70_961" x1="-14" y1="142" x2="79.5" y2="13" gradientUnits="userSpaceOnUse">
<stop stop-color="#3482C3"/>
<stop offset="1" stop-color="#E0EDFD" stop-opacity="0"/>
</linearGradient>
<linearGradient id="paint33_linear_70_961" x1="-14" y1="142" x2="79.5" y2="13" gradientUnits="userSpaceOnUse">
<stop stop-color="#3482C3"/>
<stop offset="1" stop-color="#E0EDFD" stop-opacity="0"/>
</linearGradient>
<linearGradient id="paint34_linear_70_961" x1="-14" y1="142" x2="79.5" y2="13" gradientUnits="userSpaceOnUse">
<stop stop-color="#3482C3"/>
<stop offset="1" stop-color="#E0EDFD" stop-opacity="0"/>
</linearGradient>
<linearGradient id="paint35_linear_70_961" x1="-14" y1="142" x2="79.5" y2="13" gradientUnits="userSpaceOnUse">
<stop stop-color="#3482C3"/>
<stop offset="1" stop-color="#E0EDFD" stop-opacity="0"/>
</linearGradient>
<linearGradient id="paint36_linear_70_961" x1="-14" y1="142" x2="79.5" y2="13" gradientUnits="userSpaceOnUse">
<stop stop-color="#3482C3"/>
<stop offset="1" stop-color="#E0EDFD" stop-opacity="0"/>
</linearGradient>
<linearGradient id="paint37_linear_70_961" x1="-14" y1="142" x2="79.5" y2="13" gradientUnits="userSpaceOnUse">
<stop stop-color="#3482C3"/>
<stop offset="1" stop-color="#E0EDFD" stop-opacity="0"/>
</linearGradient>
<linearGradient id="paint38_linear_70_961" x1="-14" y1="142" x2="79.5" y2="13" gradientUnits="userSpaceOnUse">
<stop stop-color="#3482C3"/>
<stop offset="1" stop-color="#E0EDFD" stop-opacity="0"/>
</linearGradient>
<linearGradient id="paint39_linear_70_961" x1="-14" y1="142" x2="79.5" y2="13" gradientUnits="userSpaceOnUse">
<stop stop-color="#3482C3"/>
<stop offset="1" stop-color="#E0EDFD" stop-opacity="0"/>
</linearGradient>
<linearGradient id="paint40_linear_70_961" x1="-14" y1="142" x2="79.5" y2="13" gradientUnits="userSpaceOnUse">
<stop stop-color="#3482C3"/>
<stop offset="1" stop-color="#E0EDFD" stop-opacity="0"/>
</linearGradient>
<linearGradient id="paint41_linear_70_961" x1="-14" y1="142" x2="79.5" y2="13" gradientUnits="userSpaceOnUse">
<stop stop-color="#3482C3"/>
<stop offset="1" stop-color="#E0EDFD" stop-opacity="0"/>
</linearGradient>
<linearGradient id="paint42_linear_70_961" x1="-14" y1="142" x2="79.5" y2="13" gradientUnits="userSpaceOnUse">
<stop stop-color="#3482C3"/>
<stop offset="1" stop-color="#E0EDFD" stop-opacity="0"/>
</linearGradient>
<linearGradient id="paint43_linear_70_961" x1="-14" y1="142" x2="79.5" y2="13" gradientUnits="userSpaceOnUse">
<stop stop-color="#3482C3"/>
<stop offset="1" stop-color="#E0EDFD" stop-opacity="0"/>
</linearGradient>
<linearGradient id="paint44_linear_70_961" x1="-14" y1="142" x2="79.5" y2="13" gradientUnits="userSpaceOnUse">
<stop stop-color="#3482C3"/>
<stop offset="1" stop-color="#E0EDFD" stop-opacity="0"/>
</linearGradient>
<linearGradient id="paint45_linear_70_961" x1="-14" y1="142" x2="79.5" y2="13" gradientUnits="userSpaceOnUse">
<stop stop-color="#3482C3"/>
<stop offset="1" stop-color="#E0EDFD" stop-opacity="0"/>
</linearGradient>
<linearGradient id="paint46_linear_70_961" x1="-14" y1="142" x2="79.5" y2="13" gradientUnits="userSpaceOnUse">
<stop stop-color="#3482C3"/>
<stop offset="1" stop-color="#E0EDFD" stop-opacity="0"/>
</linearGradient>
<linearGradient id="paint47_linear_70_961" x1="-14" y1="142" x2="79.5" y2="13" gradientUnits="userSpaceOnUse">
<stop stop-color="#3482C3"/>
<stop offset="1" stop-color="#E0EDFD" stop-opacity="0"/>
</linearGradient>
<linearGradient id="paint48_linear_70_961" x1="-14" y1="142" x2="79.5" y2="13" gradientUnits="userSpaceOnUse">
<stop stop-color="#3482C3"/>
<stop offset="1" stop-color="#E0EDFD" stop-opacity="0"/>
</linearGradient>
<linearGradient id="paint49_linear_70_961" x1="-14" y1="142" x2="79.5" y2="13" gradientUnits="userSpaceOnUse">
<stop stop-color="#3482C3"/>
<stop offset="1" stop-color="#E0EDFD" stop-opacity="0"/>
</linearGradient>
<linearGradient id="paint50_linear_70_961" x1="-14" y1="142" x2="79.5" y2="13" gradientUnits="userSpaceOnUse">
<stop stop-color="#3482C3"/>
<stop offset="1" stop-color="#E0EDFD" stop-opacity="0"/>
</linearGradient>
<linearGradient id="paint51_linear_70_961" x1="-14" y1="142" x2="79.5" y2="13" gradientUnits="userSpaceOnUse">
<stop stop-color="#3482C3"/>
<stop offset="1" stop-color="#E0EDFD" stop-opacity="0"/>
</linearGradient>
<linearGradient id="paint52_linear_70_961" x1="-14" y1="142" x2="79.5" y2="13" gradientUnits="userSpaceOnUse">
<stop stop-color="#3482C3"/>
<stop offset="1" stop-color="#E0EDFD" stop-opacity="0"/>
</linearGradient>
<linearGradient id="paint53_linear_70_961" x1="-14" y1="142" x2="79.5" y2="13" gradientUnits="userSpaceOnUse">
<stop stop-color="#3482C3"/>
<stop offset="1" stop-color="#E0EDFD" stop-opacity="0"/>
</linearGradient>
<linearGradient id="paint54_linear_70_961" x1="-14" y1="142" x2="79.5" y2="13" gradientUnits="userSpaceOnUse">
<stop stop-color="#3482C3"/>
<stop offset="1" stop-color="#E0EDFD" stop-opacity="0"/>
</linearGradient>
<linearGradient id="paint55_linear_70_961" x1="-14" y1="142" x2="79.5" y2="13" gradientUnits="userSpaceOnUse">
<stop stop-color="#3482C3"/>
<stop offset="1" stop-color="#E0EDFD" stop-opacity="0"/>
</linearGradient>
<linearGradient id="paint56_linear_70_961" x1="-14" y1="142" x2="79.5" y2="13" gradientUnits="userSpaceOnUse">
<stop stop-color="#3482C3"/>
<stop offset="1" stop-color="#E0EDFD" stop-opacity="0"/>
</linearGradient>
<linearGradient id="paint57_linear_70_961" x1="-14" y1="142" x2="79.5" y2="13" gradientUnits="userSpaceOnUse">
<stop stop-color="#3482C3"/>
<stop offset="1" stop-color="#E0EDFD" stop-opacity="0"/>
</linearGradient>
<linearGradient id="paint58_linear_70_961" x1="-14" y1="142" x2="79.5" y2="13" gradientUnits="userSpaceOnUse">
<stop stop-color="#3482C3"/>
<stop offset="1" stop-color="#E0EDFD" stop-opacity="0"/>
</linearGradient>
<linearGradient id="paint59_linear_70_961" x1="-14" y1="142" x2="79.5" y2="13" gradientUnits="userSpaceOnUse">
<stop stop-color="#3482C3"/>
<stop offset="1" stop-color="#E0EDFD" stop-opacity="0"/>
</linearGradient>
<linearGradient id="paint60_linear_70_961" x1="-14" y1="142" x2="79.5" y2="13" gradientUnits="userSpaceOnUse">
<stop stop-color="#3482C3"/>
<stop offset="1" stop-color="#E0EDFD" stop-opacity="0"/>
</linearGradient>
<linearGradient id="paint61_linear_70_961" x1="-14" y1="142" x2="79.5" y2="13" gradientUnits="userSpaceOnUse">
<stop stop-color="#3482C3"/>
<stop offset="1" stop-color="#E0EDFD" stop-opacity="0"/>
</linearGradient>
<linearGradient id="paint62_linear_70_961" x1="-14" y1="142" x2="79.5" y2="13" gradientUnits="userSpaceOnUse">
<stop stop-color="#3482C3"/>
<stop offset="1" stop-color="#E0EDFD" stop-opacity="0"/>
</linearGradient>
<linearGradient id="paint63_linear_70_961" x1="-14" y1="142" x2="79.5" y2="13" gradientUnits="userSpaceOnUse">
<stop stop-color="#3482C3"/>
<stop offset="1" stop-color="#E0EDFD" stop-opacity="0"/>
</linearGradient>
<linearGradient id="paint64_linear_70_961" x1="-14" y1="142" x2="79.5" y2="13" gradientUnits="userSpaceOnUse">
<stop stop-color="#3482C3"/>
<stop offset="1" stop-color="#E0EDFD" stop-opacity="0"/>
</linearGradient>
<linearGradient id="paint65_linear_70_961" x1="-14" y1="142" x2="79.5" y2="13" gradientUnits="userSpaceOnUse">
<stop stop-color="#3482C3"/>
<stop offset="1" stop-color="#E0EDFD" stop-opacity="0"/>
</linearGradient>
<linearGradient id="paint66_linear_70_961" x1="-14" y1="142" x2="79.5" y2="13" gradientUnits="userSpaceOnUse">
<stop stop-color="#3482C3"/>
<stop offset="1" stop-color="#E0EDFD" stop-opacity="0"/>
</linearGradient>
<linearGradient id="paint67_linear_70_961" x1="-14" y1="142" x2="79.5" y2="13" gradientUnits="userSpaceOnUse">
<stop stop-color="#3482C3"/>
<stop offset="1" stop-color="#E0EDFD" stop-opacity="0"/>
</linearGradient>
<linearGradient id="paint68_linear_70_961" x1="-14" y1="142" x2="79.5" y2="13" gradientUnits="userSpaceOnUse">
<stop stop-color="#3482C3"/>
<stop offset="1" stop-color="#E0EDFD" stop-opacity="0"/>
</linearGradient>
<linearGradient id="paint69_linear_70_961" x1="-14" y1="142" x2="79.5" y2="13" gradientUnits="userSpaceOnUse">
<stop stop-color="#3482C3"/>
<stop offset="1" stop-color="#E0EDFD" stop-opacity="0"/>
</linearGradient>
<linearGradient id="paint70_linear_70_961" x1="-14" y1="142" x2="79.5" y2="13" gradientUnits="userSpaceOnUse">
<stop stop-color="#3482C3"/>
<stop offset="1" stop-color="#E0EDFD" stop-opacity="0"/>
</linearGradient>
<linearGradient id="paint71_linear_70_961" x1="-14" y1="142" x2="79.5" y2="13" gradientUnits="userSpaceOnUse">
<stop stop-color="#3482C3"/>
<stop offset="1" stop-color="#E0EDFD" stop-opacity="0"/>
</linearGradient>
<linearGradient id="paint72_linear_70_961" x1="-14" y1="142" x2="79.5" y2="13" gradientUnits="userSpaceOnUse">
<stop stop-color="#3482C3"/>
<stop offset="1" stop-color="#E0EDFD" stop-opacity="0"/>
</linearGradient>
<linearGradient id="paint73_linear_70_961" x1="-14" y1="142" x2="79.5" y2="13" gradientUnits="userSpaceOnUse">
<stop stop-color="#3482C3"/>
<stop offset="1" stop-color="#E0EDFD" stop-opacity="0"/>
</linearGradient>
<linearGradient id="paint74_linear_70_961" x1="-14" y1="142" x2="79.5" y2="13" gradientUnits="userSpaceOnUse">
<stop stop-color="#3482C3"/>
<stop offset="1" stop-color="#E0EDFD" stop-opacity="0"/>
</linearGradient>
<linearGradient id="paint75_linear_70_961" x1="-14" y1="142" x2="79.5" y2="13" gradientUnits="userSpaceOnUse">
<stop stop-color="#3482C3"/>
<stop offset="1" stop-color="#E0EDFD" stop-opacity="0"/>
</linearGradient>
<linearGradient id="paint76_linear_70_961" x1="-14" y1="142" x2="79.5" y2="13" gradientUnits="userSpaceOnUse">
<stop stop-color="#3482C3"/>
<stop offset="1" stop-color="#E0EDFD" stop-opacity="0"/>
</linearGradient>
<linearGradient id="paint77_linear_70_961" x1="-14" y1="142" x2="79.5" y2="13" gradientUnits="userSpaceOnUse">
<stop stop-color="#3482C3"/>
<stop offset="1" stop-color="#E0EDFD" stop-opacity="0"/>
</linearGradient>
<linearGradient id="paint78_linear_70_961" x1="-14" y1="142" x2="79.5" y2="13" gradientUnits="userSpaceOnUse">
<stop stop-color="#3482C3"/>
<stop offset="1" stop-color="#E0EDFD" stop-opacity="0"/>
</linearGradient>
<linearGradient id="paint79_linear_70_961" x1="-14" y1="142" x2="79.5" y2="13" gradientUnits="userSpaceOnUse">
<stop stop-color="#3482C3"/>
<stop offset="1" stop-color="#E0EDFD" stop-opacity="0"/>
</linearGradient>
<linearGradient id="paint80_linear_70_961" x1="-14" y1="142" x2="79.5" y2="13" gradientUnits="userSpaceOnUse">
<stop stop-color="#3482C3"/>
<stop offset="1" stop-color="#E0EDFD" stop-opacity="0"/>
</linearGradient>
<linearGradient id="paint81_linear_70_961" x1="-14" y1="142" x2="79.5" y2="13" gradientUnits="userSpaceOnUse">
<stop stop-color="#3482C3"/>
<stop offset="1" stop-color="#E0EDFD" stop-opacity="0"/>
</linearGradient>
<linearGradient id="paint82_linear_70_961" x1="-14" y1="142" x2="79.5" y2="13" gradientUnits="userSpaceOnUse">
<stop stop-color="#3482C3"/>
<stop offset="1" stop-color="#E0EDFD" stop-opacity="0"/>
</linearGradient>
<linearGradient id="paint83_linear_70_961" x1="-14" y1="142" x2="79.5" y2="13" gradientUnits="userSpaceOnUse">
<stop stop-color="#3482C3"/>
<stop offset="1" stop-color="#E0EDFD" stop-opacity="0"/>
</linearGradient>
<linearGradient id="paint84_linear_70_961" x1="-14" y1="142" x2="79.5" y2="13" gradientUnits="userSpaceOnUse">
<stop stop-color="#3482C3"/>
<stop offset="1" stop-color="#E0EDFD" stop-opacity="0"/>
</linearGradient>
<linearGradient id="paint85_linear_70_961" x1="-14" y1="142" x2="79.5" y2="13" gradientUnits="userSpaceOnUse">
<stop stop-color="#3482C3"/>
<stop offset="1" stop-color="#E0EDFD" stop-opacity="0"/>
</linearGradient>
<linearGradient id="paint86_linear_70_961" x1="-14" y1="142" x2="79.5" y2="13" gradientUnits="userSpaceOnUse">
<stop stop-color="#3482C3"/>
<stop offset="1" stop-color="#E0EDFD" stop-opacity="0"/>
</linearGradient>
<linearGradient id="paint87_linear_70_961" x1="-14" y1="142" x2="79.5" y2="13" gradientUnits="userSpaceOnUse">
<stop stop-color="#3482C3"/>
<stop offset="1" stop-color="#E0EDFD" stop-opacity="0"/>
</linearGradient>
<linearGradient id="paint88_linear_70_961" x1="-14" y1="142" x2="79.5" y2="13" gradientUnits="userSpaceOnUse">
<stop stop-color="#3482C3"/>
<stop offset="1" stop-color="#E0EDFD" stop-opacity="0"/>
</linearGradient>
<linearGradient id="paint89_linear_70_961" x1="-14" y1="142" x2="79.5" y2="13" gradientUnits="userSpaceOnUse">
<stop stop-color="#3482C3"/>
<stop offset="1" stop-color="#E0EDFD" stop-opacity="0"/>
</linearGradient>
<linearGradient id="paint90_linear_70_961" x1="-14" y1="142" x2="79.5" y2="13" gradientUnits="userSpaceOnUse">
<stop stop-color="#3482C3"/>
<stop offset="1" stop-color="#E0EDFD" stop-opacity="0"/>
</linearGradient>
<linearGradient id="paint91_linear_70_961" x1="-14" y1="142" x2="79.5" y2="13" gradientUnits="userSpaceOnUse">
<stop stop-color="#3482C3"/>
<stop offset="1" stop-color="#E0EDFD" stop-opacity="0"/>
</linearGradient>
<linearGradient id="paint92_linear_70_961" x1="-14" y1="142" x2="79.5" y2="13" gradientUnits="userSpaceOnUse">
<stop stop-color="#3482C3"/>
<stop offset="1" stop-color="#E0EDFD" stop-opacity="0"/>
</linearGradient>
<linearGradient id="paint93_linear_70_961" x1="-14" y1="142" x2="79.5" y2="13" gradientUnits="userSpaceOnUse">
<stop stop-color="#3482C3"/>
<stop offset="1" stop-color="#E0EDFD" stop-opacity="0"/>
</linearGradient>
<linearGradient id="paint94_linear_70_961" x1="-14" y1="142" x2="79.5" y2="13" gradientUnits="userSpaceOnUse">
<stop stop-color="#3482C3"/>
<stop offset="1" stop-color="#E0EDFD" stop-opacity="0"/>
</linearGradient>
<linearGradient id="paint95_linear_70_961" x1="-14" y1="142" x2="79.5" y2="13" gradientUnits="userSpaceOnUse">
<stop stop-color="#3482C3"/>
<stop offset="1" stop-color="#E0EDFD" stop-opacity="0"/>
</linearGradient>
<linearGradient id="paint96_linear_70_961" x1="-14" y1="142" x2="79.5" y2="13" gradientUnits="userSpaceOnUse">
<stop stop-color="#3482C3"/>
<stop offset="1" stop-color="#E0EDFD" stop-opacity="0"/>
</linearGradient>
<linearGradient id="paint97_linear_70_961" x1="-14" y1="142" x2="79.5" y2="13" gradientUnits="userSpaceOnUse">
<stop stop-color="#3482C3"/>
<stop offset="1" stop-color="#E0EDFD" stop-opacity="0"/>
</linearGradient>
<linearGradient id="paint98_linear_70_961" x1="-14" y1="142" x2="79.5" y2="13" gradientUnits="userSpaceOnUse">
<stop stop-color="#3482C3"/>
<stop offset="1" stop-color="#E0EDFD" stop-opacity="0"/>
</linearGradient>
<linearGradient id="paint99_linear_70_961" x1="-14" y1="142" x2="79.5" y2="13" gradientUnits="userSpaceOnUse">
<stop stop-color="#3482C3"/>
<stop offset="1" stop-color="#E0EDFD" stop-opacity="0"/>
</linearGradient>
<linearGradient id="paint100_linear_70_961" x1="-14" y1="142" x2="79.5" y2="13" gradientUnits="userSpaceOnUse">
<stop stop-color="#3482C3"/>
<stop offset="1" stop-color="#E0EDFD" stop-opacity="0"/>
</linearGradient>
<linearGradient id="paint101_linear_70_961" x1="-14" y1="142" x2="79.5" y2="13" gradientUnits="userSpaceOnUse">
<stop stop-color="#3482C3"/>
<stop offset="1" stop-color="#E0EDFD" stop-opacity="0"/>
</linearGradient>
<linearGradient id="paint102_linear_70_961" x1="-14" y1="142" x2="79.5" y2="13" gradientUnits="userSpaceOnUse">
<stop stop-color="#3482C3"/>
<stop offset="1" stop-color="#E0EDFD" stop-opacity="0"/>
</linearGradient>
<linearGradient id="paint103_linear_70_961" x1="-14" y1="142" x2="79.5" y2="13" gradientUnits="userSpaceOnUse">
<stop stop-color="#3482C3"/>
<stop offset="1" stop-color="#E0EDFD" stop-opacity="0"/>
</linearGradient>
<linearGradient id="paint104_linear_70_961" x1="-14" y1="142" x2="79.5" y2="13" gradientUnits="userSpaceOnUse">
<stop stop-color="#3482C3"/>
<stop offset="1" stop-color="#E0EDFD" stop-opacity="0"/>
</linearGradient>
<linearGradient id="paint105_linear_70_961" x1="-14" y1="142" x2="79.5" y2="13" gradientUnits="userSpaceOnUse">
<stop stop-color="#3482C3"/>
<stop offset="1" stop-color="#E0EDFD" stop-opacity="0"/>
</linearGradient>
<linearGradient id="paint106_linear_70_961" x1="-14" y1="142" x2="79.5" y2="13" gradientUnits="userSpaceOnUse">
<stop stop-color="#3482C3"/>
<stop offset="1" stop-color="#E0EDFD" stop-opacity="0"/>
</linearGradient>
<linearGradient id="paint107_linear_70_961" x1="-14" y1="142" x2="79.5" y2="13" gradientUnits="userSpaceOnUse">
<stop stop-color="#3482C3"/>
<stop offset="1" stop-color="#E0EDFD" stop-opacity="0"/>
</linearGradient>
<linearGradient id="paint108_linear_70_961" x1="-14" y1="142" x2="79.5" y2="13" gradientUnits="userSpaceOnUse">
<stop stop-color="#3482C3"/>
<stop offset="1" stop-color="#E0EDFD" stop-opacity="0"/>
</linearGradient>
<linearGradient id="paint109_linear_70_961" x1="-14" y1="142" x2="79.5" y2="13" gradientUnits="userSpaceOnUse">
<stop stop-color="#3482C3"/>
<stop offset="1" stop-color="#E0EDFD" stop-opacity="0"/>
</linearGradient>
<linearGradient id="paint110_linear_70_961" x1="-14" y1="142" x2="79.5" y2="13" gradientUnits="userSpaceOnUse">
<stop stop-color="#3482C3"/>
<stop offset="1" stop-color="#E0EDFD" stop-opacity="0"/>
</linearGradient>
<linearGradient id="paint111_linear_70_961" x1="-14" y1="142" x2="79.5" y2="13" gradientUnits="userSpaceOnUse">
<stop stop-color="#3482C3"/>
<stop offset="1" stop-color="#E0EDFD" stop-opacity="0"/>
</linearGradient>
<linearGradient id="paint112_linear_70_961" x1="-14" y1="142" x2="79.5" y2="13" gradientUnits="userSpaceOnUse">
<stop stop-color="#3482C3"/>
<stop offset="1" stop-color="#E0EDFD" stop-opacity="0"/>
</linearGradient>
<linearGradient id="paint113_linear_70_961" x1="-14" y1="142" x2="79.5" y2="13" gradientUnits="userSpaceOnUse">
<stop stop-color="#3482C3"/>
<stop offset="1" stop-color="#E0EDFD" stop-opacity="0"/>
</linearGradient>
<linearGradient id="paint114_linear_70_961" x1="-14" y1="142" x2="79.5" y2="13" gradientUnits="userSpaceOnUse">
<stop stop-color="#3482C3"/>
<stop offset="1" stop-color="#E0EDFD" stop-opacity="0"/>
</linearGradient>
<linearGradient id="paint115_linear_70_961" x1="-14" y1="142" x2="79.5" y2="13" gradientUnits="userSpaceOnUse">
<stop stop-color="#3482C3"/>
<stop offset="1" stop-color="#E0EDFD" stop-opacity="0"/>
</linearGradient>
<linearGradient id="paint116_linear_70_961" x1="-14" y1="142" x2="79.5" y2="13" gradientUnits="userSpaceOnUse">
<stop stop-color="#3482C3"/>
<stop offset="1" stop-color="#E0EDFD" stop-opacity="0"/>
</linearGradient>
<linearGradient id="paint117_linear_70_961" x1="-14" y1="142" x2="79.5" y2="13" gradientUnits="userSpaceOnUse">
<stop stop-color="#3482C3"/>
<stop offset="1" stop-color="#E0EDFD" stop-opacity="0"/>
</linearGradient>
<linearGradient id="paint118_linear_70_961" x1="-14" y1="142" x2="79.5" y2="13" gradientUnits="userSpaceOnUse">
<stop stop-color="#3482C3"/>
<stop offset="1" stop-color="#E0EDFD" stop-opacity="0"/>
</linearGradient>
<linearGradient id="paint119_linear_70_961" x1="-14" y1="142" x2="79.5" y2="13" gradientUnits="userSpaceOnUse">
<stop stop-color="#3482C3"/>
<stop offset="1" stop-color="#E0EDFD" stop-opacity="0"/>
</linearGradient>
<linearGradient id="paint120_linear_70_961" x1="-14" y1="142" x2="79.5" y2="13" gradientUnits="userSpaceOnUse">
<stop stop-color="#3482C3"/>
<stop offset="1" stop-color="#E0EDFD" stop-opacity="0"/>
</linearGradient>
<linearGradient id="paint121_linear_70_961" x1="-14" y1="142" x2="79.5" y2="13" gradientUnits="userSpaceOnUse">
<stop stop-color="#3482C3"/>
<stop offset="1" stop-color="#E0EDFD" stop-opacity="0"/>
</linearGradient>
<linearGradient id="paint122_linear_70_961" x1="-14" y1="142" x2="79.5" y2="13" gradientUnits="userSpaceOnUse">
<stop stop-color="#3482C3"/>
<stop offset="1" stop-color="#E0EDFD" stop-opacity="0"/>
</linearGradient>
<linearGradient id="paint123_linear_70_961" x1="-14" y1="142" x2="79.5" y2="13" gradientUnits="userSpaceOnUse">
<stop stop-color="#3482C3"/>
<stop offset="1" stop-color="#E0EDFD" stop-opacity="0"/>
</linearGradient>
<linearGradient id="paint124_linear_70_961" x1="-14" y1="142" x2="79.5" y2="13" gradientUnits="userSpaceOnUse">
<stop stop-color="#3482C3"/>
<stop offset="1" stop-color="#E0EDFD" stop-opacity="0"/>
</linearGradient>
<linearGradient id="paint125_linear_70_961" x1="-14" y1="142" x2="79.5" y2="13" gradientUnits="userSpaceOnUse">
<stop stop-color="#3482C3"/>
<stop offset="1" stop-color="#E0EDFD" stop-opacity="0"/>
</linearGradient>
<linearGradient id="paint126_linear_70_961" x1="-14" y1="142" x2="79.5" y2="13" gradientUnits="userSpaceOnUse">
<stop stop-color="#3482C3"/>
<stop offset="1" stop-color="#E0EDFD" stop-opacity="0"/>
</linearGradient>
<linearGradient id="paint127_linear_70_961" x1="-14" y1="142" x2="79.5" y2="13" gradientUnits="userSpaceOnUse">
<stop stop-color="#3482C3"/>
<stop offset="1" stop-color="#E0EDFD" stop-opacity="0"/>
</linearGradient>
<linearGradient id="paint128_linear_70_961" x1="-14" y1="142" x2="79.5" y2="13" gradientUnits="userSpaceOnUse">
<stop stop-color="#3482C3"/>
<stop offset="1" stop-color="#E0EDFD" stop-opacity="0"/>
</linearGradient>
<linearGradient id="paint129_linear_70_961" x1="-14" y1="142" x2="79.5" y2="13" gradientUnits="userSpaceOnUse">
<stop stop-color="#3482C3"/>
<stop offset="1" stop-color="#E0EDFD" stop-opacity="0"/>
</linearGradient>
<linearGradient id="paint130_linear_70_961" x1="-14" y1="142" x2="79.5" y2="13" gradientUnits="userSpaceOnUse">
<stop stop-color="#3482C3"/>
<stop offset="1" stop-color="#E0EDFD" stop-opacity="0"/>
</linearGradient>
<linearGradient id="paint131_linear_70_961" x1="-14" y1="142" x2="79.5" y2="13" gradientUnits="userSpaceOnUse">
<stop stop-color="#3482C3"/>
<stop offset="1" stop-color="#E0EDFD" stop-opacity="0"/>
</linearGradient>
<linearGradient id="paint132_linear_70_961" x1="-14" y1="142" x2="79.5" y2="13" gradientUnits="userSpaceOnUse">
<stop stop-color="#3482C3"/>
<stop offset="1" stop-color="#E0EDFD" stop-opacity="0"/>
</linearGradient>
<linearGradient id="paint133_linear_70_961" x1="-14" y1="142" x2="79.5" y2="13" gradientUnits="userSpaceOnUse">
<stop stop-color="#3482C3"/>
<stop offset="1" stop-color="#E0EDFD" stop-opacity="0"/>
</linearGradient>
<linearGradient id="paint134_linear_70_961" x1="-14" y1="142" x2="79.5" y2="13" gradientUnits="userSpaceOnUse">
<stop stop-color="#3482C3"/>
<stop offset="1" stop-color="#E0EDFD" stop-opacity="0"/>
</linearGradient>
<linearGradient id="paint135_linear_70_961" x1="-14" y1="142" x2="79.5" y2="13" gradientUnits="userSpaceOnUse">
<stop stop-color="#3482C3"/>
<stop offset="1" stop-color="#E0EDFD" stop-opacity="0"/>
</linearGradient>
<linearGradient id="paint136_linear_70_961" x1="-14" y1="142" x2="79.5" y2="13" gradientUnits="userSpaceOnUse">
<stop stop-color="#3482C3"/>
<stop offset="1" stop-color="#E0EDFD" stop-opacity="0"/>
</linearGradient>
<linearGradient id="paint137_linear_70_961" x1="-14" y1="142" x2="79.5" y2="13" gradientUnits="userSpaceOnUse">
<stop stop-color="#3482C3"/>
<stop offset="1" stop-color="#E0EDFD" stop-opacity="0"/>
</linearGradient>
<linearGradient id="paint138_linear_70_961" x1="-14" y1="142" x2="79.5" y2="13" gradientUnits="userSpaceOnUse">
<stop stop-color="#3482C3"/>
<stop offset="1" stop-color="#E0EDFD" stop-opacity="0"/>
</linearGradient>
<linearGradient id="paint139_linear_70_961" x1="-14" y1="142" x2="79.5" y2="13" gradientUnits="userSpaceOnUse">
<stop stop-color="#3482C3"/>
<stop offset="1" stop-color="#E0EDFD" stop-opacity="0"/>
</linearGradient>
<linearGradient id="paint140_linear_70_961" x1="-14" y1="142" x2="79.5" y2="13" gradientUnits="userSpaceOnUse">
<stop stop-color="#3482C3"/>
<stop offset="1" stop-color="#E0EDFD" stop-opacity="0"/>
</linearGradient>
<linearGradient id="paint141_linear_70_961" x1="-14" y1="142" x2="79.5" y2="13" gradientUnits="userSpaceOnUse">
<stop stop-color="#3482C3"/>
<stop offset="1" stop-color="#E0EDFD" stop-opacity="0"/>
</linearGradient>
<linearGradient id="paint142_linear_70_961" x1="-14" y1="142" x2="79.5" y2="13" gradientUnits="userSpaceOnUse">
<stop stop-color="#3482C3"/>
<stop offset="1" stop-color="#E0EDFD" stop-opacity="0"/>
</linearGradient>
<linearGradient id="paint143_linear_70_961" x1="-14" y1="142" x2="79.5" y2="13" gradientUnits="userSpaceOnUse">
<stop stop-color="#3482C3"/>
<stop offset="1" stop-color="#E0EDFD" stop-opacity="0"/>
</linearGradient>
<linearGradient id="paint144_linear_70_961" x1="-14" y1="142" x2="79.5" y2="13" gradientUnits="userSpaceOnUse">
<stop stop-color="#3482C3"/>
<stop offset="1" stop-color="#E0EDFD" stop-opacity="0"/>
</linearGradient>
<linearGradient id="paint145_linear_70_961" x1="-14" y1="142" x2="79.5" y2="13" gradientUnits="userSpaceOnUse">
<stop stop-color="#3482C3"/>
<stop offset="1" stop-color="#E0EDFD" stop-opacity="0"/>
</linearGradient>
<linearGradient id="paint146_linear_70_961" x1="-14" y1="142" x2="79.5" y2="13" gradientUnits="userSpaceOnUse">
<stop stop-color="#3482C3"/>
<stop offset="1" stop-color="#E0EDFD" stop-opacity="0"/>
</linearGradient>
<linearGradient id="paint147_linear_70_961" x1="-14" y1="142" x2="79.5" y2="13" gradientUnits="userSpaceOnUse">
<stop stop-color="#3482C3"/>
<stop offset="1" stop-color="#E0EDFD" stop-opacity="0"/>
</linearGradient>
<linearGradient id="paint148_linear_70_961" x1="-14" y1="142" x2="79.5" y2="13" gradientUnits="userSpaceOnUse">
<stop stop-color="#3482C3"/>
<stop offset="1" stop-color="#E0EDFD" stop-opacity="0"/>
</linearGradient>
<linearGradient id="paint149_linear_70_961" x1="-14" y1="142" x2="79.5" y2="13" gradientUnits="userSpaceOnUse">
<stop stop-color="#3482C3"/>
<stop offset="1" stop-color="#E0EDFD" stop-opacity="0"/>
</linearGradient>
<linearGradient id="paint150_linear_70_961" x1="-14" y1="142" x2="79.5" y2="13" gradientUnits="userSpaceOnUse">
<stop stop-color="#3482C3"/>
<stop offset="1" stop-color="#E0EDFD" stop-opacity="0"/>
</linearGradient>
<linearGradient id="paint151_linear_70_961" x1="-14" y1="142" x2="79.5" y2="13" gradientUnits="userSpaceOnUse">
<stop stop-color="#3482C3"/>
<stop offset="1" stop-color="#E0EDFD" stop-opacity="0"/>
</linearGradient>
<linearGradient id="paint152_linear_70_961" x1="-14" y1="142" x2="79.5" y2="13" gradientUnits="userSpaceOnUse">
<stop stop-color="#3482C3"/>
<stop offset="1" stop-color="#E0EDFD" stop-opacity="0"/>
</linearGradient>
<linearGradient id="paint153_linear_70_961" x1="-14" y1="142" x2="79.5" y2="13" gradientUnits="userSpaceOnUse">
<stop stop-color="#3482C3"/>
<stop offset="1" stop-color="#E0EDFD" stop-opacity="0"/>
</linearGradient>
<linearGradient id="paint154_linear_70_961" x1="-14" y1="142" x2="79.5" y2="13" gradientUnits="userSpaceOnUse">
<stop stop-color="#3482C3"/>
<stop offset="1" stop-color="#E0EDFD" stop-opacity="0"/>
</linearGradient>
<linearGradient id="paint155_linear_70_961" x1="-14" y1="142" x2="79.5" y2="13" gradientUnits="userSpaceOnUse">
<stop stop-color="#3482C3"/>
<stop offset="1" stop-color="#E0EDFD" stop-opacity="0"/>
</linearGradient>
<linearGradient id="paint156_linear_70_961" x1="-14" y1="142" x2="79.5" y2="13" gradientUnits="userSpaceOnUse">
<stop stop-color="#3482C3"/>
<stop offset="1" stop-color="#E0EDFD" stop-opacity="0"/>
</linearGradient>
<linearGradient id="paint157_linear_70_961" x1="-14" y1="142" x2="79.5" y2="13" gradientUnits="userSpaceOnUse">
<stop stop-color="#3482C3"/>
<stop offset="1" stop-color="#E0EDFD" stop-opacity="0"/>
</linearGradient>
<linearGradient id="paint158_linear_70_961" x1="-14" y1="142" x2="79.5" y2="13" gradientUnits="userSpaceOnUse">
<stop stop-color="#3482C3"/>
<stop offset="1" stop-color="#E0EDFD" stop-opacity="0"/>
</linearGradient>
<linearGradient id="paint159_linear_70_961" x1="-14" y1="142" x2="79.5" y2="13" gradientUnits="userSpaceOnUse">
<stop stop-color="#3482C3"/>
<stop offset="1" stop-color="#E0EDFD" stop-opacity="0"/>
</linearGradient>
<linearGradient id="paint160_linear_70_961" x1="-14" y1="142" x2="79.5" y2="13" gradientUnits="userSpaceOnUse">
<stop stop-color="#3482C3"/>
<stop offset="1" stop-color="#E0EDFD" stop-opacity="0"/>
</linearGradient>
<linearGradient id="paint161_linear_70_961" x1="-14" y1="142" x2="79.5" y2="13" gradientUnits="userSpaceOnUse">
<stop stop-color="#3482C3"/>
<stop offset="1" stop-color="#E0EDFD" stop-opacity="0"/>
</linearGradient>
<linearGradient id="paint162_linear_70_961" x1="-14" y1="142" x2="79.5" y2="13" gradientUnits="userSpaceOnUse">
<stop stop-color="#3482C3"/>
<stop offset="1" stop-color="#E0EDFD" stop-opacity="0"/>
</linearGradient>
<linearGradient id="paint163_linear_70_961" x1="-14" y1="142" x2="79.5" y2="13" gradientUnits="userSpaceOnUse">
<stop stop-color="#3482C3"/>
<stop offset="1" stop-color="#E0EDFD" stop-opacity="0"/>
</linearGradient>
<linearGradient id="paint164_linear_70_961" x1="-14" y1="142" x2="79.5" y2="13" gradientUnits="userSpaceOnUse">
<stop stop-color="#3482C3"/>
<stop offset="1" stop-color="#E0EDFD" stop-opacity="0"/>
</linearGradient>
<linearGradient id="paint165_linear_70_961" x1="-14" y1="142" x2="79.5" y2="13" gradientUnits="userSpaceOnUse">
<stop stop-color="#3482C3"/>
<stop offset="1" stop-color="#E0EDFD" stop-opacity="0"/>
</linearGradient>
<linearGradient id="paint166_linear_70_961" x1="-14" y1="142" x2="79.5" y2="13" gradientUnits="userSpaceOnUse">
<stop stop-color="#3482C3"/>
<stop offset="1" stop-color="#E0EDFD" stop-opacity="0"/>
</linearGradient>
<linearGradient id="paint167_linear_70_961" x1="-14" y1="142" x2="79.5" y2="13" gradientUnits="userSpaceOnUse">
<stop stop-color="#3482C3"/>
<stop offset="1" stop-color="#E0EDFD" stop-opacity="0"/>
</linearGradient>
<linearGradient id="paint168_linear_70_961" x1="-14" y1="142" x2="79.5" y2="13" gradientUnits="userSpaceOnUse">
<stop stop-color="#3482C3"/>
<stop offset="1" stop-color="#E0EDFD" stop-opacity="0"/>
</linearGradient>
<linearGradient id="paint169_linear_70_961" x1="-14" y1="142" x2="79.5" y2="13" gradientUnits="userSpaceOnUse">
<stop stop-color="#3482C3"/>
<stop offset="1" stop-color="#E0EDFD" stop-opacity="0"/>
</linearGradient>
<linearGradient id="paint170_linear_70_961" x1="-14" y1="142" x2="79.5" y2="13" gradientUnits="userSpaceOnUse">
<stop stop-color="#3482C3"/>
<stop offset="1" stop-color="#E0EDFD" stop-opacity="0"/>
</linearGradient>
<linearGradient id="paint171_linear_70_961" x1="-14" y1="142" x2="79.5" y2="13" gradientUnits="userSpaceOnUse">
<stop stop-color="#3482C3"/>
<stop offset="1" stop-color="#E0EDFD" stop-opacity="0"/>
</linearGradient>
<linearGradient id="paint172_linear_70_961" x1="-14" y1="142" x2="79.5" y2="13" gradientUnits="userSpaceOnUse">
<stop stop-color="#3482C3"/>
<stop offset="1" stop-color="#E0EDFD" stop-opacity="0"/>
</linearGradient>
<linearGradient id="paint173_linear_70_961" x1="-14" y1="142" x2="79.5" y2="13" gradientUnits="userSpaceOnUse">
<stop stop-color="#3482C3"/>
<stop offset="1" stop-color="#E0EDFD" stop-opacity="0"/>
</linearGradient>
<linearGradient id="paint174_linear_70_961" x1="-14" y1="142" x2="79.5" y2="13" gradientUnits="userSpaceOnUse">
<stop stop-color="#3482C3"/>
<stop offset="1" stop-color="#E0EDFD" stop-opacity="0"/>
</linearGradient>
<linearGradient id="paint175_linear_70_961" x1="-14" y1="142" x2="79.5" y2="13" gradientUnits="userSpaceOnUse">
<stop stop-color="#3482C3"/>
<stop offset="1" stop-color="#E0EDFD" stop-opacity="0"/>
</linearGradient>
<linearGradient id="paint176_linear_70_961" x1="-14" y1="142" x2="79.5" y2="13" gradientUnits="userSpaceOnUse">
<stop stop-color="#3482C3"/>
<stop offset="1" stop-color="#E0EDFD" stop-opacity="0"/>
</linearGradient>
<linearGradient id="paint177_linear_70_961" x1="-14" y1="142" x2="79.5" y2="13" gradientUnits="userSpaceOnUse">
<stop stop-color="#3482C3"/>
<stop offset="1" stop-color="#E0EDFD" stop-opacity="0"/>
</linearGradient>
<linearGradient id="paint178_linear_70_961" x1="-14" y1="142" x2="79.5" y2="13" gradientUnits="userSpaceOnUse">
<stop stop-color="#3482C3"/>
<stop offset="1" stop-color="#E0EDFD" stop-opacity="0"/>
</linearGradient>
<linearGradient id="paint179_linear_70_961" x1="-14" y1="142" x2="79.5" y2="13" gradientUnits="userSpaceOnUse">
<stop stop-color="#3482C3"/>
<stop offset="1" stop-color="#E0EDFD" stop-opacity="0"/>
</linearGradient>
<linearGradient id="paint180_linear_70_961" x1="-14" y1="142" x2="79.5" y2="13" gradientUnits="userSpaceOnUse">
<stop stop-color="#3482C3"/>
<stop offset="1" stop-color="#E0EDFD" stop-opacity="0"/>
</linearGradient>
<linearGradient id="paint181_linear_70_961" x1="-14" y1="142" x2="79.5" y2="13" gradientUnits="userSpaceOnUse">
<stop stop-color="#3482C3"/>
<stop offset="1" stop-color="#E0EDFD" stop-opacity="0"/>
</linearGradient>
</defs>
</svg>
