<svg width="100" height="82" viewBox="0 0 100 82" fill="none" xmlns="http://www.w3.org/2000/svg">
<path d="M62.6902 78.83C55.8936 79.01 47.7555 78.83 42.032 78.74C36.3085 78.92 28.1704 79.01 21.3738 78.83C28.081 74.96 30.4062 67.85 30.7639 63.17H53.2107C53.7473 67.76 56.0724 74.96 62.6902 78.83Z" fill="url(#paint0_linear_6_5398)"/>
<path d="M22.0898 80.0003H61.9753C62.5119 80.0003 63.0485 79.5503 63.0485 78.9203C63.0485 78.3803 62.6013 77.8403 61.9753 77.8403H22.0898C21.5532 77.8403 21.0166 78.2903 21.0166 78.9203C21.106 79.5503 21.5532 80.0003 22.0898 80.0003Z" fill="#EBF0F6"/>
<path d="M84.5109 3.50022V62.3602C84.5109 63.8002 83.3483 64.8802 82.0069 64.8802H2.50403C1.16258 64.8802 0 63.7102 0 62.3602V3.50022C0 2.15022 1.16258 0.980225 2.50403 0.980225H82.0069C83.4378 0.980225 84.5109 2.15022 84.5109 3.50022Z" fill="#E3EAF2"/>
<path d="M84.5109 3.50022V54.1702H0V3.50022C0 2.15022 1.16258 0.980225 2.50403 0.980225H82.0069C83.4378 0.980225 84.5109 2.15022 84.5109 3.50022Z" fill="#4D6BB8"/>
<path d="M81.292 4.22009H2.86224V51.3801H81.292V4.22009Z" fill="white"/>
<path d="M42.1222 61.91C43.2582 61.91 44.1791 60.9833 44.1791 59.84C44.1791 58.6968 43.2582 57.77 42.1222 57.77C40.9863 57.77 40.0654 58.6968 40.0654 59.84C40.0654 60.9833 40.9863 61.91 42.1222 61.91Z" fill="#F3F5F9"/>
<path d="M76.7313 12.86V18.89C76.7313 19.79 76.0159 20.51 75.1216 20.51H8.94372C8.04942 20.51 7.33398 19.79 7.33398 18.89V12.86C7.33398 11.96 8.04942 11.24 8.94372 11.24H75.1216C76.0159 11.24 76.7313 11.96 76.7313 12.86Z" fill="#E3EAF2"/>
<path d="M16.6342 11.24V20.6H8.85387C7.95958 20.6 7.24414 19.88 7.24414 18.98V12.95C7.24414 12.05 7.95958 11.33 8.85387 11.33H16.6342V11.24Z" fill="#CED7E2"/>
<path d="M76.7313 25.4601V31.4901C76.7313 32.3901 76.0159 33.1101 75.1216 33.1101H8.94372C8.04942 33.1101 7.33398 32.3901 7.33398 31.4901V25.4601C7.33398 24.5601 8.04942 23.8401 8.94372 23.8401H75.1216C76.0159 23.8401 76.7313 24.5601 76.7313 25.4601Z" fill="#E3EAF2"/>
<path d="M16.6342 23.8401V33.2001H8.85387C7.95958 33.2001 7.24414 32.4801 7.24414 31.5801V25.5501C7.24414 24.6501 7.95958 23.9301 8.85387 23.9301H16.6342V23.8401Z" fill="#FFA24B"/>
<path d="M11.5372 30C11.405 30 11.2727 29.9337 11.2066 29.8674L10.1488 28.8066C9.95041 28.6077 9.95041 28.2762 10.1488 28.0773C10.3471 27.8785 10.6777 27.8785 10.876 28.0773L11.5372 28.7403L13.124 27.1492C13.3223 26.9503 13.6529 26.9503 13.8512 27.1492C14.0496 27.3481 14.0496 27.6796 13.8512 27.8785L11.8678 29.8011C11.8017 29.9337 11.6694 30 11.5372 30Z" fill="white"/>
<path d="M76.7313 38.0599V44.0899C76.7313 44.9899 76.0159 45.7099 75.1216 45.7099H8.94372C8.04942 45.7099 7.33398 44.9899 7.33398 44.0899V38.0599C7.33398 37.1599 8.04942 36.4399 8.94372 36.4399H75.1216C76.0159 36.4399 76.7313 37.1599 76.7313 38.0599Z" fill="#E3EAF2"/>
<path d="M16.6342 36.4399V45.7999H8.85387C7.95958 45.7999 7.24414 45.0799 7.24414 44.1799V38.1499C7.24414 37.2499 7.95958 36.5299 8.85387 36.5299H16.6342V36.4399Z" fill="#CED7E2"/>
<path d="M76.7309 50.66V51.38H7.24414V50.66C7.24414 49.76 7.95958 49.04 8.85387 49.04H75.0317C76.0155 49.04 76.7309 49.76 76.7309 50.66Z" fill="#E3EAF2"/>
<path d="M16.6342 49.04V51.38H7.24414V50.66C7.24414 49.76 7.95958 49.04 8.85387 49.04H16.6342Z" fill="#CED7E2"/>
<path d="M6.16969 7.82002C6.66359 7.82002 7.06398 7.41708 7.06398 6.92002C7.06398 6.42296 6.66359 6.02002 6.16969 6.02002C5.67578 6.02002 5.27539 6.42296 5.27539 6.92002C5.27539 7.41708 5.67578 7.82002 6.16969 7.82002Z" fill="#E3EAF2"/>
<path d="M9.03199 7.82002C9.5259 7.82002 9.92629 7.41708 9.92629 6.92002C9.92629 6.42296 9.5259 6.02002 9.03199 6.02002C8.53809 6.02002 8.1377 6.42296 8.1377 6.92002C8.1377 7.41708 8.53809 7.82002 9.03199 7.82002Z" fill="#E3EAF2"/>
<path d="M11.8933 7.82002C12.3872 7.82002 12.7876 7.41708 12.7876 6.92002C12.7876 6.42296 12.3872 6.02002 11.8933 6.02002C11.3994 6.02002 10.999 6.42296 10.999 6.92002C10.999 7.41708 11.3994 7.82002 11.8933 7.82002Z" fill="#E3EAF2"/>
<g filter="url(#filter0_d_6_5398)">
<path d="M96.6553 57.0715C96.5769 57.307 96.5769 57.6211 96.4985 57.8566C96.2632 58.7202 96.0281 59.5053 95.636 60.2118C93.8325 64.2158 90.3822 67.199 86.2262 68.3766C86.1823 68.3913 86.1383 68.406 86.0949 68.4201C85.7725 68.5253 85.4334 68.5798 85.1024 68.6534C83.1282 69.0922 81.0309 69.125 78.9336 68.6906C70.8569 67.0419 65.603 59.0344 67.3281 50.948C68.9749 42.8616 76.9733 37.6013 85.05 39.3285C87.9514 39.9566 90.5389 41.3699 92.5777 43.4111C96.1848 46.944 97.7531 52.1255 96.6553 57.0715Z" fill="#F7691A"/>
</g>
<path d="M78 54L81 57L87 51" stroke="white" stroke-width="2" stroke-linecap="round" stroke-linejoin="round"/>
<defs>
<filter id="filter0_d_6_5398" x="54" y="36" width="46" height="46" filterUnits="userSpaceOnUse" color-interpolation-filters="sRGB">
<feFlood flood-opacity="0" result="BackgroundImageFix"/>
<feColorMatrix in="SourceAlpha" type="matrix" values="0 0 0 0 0 0 0 0 0 0 0 0 0 0 0 0 0 0 127 0" result="hardAlpha"/>
<feOffset dx="-5" dy="5"/>
<feGaussianBlur stdDeviation="4"/>
<feColorMatrix type="matrix" values="0 0 0 0 0.619271 0 0 0 0 0.657369 0 0 0 0 0.725 0 0 0 0.66 0"/>
<feBlend mode="normal" in2="BackgroundImageFix" result="effect1_dropShadow_6_5398"/>
<feBlend mode="normal" in="SourceGraphic" in2="effect1_dropShadow_6_5398" result="shape"/>
</filter>
<linearGradient id="paint0_linear_6_5398" x1="42.0774" y1="78.3876" x2="42.0774" y2="64.349" gradientUnits="userSpaceOnUse">
<stop stop-color="#F5F8FF"/>
<stop offset="0.9913" stop-color="#D8E0EB"/>
</linearGradient>
</defs>
</svg>
