<svg width="108" height="85" viewBox="0 0 108 85" fill="none" xmlns="http://www.w3.org/2000/svg">
<path opacity="0.3" d="M93.0001 42C93.0001 51.5062 89.8058 60.321 84.4533 67.4074C81.518 71.2099 77.9785 74.5803 73.9209 77.1728C67.3598 81.4938 59.5037 84 51.0432 84C27.8202 84 9.00006 65.1605 9.00006 42C9.00006 18.7531 27.8202 0 50.9569 0C59.4173 0 67.2734 2.50617 73.8346 6.74074C77.8921 9.33333 81.4317 12.7037 84.367 16.5062C89.8058 23.679 93.0001 32.4074 93.0001 42Z" fill="#E0EDFD"/>
<path opacity="0.8" d="M90.9189 60.9511C91.4717 60.9942 91.8762 60.5614 91.9122 60.0998C91.9482 59.6383 91.5236 59.1408 91.063 59.1048C90.5103 59.0617 90.1058 59.4945 90.0698 59.9561C90.0338 60.4176 90.3662 60.9079 90.9189 60.9511Z" fill="white"/>
<path opacity="0.5" d="M93.5908 61.1596C94.1435 61.2027 94.548 60.7699 94.584 60.3083C94.6201 59.8468 94.1955 59.3493 93.7349 59.3133C93.1821 59.2702 92.7776 59.703 92.7416 60.1646C92.7056 60.6261 93.0381 61.1164 93.5908 61.1596Z" fill="white"/>
<path d="M58.6332 54.2528C55.4462 58.2764 59.3198 54.9565 43.3952 66.6236C43.3952 66.6236 42.4596 66.7363 41.6305 66.6716C40.7093 66.5998 42.736 66.7579 36.1954 66.2476L22.8633 50.6262L29.2617 45.8316L23.4872 39.0656L25.0176 33.7054L29.0508 33.0914L30.5319 33.1141L35.4572 38.885L41.7202 34.6371L58.6332 54.2528Z" fill="url(#paint0_linear_6_5439)"/>
<path opacity="0.2" d="M88.1057 47.5617C87.7323 51.4594 89.8689 55.0646 93.2151 56.6935C94.6651 57.3994 95.848 58.7937 95.6942 60.3991L94.972 67.9389C94.7778 69.9667 92.9632 71.4671 90.9397 71.2733L74.0155 69.6522C73.9349 69.6444 73.8679 69.5451 73.7873 69.5363C67.0174 68.7911 59.2305 61.2055 58.9341 52.6859C58.9338 52.6778 58.933 52.681 58.9338 52.673C58.9496 52.5075 58.7907 52.4349 58.7583 52.5979C58.7575 52.6024 58.7566 52.6068 58.7558 52.6113C58.7507 52.6406 58.7405 52.6709 58.7247 52.6962C56.3771 56.4595 57.8372 54.7843 49.7223 62.5433C49.5269 62.7301 49.2956 62.899 49.0574 63.0268C45.7958 64.7774 44.1537 65.6077 43.3275 66.0011C42.7918 66.2562 42.1768 66.3661 41.5846 66.4041C41.2894 66.423 40.961 66.4387 40.4431 66.4363C39.3394 66.3306 44.3982 66.8152 7.05472 63.2381C5.03118 63.0443 3.53448 61.2266 3.72872 59.1989L7.47216 20.1185C7.6664 18.0907 9.48094 16.5902 11.5045 16.7841L95.3894 24.8193C97.413 25.0131 98.9097 26.8308 98.7154 28.8585L97.993 36.4004C97.8393 38.0049 96.414 39.1513 94.8595 39.5779C91.3029 40.5541 88.4779 43.6755 88.1057 47.5617Z" fill="#4D6BB8"/>
<path d="M74.5669 69.813C72.5017 67.5349 70.7359 64.4312 70.4504 61.2743C70.3126 59.5107 69.0565 58.0878 67.3114 57.6707C64.1882 56.939 60.8274 54.7189 58.5775 52.4359C58.3977 52.2458 58.0406 51.7732 57.766 51.6732C57.7635 51.7658 57.8914 53.8996 57.8914 53.8996C58.1117 56.0358 59.1386 59.1199 60.5597 61.2882C63.1321 65.3397 67.1247 68.1324 71.3464 69.264C71.8058 69.3689 72.9991 69.6786 73.0915 69.681C73.1838 69.6835 73.9203 69.7958 74.0127 69.7983C74.0127 69.7983 74.1051 69.8007 74.1026 69.8933L74.5644 69.9056L74.5669 69.813Z" fill="#C74E0C"/>
<path opacity="0.15" d="M59.4006 20.6718L59.1975 22.7917C59.171 23.0682 59.3373 23.2702 59.6133 23.2966C59.8892 23.323 60.0908 23.1563 60.1173 22.8798L60.3204 20.7599L59.4006 20.6718ZM59.4279 25.2322C59.1519 25.2057 58.9503 25.3725 58.9238 25.649L58.7207 27.7689C58.6943 28.0454 58.8606 28.2474 59.1365 28.2738C59.4124 28.3002 59.6141 28.1335 59.6405 27.857L59.8436 25.7371C59.9621 25.4694 59.7038 25.2586 59.4279 25.2322ZM58.9511 30.2094C58.6752 30.183 58.4735 30.3497 58.4471 30.6262L58.244 32.7461C58.2175 33.0226 58.3838 33.2246 58.6597 33.251C58.9357 33.2775 59.1373 33.1107 59.1638 32.8342L59.3668 30.7143C59.4765 30.5388 59.227 30.2358 58.9511 30.2094ZM58.4655 35.2788C58.1896 35.2523 57.988 35.4191 57.9615 35.6956L57.7584 37.8155C57.7319 38.092 57.8982 38.294 58.1742 38.3204C58.4501 38.3468 58.6517 38.1801 58.6782 37.9036L58.8813 35.7837C58.9997 35.516 58.7414 35.3052 58.4655 35.2788ZM57.9799 40.3482C57.704 40.3217 57.5024 40.4885 57.4759 40.765L57.2728 42.8849C57.2463 43.1614 57.4126 43.3634 57.6886 43.3898C57.9645 43.4162 58.1661 43.2495 58.1926 42.973L58.3957 40.8531C58.5141 40.5854 58.2559 40.3746 57.9799 40.3482ZM57.5032 45.3254C57.2272 45.299 57.0256 45.4657 56.9991 45.7422L56.7872 47.9543C56.7607 48.2308 56.927 48.4328 57.203 48.4592C57.4789 48.4856 57.6805 48.3189 57.707 48.0424L57.9101 45.9225C58.0285 45.6548 57.7791 45.3518 57.5032 45.3254ZM57.0176 50.3948C56.7416 50.3683 56.54 50.5351 56.5135 50.8116L56.3723 52.2863L56.9293 51.3165L56.7174 53.5286C56.9933 53.555 57.1949 53.3883 57.2214 53.1118L57.4245 50.9919C57.5518 50.632 57.2935 50.4212 57.0176 50.3948Z" fill="white"/>
<path d="M60.0405 50.4617C60.0333 50.554 59.6834 52.6628 59.6834 52.6628C59.3983 53.9408 58.6871 55.9286 57.5153 57.8804C57.5081 57.9727 57.416 57.9655 57.4088 58.0578C57.3023 58.2353 57.1958 58.4127 57.0893 58.5901C56.9827 58.7676 56.8762 58.945 56.6776 59.1153C56.571 59.2927 56.3724 59.4629 56.2659 59.6404C53.0716 63.7562 47.6464 66.7693 41.6298 66.6714C43.6162 64.9689 45.774 62.2581 46.4234 58.6867C46.7445 56.9472 48.1422 55.6631 49.9213 55.4304C53.1038 55.0286 56.6779 53.1713 59.1538 51.1355C59.3524 50.9653 59.551 50.795 59.6576 50.6176C59.849 50.5397 59.9483 50.4545 60.0405 50.4617Z" fill="url(#paint1_linear_6_5439)"/>
<path d="M82.0308 60.815L68.2977 59.8364C68.1134 59.822 67.8226 59.9851 67.7161 60.1625C67.7089 60.2548 67.7089 60.2548 67.7017 60.3471C67.6801 60.6241 67.9349 60.9225 68.2112 60.9441L81.9443 61.9227C82.1286 61.9371 82.4193 61.774 82.5259 61.5966C82.5331 61.5043 82.5331 61.5043 82.5403 61.412C82.5619 61.135 82.3992 60.8437 82.0308 60.815Z" fill="url(#paint2_linear_6_5439)"/>
<path d="M68.3783 57.6137L79.2484 58.4618C79.4327 58.4761 79.6241 58.3982 79.7307 58.2208C79.7379 58.1284 79.7379 58.1284 79.7451 58.0361L79.7595 57.8515C79.7811 57.5746 79.6112 57.3756 79.3349 57.354L68.4647 56.5059C68.2804 56.4915 68.089 56.5695 67.9825 56.7469C67.9753 56.8392 67.9753 56.8392 67.9681 56.9315L67.9537 57.1162C67.9465 57.2085 68.0242 57.4003 68.1091 57.4998C68.2012 57.507 68.2861 57.6065 68.3783 57.6137Z" fill="url(#paint3_linear_6_5439)"/>
<path d="M68.638 54.2904L79.5082 55.1385C79.6924 55.1529 79.8839 55.0749 79.9904 54.8975C79.9976 54.8052 79.9976 54.8052 80.0048 54.7129L80.0192 54.5283C80.0408 54.2513 79.871 54.0523 79.5946 54.0308L68.7245 53.1827C68.5402 53.1683 68.3488 53.2462 68.2422 53.4237C68.235 53.516 68.235 53.516 68.2278 53.6083L68.2134 53.7929C68.2062 53.8852 68.2839 54.077 68.3689 54.1765C68.3617 54.2688 68.5459 54.2832 68.638 54.2904Z" fill="url(#paint4_linear_6_5439)"/>
<path d="M68.8968 50.9673L79.767 51.8154C79.9512 51.8298 80.1426 51.7518 80.2492 51.5744C80.2564 51.4821 80.2564 51.4821 80.2636 51.3898L80.278 51.2052C80.2852 51.1128 80.2075 50.921 80.1225 50.8215C80.0376 50.722 79.9527 50.6225 79.7685 50.6082L68.8983 49.7601C68.714 49.7457 68.5226 49.8236 68.4161 50.0011C68.4089 50.0934 68.4089 50.0934 68.4017 50.1857L68.3873 50.3703C68.3801 50.4626 68.4578 50.6544 68.5427 50.7539C68.6204 50.9457 68.8047 50.9601 68.8968 50.9673Z" fill="url(#paint5_linear_6_5439)"/>
<path d="M69.1566 47.6442L80.0268 48.4923C80.211 48.5066 80.4024 48.4287 80.509 48.2513C80.5162 48.159 80.5162 48.159 80.5234 48.0666L80.5378 47.882C80.5594 47.6051 80.3896 47.4061 80.1132 47.3845L69.243 46.5364C69.0588 46.5221 68.8673 46.6 68.7608 46.7774C68.7536 46.8697 68.7536 46.8697 68.7464 46.962L68.732 47.1467C68.7104 47.4236 68.8802 47.6226 69.1566 47.6442Z" fill="url(#paint6_linear_6_5439)"/>
<path d="M69.4153 44.3208L80.2855 45.1689C80.4697 45.1833 80.6612 45.1054 80.7677 44.9279C80.7749 44.8356 80.7749 44.8356 80.7821 44.7433L80.7965 44.5587C80.8037 44.4664 80.726 44.2745 80.6411 44.175C80.5562 44.0755 80.4713 43.976 80.287 43.9617L69.4168 43.1136C69.2326 43.0992 69.0412 43.1771 68.9346 43.3546C68.9274 43.4469 68.9274 43.4469 68.9202 43.5392L68.9058 43.7238C68.9691 44.1003 69.139 44.2993 69.4153 44.3208Z" fill="url(#paint7_linear_6_5439)"/>
<path d="M69.6678 41.0899L80.538 41.938C80.7222 41.9524 80.9137 41.8745 81.0202 41.697C81.0274 41.6047 81.0274 41.6047 81.0346 41.5124L81.049 41.3278C81.0706 41.0508 80.9008 40.8518 80.6244 40.8303L69.7542 39.9822C69.57 39.9678 69.3786 40.0457 69.272 40.2232C69.2648 40.3155 69.2648 40.3155 69.2576 40.4078L69.2432 40.5924C69.1367 40.7699 69.3915 41.0684 69.6678 41.0899Z" fill="url(#paint8_linear_6_5439)"/>
<path d="M81.1063 58.4211C81.1912 58.5206 81.2761 58.6201 81.4604 58.6345L82.2894 58.6991C82.4737 58.7135 82.6651 58.6356 82.7717 58.4581C82.7789 58.3658 82.7789 58.3658 82.7861 58.2735L82.8005 58.0889C82.8221 57.812 82.6522 57.613 82.3759 57.5914L81.5468 57.5267C81.3626 57.5123 81.1711 57.5903 81.0646 57.7677C81.0574 57.86 81.0574 57.86 81.0502 57.9523L81.0358 58.137C80.9437 58.1298 81.0214 58.3216 81.1063 58.4211Z" fill="url(#paint9_linear_6_5439)"/>
<path d="M81.3651 55.0976C81.45 55.1971 81.5349 55.2966 81.7192 55.311L82.5482 55.3757C82.7325 55.39 82.9239 55.3121 83.0304 55.1347C83.0376 55.0423 83.0376 55.0423 83.0448 54.95L83.0593 54.7654C83.0809 54.4885 82.911 54.2895 82.6347 54.2679L81.8056 54.2032C81.6213 54.1888 81.4299 54.2668 81.3234 54.4442C81.3162 54.5365 81.3162 54.5365 81.309 54.6288L81.2946 54.8135C81.2024 54.8063 81.2802 54.9981 81.3651 55.0976Z" fill="url(#paint10_linear_6_5439)"/>
<path d="M81.6238 51.7744C81.7087 51.8739 81.7936 51.9734 81.9778 51.9878L82.8069 52.0525C82.9912 52.0669 83.1826 51.9889 83.2891 51.8115C83.2963 51.7192 83.2963 51.7192 83.3035 51.6269L83.3179 51.4422C83.3251 51.3499 83.2474 51.1581 83.1625 51.0586C83.0776 50.9591 82.9927 50.8596 82.8084 50.8453L81.9793 50.7806C81.7951 50.7662 81.6037 50.8441 81.4971 51.0216C81.4899 51.1139 81.4899 51.1139 81.4827 51.2062L81.4683 51.3908C81.4611 51.4831 81.5388 51.6749 81.6238 51.7744Z" fill="url(#paint11_linear_6_5439)"/>
<path d="M82.1527 48.5651L82.9818 48.6298C83.166 48.6441 83.3574 48.5662 83.464 48.3888C83.4712 48.2964 83.4712 48.2964 83.4784 48.2041L83.4928 48.0195C83.5144 47.7426 83.3445 47.5436 83.0682 47.522L82.2391 47.4573C82.0549 47.4429 81.8634 47.5209 81.7569 47.6983C81.7497 47.7906 81.7497 47.7906 81.7425 47.8829L81.7281 48.0676C81.7065 48.3445 81.8763 48.5435 82.1527 48.5651Z" fill="url(#paint12_linear_6_5439)"/>
<path d="M82.4114 45.2417L83.2405 45.3064C83.4247 45.3208 83.6162 45.2428 83.7227 45.0654C83.7299 44.9731 83.7299 44.9731 83.7371 44.8808L83.7515 44.6962C83.7587 44.6038 83.681 44.412 83.5961 44.3125C83.5112 44.213 83.4263 44.1135 83.242 44.0992L82.4129 44.0345C82.2287 44.0201 82.0372 44.098 81.9307 44.2755C81.9235 44.3678 81.9235 44.3678 81.9163 44.4601L81.9019 44.6447C81.9652 45.0212 82.1351 45.2202 82.4114 45.2417Z" fill="url(#paint13_linear_6_5439)"/>
<path d="M82.2466 41.4211C82.225 41.698 82.3949 41.897 82.6712 41.9186L83.5003 41.9833C83.6846 41.9976 83.876 41.9197 83.9825 41.7423C83.9897 41.65 83.9897 41.65 83.9969 41.5576L84.0113 41.373C84.0329 41.0961 83.8631 40.8971 83.5867 40.8755L82.7577 40.8108C82.5734 40.7965 82.382 40.8744 82.2755 41.0518C82.2682 41.1441 82.2682 41.1442 82.261 41.2365L82.2466 41.4211Z" fill="url(#paint14_linear_6_5439)"/>
<path d="M69.9267 37.7668L80.7969 38.6149C80.9811 38.6292 81.1726 38.5513 81.2791 38.3739C81.2863 38.2815 81.2863 38.2815 81.2935 38.1892L81.3079 38.0046C81.3151 37.9123 81.2374 37.7205 81.1525 37.621C81.0676 37.5215 80.9827 37.422 80.8905 37.4148L70.0204 36.5667C69.8361 36.5523 69.6447 36.6303 69.5381 36.8077C69.5309 36.9 69.5309 36.9 69.5237 36.9923L69.5093 37.1769C69.4877 37.4539 69.6504 37.7452 69.9267 37.7668Z" fill="url(#paint15_linear_6_5439)"/>
<path d="M70.1864 34.4432L81.0566 35.2913C81.2408 35.3057 81.4322 35.2277 81.5388 35.0503C81.546 34.958 81.546 34.958 81.5532 34.8657L81.5676 34.681C81.5892 34.4041 81.4193 34.2051 81.143 34.1835L70.2728 33.3354C70.0886 33.3211 69.8971 33.399 69.7906 33.5764C69.7834 33.6688 69.7834 33.6688 69.7762 33.7611L69.7618 33.9457C69.6553 34.1231 69.91 34.4216 70.1864 34.4432Z" fill="url(#paint16_linear_6_5439)"/>
<path d="M83.8455 37.5523L83.0164 37.4876C82.8322 37.4732 82.6408 37.5512 82.5342 37.7286C82.527 37.8209 82.527 37.8209 82.5198 37.9132L82.5054 38.0978C82.4838 38.3748 82.6537 38.5738 82.93 38.5953L83.7591 38.66C83.9433 38.6744 84.1348 38.5965 84.2413 38.419C84.2485 38.3267 84.2485 38.3267 84.2557 38.2344L84.2701 38.0498C84.2773 37.9575 84.1996 37.7657 84.1147 37.6662C84.0226 37.659 83.9377 37.5595 83.8455 37.5523Z" fill="url(#paint17_linear_6_5439)"/>
<path d="M84.0125 34.2217L83.1834 34.157C82.9992 34.1427 82.8078 34.2206 82.7012 34.398C82.694 34.4903 82.694 34.4903 82.6868 34.5827L82.6724 34.7673C82.6508 35.0442 82.8207 35.2432 83.097 35.2648L83.9261 35.3295C84.1103 35.3438 84.3018 35.2659 84.4083 35.0885C84.4155 34.9962 84.4155 34.9961 84.4227 34.9038L84.4371 34.7192C84.5436 34.5418 84.2889 34.2433 84.0125 34.2217Z" fill="url(#paint18_linear_6_5439)"/>
<path d="M70.4456 31.1201L84.1787 32.0987C84.3629 32.1131 84.6537 31.95 84.7602 31.7726C84.7674 31.6803 84.7674 31.6803 84.7746 31.588C84.789 31.4034 84.7041 31.3039 84.6192 31.2044C84.5343 31.1049 84.3573 30.9982 84.2651 30.991L70.532 30.0124C70.3478 29.998 70.057 30.1611 69.9505 30.3385C69.9433 30.4308 69.9433 30.4308 69.9361 30.5231C69.9145 30.8001 70.1692 31.0986 70.4456 31.1201Z" fill="url(#paint19_linear_6_5439)"/>
<path d="M26.6098 40.6094C27.8074 40.7029 29.041 40.3347 30.0342 39.4835C30.9281 38.7174 31.5745 37.5604 31.6753 36.2681C31.7689 35.068 31.4019 33.832 30.5528 32.837C29.7957 31.8492 28.6342 31.2942 27.4366 31.2008C26.239 31.1073 25.0055 31.4755 24.0122 32.3267C22.0258 34.0292 21.8025 36.8909 23.5009 38.8809C24.2507 39.961 25.4123 40.516 26.6098 40.6094ZM25.6113 34.4018C26.0086 34.0613 26.5829 33.8275 27.1356 33.8706C27.6883 33.9138 28.2266 34.1415 28.5591 34.6318C29.3234 35.5273 29.2153 36.912 28.3214 37.6781C27.9241 38.0186 27.3498 38.2524 26.7971 38.2093C26.2444 38.1662 25.7061 37.9384 25.3736 37.4481C25.0339 37.0501 24.8008 36.4747 24.844 35.9208C24.8944 35.2746 25.214 34.7423 25.6113 34.4018Z" fill="url(#paint20_linear_6_5439)"/>
<path d="M42.1933 35.6956C42.2293 35.2341 42.0811 34.7581 41.8264 34.4596C41.4867 34.0616 41.1254 33.9406 40.6648 33.9046C40.2042 33.8687 39.7292 34.0174 39.4312 34.2728L23.0502 48.226C22.653 48.5665 22.532 48.9286 22.496 49.3902C22.46 49.8517 22.6082 50.3276 22.863 50.6261C23.2027 51.0241 23.5639 51.1452 24.0245 51.1811C24.4851 51.2171 24.9601 51.0684 25.2581 50.813L41.547 36.8526C41.9371 36.6044 42.1573 36.1572 42.1933 35.6956Z" fill="url(#paint21_linear_6_5439)"/>
<path d="M41.2022 46.0201C40.4379 45.1246 39.2836 44.4773 38.086 44.3839C36.8884 44.2905 35.6549 44.6586 34.6616 45.5098C33.6684 46.3611 33.1214 47.4329 33.0206 48.7253C32.9197 50.0176 33.2939 51.1613 34.1503 52.064C35.0067 52.9667 36.0689 53.6068 37.3586 53.7074C38.6483 53.808 39.7897 53.4327 40.7829 52.5815C41.684 51.723 42.3232 50.6584 42.424 49.366C42.4183 48.2511 41.9592 47.0079 41.2022 46.0201ZM39.0774 50.6838C38.6801 51.0243 38.1058 51.2581 37.553 51.215C37.0003 51.1719 36.462 50.9441 36.1295 50.4538C35.3653 49.5583 35.4733 48.1736 36.3672 47.4075C36.7645 47.067 37.3388 46.8332 37.8915 46.8763C38.4443 46.9194 38.9826 47.1472 39.3151 47.6375C39.6547 48.0355 39.8879 48.6109 39.8447 49.1648C39.7021 49.8038 39.4747 50.3433 39.0774 50.6838Z" fill="url(#paint22_linear_6_5439)"/>
<path opacity="0.8" d="M94.1065 61.877C94.6609 61.877 95.0305 61.414 95.0305 60.9511C95.0305 60.4881 94.5685 60.0251 94.1065 60.0251C93.5521 60.0251 93.1825 60.4881 93.1825 60.9511C93.1825 61.414 93.5521 61.877 94.1065 61.877Z" fill="white"/>
<path opacity="0.5" d="M96.7864 61.877C97.3408 61.877 97.7104 61.414 97.7104 60.9511C97.7104 60.4881 97.2484 60.0251 96.7864 60.0251C96.232 60.0251 95.8624 60.4881 95.8624 60.9511C95.8624 61.414 96.232 61.877 96.7864 61.877Z" fill="white"/>
<g filter="url(#filter0_d_6_5439)">
<path d="M91.0568 48.3333C91.0568 53.2407 94.9376 57.3148 99.8348 57.5V67.963C99.8348 70 98.1716 71.6667 96.1388 71.6667H79.1372C79.0448 71.6667 79.0448 71.5741 79.0448 71.5741C72.2072 71.5741 63.614 64.7222 62.5052 56.2037C62.5052 56.2037 62.5052 55.8333 62.5052 55.7407C62.4128 55.8333 62.3204 56.0185 62.3204 56.2037C60.2876 60.2778 61.6736 58.3333 54.0043 67.2222C47.6287 71.4815 47.4439 71.3889 47.4439 71.3889C46.7047 71.4815 46.4275 71.5741 45.4111 71.6667C44.3023 71.6667 49.3843 71.6667 11.8699 71.6667C9.83709 71.6667 8.17389 70 8.17389 67.963V28.7037C8.17389 26.6667 9.83709 25 11.8699 25H96.1388C98.1716 25 99.8348 26.6667 99.8348 28.7037V39.1667C95.03 39.3519 91.0568 43.4259 91.0568 48.3333Z" fill="#F7691A"/>
</g>
<path opacity="0.2" d="M62.0001 25V27.0631C62.0001 27.3322 62.1962 27.5116 62.4904 27.5116C62.7847 27.5116 62.9808 27.3322 62.9808 27.0631V25H62.0001ZM62.4904 29.3953C62.1962 29.3953 62.0001 29.5748 62.0001 29.8439V31.907C62.0001 32.1761 62.1962 32.3555 62.4904 32.3555C62.7847 32.3555 62.9808 32.1761 62.9808 31.907V29.8439C63.0789 29.5748 62.7847 29.3953 62.4904 29.3953ZM62.4904 34.2392C62.1962 34.2392 62.0001 34.4186 62.0001 34.6877V36.7508C62.0001 37.0199 62.1962 37.1993 62.4904 37.1993C62.7847 37.1993 62.9808 37.0199 62.9808 36.7508V34.6877C63.0789 34.5083 62.7847 34.2392 62.4904 34.2392ZM62.4904 39.1728C62.1962 39.1728 62.0001 39.3522 62.0001 39.6213V41.6844C62.0001 41.9535 62.1962 42.1329 62.4904 42.1329C62.7847 42.1329 62.9808 41.9535 62.9808 41.6844V39.6213C63.0789 39.3522 62.7847 39.1728 62.4904 39.1728ZM62.4904 44.1063C62.1962 44.1063 62.0001 44.2857 62.0001 44.5548V46.6179C62.0001 46.887 62.1962 47.0664 62.4904 47.0664C62.7847 47.0664 62.9808 46.887 62.9808 46.6179V44.5548C63.0789 44.2857 62.7847 44.1063 62.4904 44.1063ZM62.4904 48.9502C62.1962 48.9502 62.0001 49.1296 62.0001 49.3987V51.5515C62.0001 51.8206 62.1962 52 62.4904 52C62.7847 52 62.9808 51.8206 62.9808 51.5515V49.4884C63.0789 49.2193 62.7847 48.9502 62.4904 48.9502Z" fill="white"/>
<path d="M62.5062 53.8213C62.5062 53.9139 62.3214 56.0435 62.3214 56.0435C62.1366 57.3398 61.5822 59.3768 60.5658 61.4139C60.5658 61.5065 60.4734 61.5065 60.4734 61.5991C60.381 61.7843 60.2886 61.9694 60.1962 62.1546C60.1038 62.3398 60.0114 62.525 59.8266 62.7102C59.7342 62.8954 59.5494 63.0806 59.457 63.2657C56.5926 67.6176 51.4182 71.0435 45.4122 71.4139C47.2602 69.562 49.2006 66.6917 49.5702 63.0806C49.755 61.3213 51.0486 59.9324 52.8042 59.562C55.9458 58.9139 59.3646 56.7843 61.6746 54.562C61.8594 54.3768 62.0442 54.1917 62.1366 54.0065C62.3214 53.9139 62.4138 53.8213 62.5062 53.8213Z" fill="url(#paint23_linear_6_5439)"/>
<path d="M72.6047 58.5249H84.4962C84.6977 58.5249 84.8993 58.448 85.0001 58.2941C85.0001 58.2172 85.0001 58.2172 85.0001 58.1403V57.9864C85.0001 57.9095 84.8993 57.7557 84.7985 57.6787C84.6977 57.6018 84.597 57.5249 84.3954 57.5249H72.5039C72.3024 57.5249 72.1008 57.6018 72.0001 57.7557C72.0001 57.8326 72.0001 57.8326 72.0001 57.9095V58.0634C72.0001 58.1403 72.1008 58.2941 72.2016 58.3711C72.3024 58.5249 72.5039 58.5249 72.6047 58.5249Z" fill="white"/>
<path d="M72.6462 55.5402H81.8573C82.0135 55.5402 82.1696 55.4437 82.2476 55.2505C82.2476 55.154 82.2476 55.154 82.2476 55.0574V54.8643C82.2476 54.5746 82.0915 54.3815 81.8573 54.3815H72.6462C72.4901 54.3815 72.334 54.478 72.2559 54.6712C72.2559 54.7677 72.2559 54.7677 72.2559 54.8643V55.0574C72.2559 55.3471 72.412 55.5402 72.6462 55.5402Z" fill="white"/>
<path d="M72.6462 52.0639H81.8573C82.0134 52.0639 82.1695 51.9674 82.2476 51.7742C82.2476 51.6777 82.2476 51.6777 82.2476 51.5811V51.388C82.2476 51.2914 82.1695 51.0983 82.0915 51.0017C82.0134 50.9052 81.9353 50.8086 81.7792 50.8086H72.5681C72.412 50.8086 72.2559 50.9052 72.1778 51.0983C72.1778 51.1949 72.1778 51.1948 72.1778 51.2914V51.4845C72.2559 51.8708 72.412 52.0639 72.6462 52.0639Z" fill="white"/>
<path d="M72.6459 48.6842H81.857C82.0132 48.6842 82.1693 48.5876 82.2473 48.3945C82.2473 48.2979 82.2473 48.2979 82.2473 48.2013V48.0082C82.2473 47.7185 82.0912 47.5254 81.857 47.5254H72.6459C72.4898 47.5254 72.3337 47.622 72.2556 47.8151C72.2556 47.9116 72.2556 47.9116 72.2556 48.0082V48.2013C72.1775 48.3945 72.4117 48.6842 72.6459 48.6842Z" fill="white"/>
<path d="M83.6521 55.4439H84.3546C84.5107 55.4439 84.6669 55.3474 84.7449 55.1542C84.7449 55.0577 84.7449 55.0577 84.7449 54.9611V54.768C84.7449 54.4783 84.5888 54.2852 84.3546 54.2852H83.6521C83.496 54.2852 83.3398 54.3817 83.2618 54.5748C83.2618 54.6714 83.2618 54.6714 83.2618 54.768V54.9611C83.2618 55.2508 83.4179 55.4439 83.6521 55.4439Z" fill="white"/>
<path d="M83.653 51.9674H84.3555C84.5117 51.9674 84.6678 51.8708 84.7458 51.6777C84.7458 51.5811 84.7458 51.5811 84.7458 51.4845V51.2914C84.7458 51.1949 84.6678 51.0017 84.5897 50.9052C84.5117 50.8086 84.4336 50.712 84.2775 50.712H83.5749C83.4188 50.712 83.2627 50.8086 83.1846 51.0017C83.1846 51.0983 83.1846 51.0983 83.1846 51.1949V51.388C83.2627 51.7742 83.4188 51.9674 83.653 51.9674Z" fill="white"/>
<path d="M83.2618 48.0083C83.2618 48.298 83.4179 48.4912 83.6521 48.4912H84.3546C84.5107 48.4912 84.6669 48.3946 84.7449 48.2015C84.7449 48.1049 84.7449 48.1049 84.7449 48.0083V47.8152C84.7449 47.5255 84.5888 47.3324 84.3546 47.3324H83.6521C83.496 47.3324 83.3398 47.429 83.2618 47.6221C83.2618 47.7187 83.2618 47.7187 83.2618 47.8152V48.0083Z" fill="white"/>
<path d="M72.6462 45.208H81.8573C82.0135 45.208 82.1696 45.1114 82.2476 44.9183C82.2476 44.8217 82.2476 44.8217 82.2476 44.7251V44.532C82.2476 44.4355 82.1696 44.2423 82.0915 44.1458C82.0135 44.0492 81.9354 43.9526 81.8573 43.9526H72.6462C72.4901 43.9526 72.334 44.0492 72.2559 44.2423C72.2559 44.3389 72.2559 44.3389 72.2559 44.4355V44.6286C72.2559 44.9183 72.412 45.208 72.6462 45.208Z" fill="white"/>
<path d="M72.6459 41.7315H81.857C82.0132 41.7315 82.1693 41.635 82.2473 41.4418C82.2473 41.3453 82.2473 41.3453 82.2473 41.2487V41.0556C82.2473 40.7659 82.0912 40.5728 81.857 40.5728H72.6459C72.4898 40.5728 72.3337 40.6693 72.2556 40.8624C72.2556 40.959 72.2556 40.959 72.2556 41.0556V41.2487C72.1775 41.4418 72.4117 41.7315 72.6459 41.7315Z" fill="white"/>
<path d="M84.3546 43.8561H83.6521C83.496 43.8561 83.3398 43.9526 83.2618 44.1458C83.2618 44.2423 83.2618 44.2423 83.2618 44.3389V44.532C83.2618 44.8217 83.4179 45.0148 83.6521 45.0148H84.3546C84.5107 45.0148 84.6669 44.9183 84.7449 44.7252C84.7449 44.6286 84.7449 44.6286 84.7449 44.532V44.3389C84.7449 44.2423 84.6669 44.0492 84.5888 43.9526C84.5107 43.9526 84.4327 43.8561 84.3546 43.8561Z" fill="white"/>
<path d="M84.2775 40.3798H83.5749C83.4188 40.3798 83.2627 40.4763 83.1846 40.6695C83.1846 40.766 83.1846 40.766 83.1846 40.8626V41.0557C83.1846 41.3454 83.3408 41.5385 83.5749 41.5385H84.2775C84.4336 41.5385 84.5897 41.442 84.6678 41.2488C84.6678 41.1523 84.6678 41.1523 84.6678 41.0557V40.8626C84.7458 40.6695 84.5117 40.3798 84.2775 40.3798Z" fill="white"/>
<path d="M72.6462 38.2553L84.2771 38.1588C84.4333 38.1588 84.6674 37.9656 84.7455 37.7725C84.7455 37.6759 84.7455 37.6759 84.7455 37.5794C84.7455 37.3863 84.6674 37.2897 84.5894 37.1931C84.5113 37.0966 84.3552 37 84.2771 37L72.6462 37.0966C72.49 37.0966 72.2559 37.2897 72.1778 37.4828C72.1778 37.5794 72.1778 37.5794 72.1778 37.6759C72.1778 37.9656 72.412 38.2553 72.6462 38.2553Z" fill="white"/>
<g filter="url(#filter1_d_6_5439)">
<path d="M79.5075 71.4142C77.3823 69.192 75.5343 66.1364 75.1647 62.9883C74.9799 61.229 73.6863 59.8401 71.9306 59.4697C68.789 58.8216 65.3702 56.692 63.0602 54.4697C62.8754 54.2846 62.5058 53.8216 62.2286 53.729C62.2286 53.8216 62.4134 55.9512 62.4134 55.9512C62.6906 58.0809 63.7994 61.1364 65.2778 63.266C67.9574 67.2475 72.0231 69.9327 76.2735 70.9512C76.7355 71.0438 77.9367 71.3216 78.0291 71.3216C78.1215 71.3216 78.8607 71.4142 78.9531 71.4142C78.9531 71.4142 79.0455 71.4142 79.0455 71.5068H79.5075V71.4142Z" fill="url(#paint24_linear_6_5439)"/>
</g>
<defs>
<filter id="filter0_d_6_5439" x="0.173889" y="22" width="107.661" height="62.6666" filterUnits="userSpaceOnUse" color-interpolation-filters="sRGB">
<feFlood flood-opacity="0" result="BackgroundImageFix"/>
<feColorMatrix in="SourceAlpha" type="matrix" values="0 0 0 0 0 0 0 0 0 0 0 0 0 0 0 0 0 0 127 0" result="hardAlpha"/>
<feOffset dy="5"/>
<feGaussianBlur stdDeviation="4"/>
<feColorMatrix type="matrix" values="0 0 0 0 1 0 0 0 0 0.545098 0 0 0 0 0.12549 0 0 0 0.26 0"/>
<feBlend mode="normal" in2="BackgroundImageFix" result="effect1_dropShadow_6_5439"/>
<feBlend mode="normal" in="SourceGraphic" in2="effect1_dropShadow_6_5439" result="shape"/>
</filter>
<filter id="filter1_d_6_5439" x="54.2286" y="50.729" width="33.2788" height="33.7778" filterUnits="userSpaceOnUse" color-interpolation-filters="sRGB">
<feFlood flood-opacity="0" result="BackgroundImageFix"/>
<feColorMatrix in="SourceAlpha" type="matrix" values="0 0 0 0 0 0 0 0 0 0 0 0 0 0 0 0 0 0 127 0" result="hardAlpha"/>
<feOffset dy="5"/>
<feGaussianBlur stdDeviation="4"/>
<feColorMatrix type="matrix" values="0 0 0 0 0.1125 0 0 0 0 0.295916 0 0 0 0 1 0 0 0 0.22 0"/>
<feBlend mode="normal" in2="BackgroundImageFix" result="effect1_dropShadow_6_5439"/>
<feBlend mode="normal" in="SourceGraphic" in2="effect1_dropShadow_6_5439" result="shape"/>
</filter>
<linearGradient id="paint0_linear_6_5439" x1="19.3198" y1="27.4839" x2="42.9413" y2="58.9929" gradientUnits="userSpaceOnUse">
<stop stop-color="#061A4E"/>
<stop offset="1" stop-color="#093093" stop-opacity="0"/>
</linearGradient>
<linearGradient id="paint1_linear_6_5439" x1="51.118" y1="57.5098" x2="54.192" y2="62.1398" gradientUnits="userSpaceOnUse">
<stop stop-color="#A4BDFF"/>
<stop offset="1" stop-color="#5A78FF"/>
</linearGradient>
<linearGradient id="paint2_linear_6_5439" x1="67.965" y1="60.3189" x2="82.777" y2="61.4745" gradientUnits="userSpaceOnUse">
<stop stop-color="#BDCFFF"/>
<stop offset="1" stop-color="#91A5FF" stop-opacity="0.5"/>
</linearGradient>
<linearGradient id="paint3_linear_6_5439" x1="68.2229" y1="57.0121" x2="83.0349" y2="58.1677" gradientUnits="userSpaceOnUse">
<stop stop-color="#BDCFFF"/>
<stop offset="1" stop-color="#91A5FF" stop-opacity="0.5"/>
</linearGradient>
<linearGradient id="paint4_linear_6_5439" x1="68.4819" y1="53.6989" x2="83.2939" y2="54.8545" gradientUnits="userSpaceOnUse">
<stop stop-color="#BDCFFF"/>
<stop offset="1" stop-color="#91A5FF" stop-opacity="0.5"/>
</linearGradient>
<linearGradient id="paint5_linear_6_5439" x1="68.7398" y1="50.3865" x2="83.5518" y2="51.5421" gradientUnits="userSpaceOnUse">
<stop stop-color="#BDCFFF"/>
<stop offset="1" stop-color="#91A5FF" stop-opacity="0.5"/>
</linearGradient>
<linearGradient id="paint6_linear_6_5439" x1="68.9988" y1="47.0735" x2="83.8108" y2="48.2291" gradientUnits="userSpaceOnUse">
<stop stop-color="#BDCFFF"/>
<stop offset="1" stop-color="#91A5FF" stop-opacity="0.5"/>
</linearGradient>
<linearGradient id="paint7_linear_6_5439" x1="69.2567" y1="43.7603" x2="84.0687" y2="44.9159" gradientUnits="userSpaceOnUse">
<stop stop-color="#BDCFFF"/>
<stop offset="1" stop-color="#91A5FF" stop-opacity="0.5"/>
</linearGradient>
<linearGradient id="paint8_linear_6_5439" x1="69.5156" y1="40.4478" x2="84.3276" y2="41.6034" gradientUnits="userSpaceOnUse">
<stop stop-color="#BDCFFF"/>
<stop offset="1" stop-color="#91A5FF" stop-opacity="0.5"/>
</linearGradient>
<linearGradient id="paint9_linear_6_5439" x1="68.2296" y1="56.9388" x2="83.0417" y2="58.0944" gradientUnits="userSpaceOnUse">
<stop stop-color="#BDCFFF"/>
<stop offset="1" stop-color="#91A5FF" stop-opacity="0.5"/>
</linearGradient>
<linearGradient id="paint10_linear_6_5439" x1="68.4876" y1="53.6254" x2="83.2996" y2="54.7811" gradientUnits="userSpaceOnUse">
<stop stop-color="#BDCFFF"/>
<stop offset="1" stop-color="#91A5FF" stop-opacity="0.5"/>
</linearGradient>
<linearGradient id="paint11_linear_6_5439" x1="68.7455" y1="50.3131" x2="83.5575" y2="51.4687" gradientUnits="userSpaceOnUse">
<stop stop-color="#BDCFFF"/>
<stop offset="1" stop-color="#91A5FF" stop-opacity="0.5"/>
</linearGradient>
<linearGradient id="paint12_linear_6_5439" x1="69.0045" y1="46.9999" x2="83.8165" y2="48.1556" gradientUnits="userSpaceOnUse">
<stop stop-color="#BDCFFF"/>
<stop offset="1" stop-color="#91A5FF" stop-opacity="0.5"/>
</linearGradient>
<linearGradient id="paint13_linear_6_5439" x1="69.2624" y1="43.6867" x2="84.0744" y2="44.8424" gradientUnits="userSpaceOnUse">
<stop stop-color="#BDCFFF"/>
<stop offset="1" stop-color="#91A5FF" stop-opacity="0.5"/>
</linearGradient>
<linearGradient id="paint14_linear_6_5439" x1="69.5214" y1="40.3743" x2="84.3334" y2="41.5299" gradientUnits="userSpaceOnUse">
<stop stop-color="#BDCFFF"/>
<stop offset="1" stop-color="#91A5FF" stop-opacity="0.5"/>
</linearGradient>
<linearGradient id="paint15_linear_6_5439" x1="69.7737" y1="37.1346" x2="84.5857" y2="38.2903" gradientUnits="userSpaceOnUse">
<stop stop-color="#BDCFFF"/>
<stop offset="1" stop-color="#91A5FF" stop-opacity="0.5"/>
</linearGradient>
<linearGradient id="paint16_linear_6_5439" x1="70.0325" y1="33.8217" x2="84.8445" y2="34.9774" gradientUnits="userSpaceOnUse">
<stop stop-color="#BDCFFF"/>
<stop offset="1" stop-color="#91A5FF" stop-opacity="0.5"/>
</linearGradient>
<linearGradient id="paint17_linear_6_5439" x1="69.7794" y1="37.061" x2="84.5914" y2="38.2167" gradientUnits="userSpaceOnUse">
<stop stop-color="#BDCFFF"/>
<stop offset="1" stop-color="#91A5FF" stop-opacity="0.5"/>
</linearGradient>
<linearGradient id="paint18_linear_6_5439" x1="70.0377" y1="33.7483" x2="84.8497" y2="34.904" gradientUnits="userSpaceOnUse">
<stop stop-color="#BDCFFF"/>
<stop offset="1" stop-color="#91A5FF" stop-opacity="0.5"/>
</linearGradient>
<linearGradient id="paint19_linear_6_5439" x1="70.2914" y1="30.5033" x2="85.1034" y2="31.659" gradientUnits="userSpaceOnUse">
<stop stop-color="#BDCFFF"/>
<stop offset="1" stop-color="#91A5FF" stop-opacity="0.5"/>
</linearGradient>
<linearGradient id="paint20_linear_6_5439" x1="42.4731" y1="51.9175" x2="24.5087" y2="33.5228" gradientUnits="userSpaceOnUse">
<stop offset="0.0113208" stop-color="#C2D1FF"/>
<stop offset="1" stop-color="white"/>
</linearGradient>
<linearGradient id="paint21_linear_6_5439" x1="41.9148" y1="52.4633" x2="23.9503" y2="34.0685" gradientUnits="userSpaceOnUse">
<stop offset="0.0113208" stop-color="#C2D1FF"/>
<stop offset="1" stop-color="white"/>
</linearGradient>
<linearGradient id="paint22_linear_6_5439" x1="41.4182" y1="52.9478" x2="23.4538" y2="34.5531" gradientUnits="userSpaceOnUse">
<stop offset="0.0113208" stop-color="#C2D1FF"/>
<stop offset="1" stop-color="white"/>
</linearGradient>
<linearGradient id="paint23_linear_6_5439" x1="55.5738" y1="55.079" x2="63.4963" y2="72.0017" gradientUnits="userSpaceOnUse">
<stop stop-color="#FF932F"/>
<stop offset="1" stop-color="#F7691A"/>
</linearGradient>
<linearGradient id="paint24_linear_6_5439" x1="72.5001" y1="55" x2="59.0001" y2="83" gradientUnits="userSpaceOnUse">
<stop stop-color="#FF9635"/>
<stop offset="1" stop-color="#F7691A"/>
</linearGradient>
</defs>
</svg>
