<svg width="94" height="89" viewBox="0 0 94 89" fill="none" xmlns="http://www.w3.org/2000/svg">
<line x1="46.5" y1="63" x2="46.5" y2="51" stroke="#4D6BB8"/>
<line x1="46.5" y1="44" x2="46.5" y2="32" stroke="#4D6BB8"/>
<line x1="46.5" y1="25" x2="46.5" y2="13" stroke="#4D6BB8"/>
<rect x="21" y="38" width="52" height="13" rx="3" fill="#EBEEF4"/>
<path d="M21 41C21 39.3431 22.3431 38 24 38H34V51H24C22.3431 51 21 49.6569 21 48V41Z" fill="#FFA24B"/>
<path d="M27.3058 47C27.1074 47 26.9091 46.8895 26.8099 46.779L25.2231 45.0111C24.9256 44.6796 24.9256 44.1271 25.2231 43.7956C25.5207 43.4641 26.0165 43.4641 26.314 43.7956L27.3058 44.9006L29.686 42.2486C29.9835 41.9171 30.4793 41.9171 30.7769 42.2486C31.0744 42.5801 31.0744 43.1326 30.7769 43.4641L27.8017 46.6685C27.7025 46.8895 27.5041 47 27.3058 47Z" fill="white"/>
<rect opacity="0.4" x="38" y="43" width="26" height="3" rx="1.5" fill="#9EA8B9"/>
<rect x="21" y="19" width="52" height="13" rx="3" fill="#EBEEF4"/>
<path d="M21 22C21 20.3431 22.3431 19 24 19H34V32H24C22.3431 32 21 30.6569 21 29V22Z" fill="#4D6BB8"/>
<path d="M27.3058 28C27.1074 28 26.9091 27.8895 26.8099 27.779L25.2231 26.0111C24.9256 25.6796 24.9256 25.1271 25.2231 24.7956C25.5207 24.4641 26.0165 24.4641 26.314 24.7956L27.3058 25.9006L29.686 23.2486C29.9835 22.9171 30.4793 22.9171 30.7769 23.2486C31.0744 23.5801 31.0744 24.1326 30.7769 24.4641L27.8017 27.6685C27.7025 27.8895 27.5041 28 27.3058 28Z" fill="white"/>
<rect opacity="0.4" x="38" y="24" width="12" height="3" rx="1.5" fill="#9EA8B9"/>
<rect x="21" width="51" height="13" rx="3" fill="#EBEEF4"/>
<path d="M21 3C21 1.34315 22.3431 0 24 0H34V13H24C22.3431 13 21 11.6569 21 10V3Z" fill="#F7691A"/>
<path d="M27.3058 9C27.1074 9 26.9091 8.8895 26.8099 8.779L25.2231 7.01105C24.9256 6.67956 24.9256 6.12707 25.2231 5.79558C25.5207 5.46409 26.0165 5.46409 26.314 5.79558L27.3058 6.90055L29.686 4.24862C29.9835 3.91713 30.4793 3.91713 30.7769 4.24862C31.0744 4.58011 31.0744 5.1326 30.7769 5.46409L27.8017 8.66851C27.7025 8.8895 27.5041 9 27.3058 9Z" fill="white"/>
<rect opacity="0.4" x="38" y="5" width="20" height="3" rx="1.5" fill="#9EA8B9"/>
<rect y="63" width="94" height="26" rx="3" fill="#EBEEF4"/>
<rect opacity="0.2" y="63" width="26" height="26" rx="3" fill="#4D6BB8"/>
<path fill-rule="evenodd" clip-rule="evenodd" d="M11.1092 71.9166H14.8908C15.3603 71.9166 15.7479 71.9166 16.0636 71.9424C16.3915 71.9692 16.6929 72.0267 16.976 72.1709C17.415 72.3946 17.772 72.7516 17.9957 73.1906C18.1399 73.4738 18.1974 73.7752 18.2242 74.1031C18.25 74.4188 18.25 74.8063 18.25 75.2759V77.8907C18.25 78.3603 18.25 78.7478 18.2242 79.0635C18.1974 79.3914 18.1399 79.6928 17.9957 79.9759C17.772 80.415 17.415 80.7719 16.976 80.9956C16.6929 81.1399 16.3915 81.1974 16.0636 81.2242C15.7479 81.25 15.3603 81.25 14.8907 81.25H11.1093C10.6397 81.25 10.2521 81.25 9.93644 81.2242C9.60855 81.1974 9.30714 81.1399 9.02402 80.9956C8.58498 80.7719 8.22802 80.415 8.00432 79.9759C7.86007 79.6928 7.80257 79.3914 7.77578 79.0635C7.74999 78.7478 7.74999 78.3603 7.75 77.8907V75.2759C7.74999 74.8063 7.74999 74.4188 7.77578 74.1031C7.80257 73.7752 7.86007 73.4738 8.00432 73.1906C8.22802 72.7516 8.58498 72.3946 9.02402 72.1709C9.30714 72.0267 9.60855 71.9692 9.93644 71.9424C10.2521 71.9166 10.6397 71.9166 11.1092 71.9166ZM10.0314 73.1052C9.7757 73.1261 9.64491 73.164 9.55368 73.2105C9.33416 73.3223 9.15568 73.5008 9.04383 73.7203C8.99734 73.8115 8.95947 73.9423 8.93857 74.1981C8.91712 74.4606 8.91667 74.8003 8.91667 75.3V77.8666C8.91667 78.3663 8.91712 78.706 8.93857 78.9685C8.95947 79.2243 8.99734 79.355 9.04383 79.4463C9.15568 79.6658 9.33416 79.8443 9.55368 79.9561C9.64491 80.0026 9.7757 80.0405 10.0314 80.0614C10.294 80.0828 10.6337 80.0833 11.1333 80.0833H14.8667C15.3663 80.0833 15.706 80.0828 15.9686 80.0614C16.2243 80.0405 16.3551 80.0026 16.4463 79.9561C16.6658 79.8443 16.8443 79.6658 16.9562 79.4463C17.0027 79.355 17.0405 79.2243 17.0614 78.9685C17.0829 78.706 17.0833 78.3663 17.0833 77.8666V75.3C17.0833 74.8003 17.0829 74.4606 17.0614 74.1981C17.0405 73.9423 17.0027 73.8115 16.9562 73.7203C16.8443 73.5008 16.6658 73.3223 16.4463 73.2105C16.3551 73.164 16.2243 73.1261 15.9686 73.1052C15.706 73.0837 15.3663 73.0833 14.8667 73.0833H11.1333C10.6337 73.0833 10.294 73.0837 10.0314 73.1052Z" fill="#4D6BB8"/>
<path opacity="0.5" fill-rule="evenodd" clip-rule="evenodd" d="M15.1625 75.0042C15.3903 75.232 15.3903 75.6014 15.1625 75.8292L12.8291 78.1625C12.6013 78.3903 12.232 78.3903 12.0042 78.1625L10.8375 76.9959C10.6097 76.768 10.6097 76.3987 10.8375 76.1709C11.0653 75.9431 11.4347 75.9431 11.6625 76.1709L12.4167 76.9251L14.3375 75.0042C14.5653 74.7764 14.9347 74.7764 15.1625 75.0042Z" fill="#4D6BB8"/>
<path d="M11.25 71.3333C11.25 71.0112 10.9888 70.75 10.6667 70.75C10.3445 70.75 10.0833 71.0112 10.0833 71.3333V72.5C10.0833 72.8222 10.3445 73.0833 10.6667 73.0833C10.9888 73.0833 11.25 72.8222 11.25 72.5V71.3333Z" fill="#4D6BB8"/>
<path d="M15.9167 71.3333C15.9167 71.0112 15.6555 70.75 15.3333 70.75C15.0112 70.75 14.75 71.0112 14.75 71.3333V72.5C14.75 72.8222 15.0112 73.0833 15.3333 73.0833C15.6555 73.0833 15.9167 72.8222 15.9167 72.5V71.3333Z" fill="#4D6BB8"/>
<rect opacity="0.58" x="34" y="70" width="24" height="3" rx="1.5" fill="#4D6BB8"/>
<rect opacity="0.4" x="34" y="76" width="47" height="2" rx="1" fill="#9EA8B9"/>
<rect opacity="0.4" x="34" y="80" width="37" height="2" rx="1" fill="#9EA8B9"/>
</svg>
