<svg width="81" height="118" viewBox="0 0 81 118" fill="none" xmlns="http://www.w3.org/2000/svg">
<path d="M67 1H73C75.7614 1 78 3.23858 78 6V12" stroke="#EBEBED" stroke-width="2"/>
<path d="M1 12L1 6C1 3.23858 3.23858 0.999999 6 0.999999L12 0.999999" stroke="#EBEBED" stroke-width="2"/>
<path d="M12 78L6 78C3.23858 78 0.999999 75.7614 0.999999 73L0.999999 67" stroke="#EBEBED" stroke-width="2"/>
<path d="M78 67L78 73C78 75.7614 75.7614 78 73 78L67 78" stroke="#EBEBED" stroke-width="2"/>
<mask id="mask0_6_5506" style="mask-type:alpha" maskUnits="userSpaceOnUse" x="12" y="12" width="55" height="55">
<rect x="12" y="12" width="55" height="55" rx="12" fill="#E3EAF2"/>
</mask>
<g mask="url(#mask0_6_5506)">
<rect x="12" y="12" width="55" height="55" rx="12" fill="#E3EAF2"/>
<path d="M61.9854 59.0223C61.5105 59.4942 61.1543 59.9661 60.6794 60.3201C55.3369 65.2754 48.2135 68.2251 40.259 68.2251C33.9667 68.2251 28.0305 66.3373 23.1628 62.9158C21.7382 61.9719 20.4322 60.792 19.245 59.6122C19.8386 58.7863 21.0258 58.1964 23.4003 57.2525L24.3501 56.8985C26.1309 56.1906 28.6241 55.2467 31.8296 53.9489C32.3045 53.7129 32.7794 53.477 33.0169 53.005C33.1356 52.7691 33.373 52.5331 33.373 52.2971C33.6105 51.9432 33.6105 51.4712 33.6105 50.9993V44.9821C33.4918 44.8641 33.4918 44.7461 33.373 44.6281C32.8982 43.8022 32.542 42.9763 32.4233 42.0325L31.9484 41.7965C30.405 42.1504 30.5237 40.4987 30.1675 37.3131C30.0488 36.0152 30.1675 35.7793 30.7611 35.5433L31.236 34.8354C30.0488 32.2397 29.5739 30.116 29.5739 28.2282C29.5739 25.2786 30.8799 23.2729 32.6607 22.329C31.8296 20.4413 31.7109 19.6154 31.7109 19.6154C31.7109 19.6154 38.0033 20.6772 40.1403 20.2053C42.8709 19.6154 47.145 20.3233 48.6884 23.9808C49.0445 24.0988 49.282 24.2168 49.6381 24.3347C51.6564 25.3966 52.3688 26.8124 52.6062 28.3462C52.9624 31.1779 51.419 34.2455 51.0628 35.5433C51.0628 35.5433 51.0628 35.6613 51.1815 35.6613C51.6564 35.8973 51.7752 36.2512 51.5377 37.4311C51.1815 40.4987 51.3003 42.2684 49.7569 41.9145L48.3322 44.2742C48.3322 44.5101 48.2135 44.6281 48.2135 44.8641C48.2135 45.336 48.2135 46.1619 48.2135 51.1173C48.2135 51.2353 48.2135 51.4712 48.2135 51.5892C48.2135 52.0612 48.4509 52.4151 48.6884 52.7691C48.8071 52.8871 48.9258 53.005 49.0445 53.123C49.4007 53.477 49.7569 53.7129 50.2318 53.9489C53.7935 55.4827 56.4054 56.4266 58.305 57.1345C60.0858 57.9604 61.273 58.5503 61.9854 59.0223Z" fill="white"/>
<path d="M64.8347 67.8714C59.4922 72.8267 48.2135 68.3433 40.259 68.3433C33.9667 68.3433 20.7884 73.2987 15.9207 69.9951C14.9709 69.2872 16.1582 66.5735 16.5143 65.7476C17.1079 64.0958 17.7016 62.4441 18.5326 60.9103C20.3135 57.4887 28.5054 55.8369 31.8296 54.0671C31.8296 54.0671 31.8296 54.0671 31.9484 54.0671C36.4599 60.3203 45.839 60.3203 50.3505 54.1851H50.4692C61.5105 58.6685 62.2228 58.0786 63.6475 62.2081C63.8849 62.916 65.3096 67.3994 64.8347 67.8714Z" fill="#4D6BB8"/>
<path d="M51.0622 35.5435C51.1809 34.8356 50.8248 33.8918 50.5873 33.1838C50.5873 33.0659 50.4686 32.9479 50.4686 32.8299C49.2814 30.4702 46.5507 29.4083 44.0575 29.2904C37.5277 28.9364 36.9341 30.2342 34.7971 28.3465C35.3907 29.2904 35.5094 30.8242 34.5597 32.7119C33.8473 34.0097 32.5414 34.5997 31.3541 34.9536C28.386 28.2285 29.8107 23.981 32.7788 22.4472C31.829 20.4415 31.7103 19.6156 31.7103 19.6156C31.7103 19.6156 38.0026 20.6775 40.1397 20.2055C42.8703 19.6156 47.1443 20.3235 48.6877 23.981C51.2997 25.0429 52.3682 26.6947 52.6056 28.4645C53.0805 31.2961 51.4184 34.3637 51.0622 35.5435Z" fill="#1C3754"/>
<path opacity="0.4" d="M33.7285 51.2355V45.2183C33.6098 45.1003 33.4911 44.9823 33.4911 44.8643V44.5104C33.8472 45.1003 34.2034 45.5722 34.797 45.9262L39.546 49.2298C40.6145 50.1736 42.2766 50.1736 43.3451 49.2298L47.7379 45.2183C47.8566 45.1003 48.094 44.9823 48.2128 44.7463C48.2128 45.2183 48.2128 46.0442 48.2128 50.9995C48.2128 51.3535 48.2128 51.5895 48.3315 51.8254H33.6098C33.7285 51.8254 33.7285 51.4715 33.7285 51.2355Z" fill="url(#paint0_linear_6_5506)"/>
</g>
<g filter="url(#filter0_d_6_5506)">
<path d="M77.8161 98.6381C77.7743 98.7638 77.7743 98.9312 77.7325 99.0568C77.6071 99.5174 77.4817 99.9361 77.2726 100.313C76.3107 102.448 74.4705 104.039 72.254 104.668C72.036 104.74 71.8074 104.783 71.5825 104.831C70.5507 105.05 69.4576 105.061 68.3646 104.835C64.057 103.956 61.2549 99.685 62.175 95.3723C63.0533 91.0595 67.3191 88.254 71.6267 89.1752C73.1741 89.5102 74.5541 90.2639 75.6415 91.3526C77.5652 93.2368 78.4016 96.0003 77.8161 98.6381Z" fill="#F7691A"/>
</g>
<path d="M68 97L69.6667 99L73 95" stroke="white" stroke-width="2" stroke-linecap="round" stroke-linejoin="round"/>
<rect opacity="0.58" x="1" y="90" width="28" height="3" rx="1.5" fill="#4D6BB8"/>
<rect opacity="0.4" x="1" y="96" width="40" height="3" rx="1.5" fill="#9EA8B9"/>
<rect opacity="0.4" x="1" y="101" width="29" height="3" rx="1.5" fill="#9EA8B9"/>
<defs>
<filter id="filter0_d_6_5506" x="49" y="86" width="32" height="32" filterUnits="userSpaceOnUse" color-interpolation-filters="sRGB">
<feFlood flood-opacity="0" result="BackgroundImageFix"/>
<feColorMatrix in="SourceAlpha" type="matrix" values="0 0 0 0 0 0 0 0 0 0 0 0 0 0 0 0 0 0 127 0" result="hardAlpha"/>
<feOffset dx="-5" dy="5"/>
<feGaussianBlur stdDeviation="4"/>
<feColorMatrix type="matrix" values="0 0 0 0 0.619271 0 0 0 0 0.657369 0 0 0 0 0.725 0 0 0 0.66 0"/>
<feBlend mode="normal" in2="BackgroundImageFix" result="effect1_dropShadow_6_5506"/>
<feBlend mode="normal" in="SourceGraphic" in2="effect1_dropShadow_6_5506" result="shape"/>
</filter>
<linearGradient id="paint0_linear_6_5506" x1="40.9339" y1="52.0986" x2="40.9339" y2="47.8951" gradientUnits="userSpaceOnUse">
<stop stop-color="white"/>
<stop offset="0.9913" stop-color="#CED5E6"/>
</linearGradient>
</defs>
</svg>
