<svg width="84" height="85" viewBox="0 0 84 85" fill="none" xmlns="http://www.w3.org/2000/svg">
<path opacity="0.3" d="M84 43C84 52.5062 80.8058 61.321 75.4532 68.4074C72.518 72.2099 68.9784 75.5803 64.9209 78.1728C58.3597 82.4938 50.5036 85 42.0432 85C18.8201 85 0 66.1605 0 43C0 19.7531 18.8201 1 41.9568 1C50.4173 1 58.2734 3.50617 64.8345 7.74074C68.8921 10.3333 72.4317 13.7037 75.3669 17.5062C80.8058 24.679 84 33.4074 84 43Z" fill="#E0EDFD"/>
<path d="M33.9586 0.815802V7.34221L16.4218 8.89612V0.815802C16.4218 0.427325 16.9023 0.271934 17.1425 0.50502L17.623 0.97119C17.7831 1.12658 18.0233 1.12658 18.1835 0.97119L19.0643 0.116543C19.2245 -0.0388477 19.4647 -0.0388477 19.6249 0.116543L20.5057 0.97119C20.6659 1.12658 20.9061 1.12658 21.0663 0.97119L21.9471 0.116543C22.1072 -0.0388477 22.3475 -0.0388477 22.5076 0.116543L23.3885 0.97119C23.5486 1.12658 23.7889 1.12658 23.949 0.97119L24.8298 0.116543C24.99 -0.0388477 25.2302 -0.0388477 25.3904 0.116543L26.2712 0.97119C26.4314 1.12658 26.6716 1.12658 26.8318 0.97119L27.7126 0.116543C27.8727 -0.0388477 28.113 -0.0388477 28.2731 0.116543L29.154 0.97119C29.3141 1.12658 29.5544 1.12658 29.7145 0.97119L30.5954 0.116543C30.7555 -0.0388477 30.9957 -0.0388477 31.1559 0.116543L32.0367 0.97119C32.1969 1.12658 32.4371 1.12658 32.5973 0.97119L33.0777 0.50502C33.5582 0.271934 33.9586 0.427325 33.9586 0.815802Z" fill="#E3EAF2"/>
<path d="M48.2059 0.815802V7.34221L30.6691 8.89612V0.815802C30.6691 0.427325 31.1496 0.271934 31.3898 0.50502L31.8703 0.97119C32.0304 1.12658 32.2707 1.12658 32.4308 0.97119L33.3117 0.116543C33.4718 -0.0388477 33.712 -0.0388477 33.8722 0.116543L34.753 0.97119C34.9132 1.12658 35.1534 1.12658 35.3136 0.97119L36.1944 0.116543C36.3546 -0.0388477 36.5948 -0.0388477 36.7549 0.116543L37.6358 0.97119C37.7959 1.12658 38.0362 1.12658 38.1963 0.97119L39.0772 0.116543C39.2373 -0.0388477 39.4776 -0.0388477 39.6377 0.116543L40.5185 0.97119C40.6787 1.12658 40.9189 1.12658 41.0791 0.97119L41.9599 0.116543C42.1201 -0.0388477 42.3603 -0.0388477 42.5205 0.116543L43.4013 0.97119C43.5614 1.12658 43.8017 1.12658 43.9618 0.97119L44.8427 0.116543C45.0028 -0.0388477 45.2431 -0.0388477 45.4032 0.116543L46.2841 0.97119C46.4442 1.12658 46.6844 1.12658 46.8446 0.97119L47.325 0.50502C47.8055 0.271934 48.2059 0.427325 48.2059 0.815802Z" fill="#E3EAF2"/>
<path d="M56.4543 0.815802V7.34221L38.9176 8.89612V0.815802C38.9176 0.427325 39.398 0.271934 39.6383 0.50502L40.1187 0.97119C40.2789 1.12658 40.5191 1.12658 40.6793 0.97119L41.5601 0.116543C41.7203 -0.0388477 41.9605 -0.0388477 42.1206 0.116543L43.0015 0.97119C43.1616 1.12658 43.4019 1.12658 43.562 0.97119L44.4429 0.116543C44.603 -0.0388477 44.8432 -0.0388477 45.0034 0.116543L45.8842 0.97119C46.0444 1.12658 46.2846 1.12658 46.4448 0.97119L47.3256 0.116543C47.4858 -0.0388477 47.726 -0.0388477 47.8862 0.116543L48.767 0.97119C48.9271 1.12658 49.1674 1.12658 49.3275 0.97119L50.2084 0.116543C50.3685 -0.0388477 50.6088 -0.0388477 50.7689 0.116543L51.6497 0.97119C51.8099 1.12658 52.0501 1.12658 52.2103 0.97119L53.0911 0.116543C53.2513 -0.0388477 53.4915 -0.0388477 53.6517 0.116543L54.5325 0.97119C54.6927 1.12658 54.9329 1.12658 55.093 0.97119L55.5735 0.50502C56.0539 0.271934 56.4543 0.427325 56.4543 0.815802Z" fill="#E3EAF2"/>
<path d="M61.7848 31.8694C60.3598 31.7903 59.0931 31.1573 58.1431 30.2077C58.0639 30.1285 57.9848 30.0494 57.9056 29.8911C57.1139 28.9416 56.4806 27.5963 56.4806 26.2511V1.48271H16.4221V26.5676C16.5012 27.992 17.0554 29.3372 17.9262 30.2077C18.9554 31.2364 20.3013 31.8694 21.8054 31.8694H61.7848Z" fill="#E3EAF2"/>
<rect opacity="0.58" x="19.9999" y="7" width="14.7" height="1.575" rx="0.7875" fill="#4D6BB8"/>
<rect opacity="0.4" x="19.9999" y="11.15" width="21" height="1.575" rx="0.7875" fill="#9EA8B9"/>
<rect opacity="0.55" x="19.9999" y="14" width="21" height="1.575" rx="0.7875" fill="#FDFDFD"/>
<path d="M61.1507 22.6186C62.6549 23.2517 63.684 24.6761 63.684 26.3378V71.6014C63.684 73.2632 62.6549 74.6875 61.1507 75.3206C46.2673 81.0972 29.8005 81.0972 14.9171 75.3206C13.413 74.6875 12.3838 73.2632 12.3838 71.6014V26.3378C12.3838 24.6761 13.413 23.2517 14.9171 22.6186C29.7214 16.842 46.2673 16.842 61.1507 22.6186Z" fill="#9DA9B8"/>
<path d="M55.7669 22.6186C57.2711 23.2517 58.3002 24.6761 58.3002 26.3378V71.6014C58.3002 73.2632 57.2711 74.6875 55.7669 75.3206C40.8835 81.0972 24.4167 81.0972 9.53335 75.3206C8.02917 74.6875 7 73.2632 7 71.6014V26.3378C7 24.6761 8.02917 23.2517 9.53335 22.6186C24.3376 16.842 40.8835 16.842 55.7669 22.6186Z" fill="#D4DAE8"/>
<path d="M50.3833 45.0129H14.8373C13.8081 45.0129 12.9373 44.1425 12.9373 43.1138V28.87C12.9373 27.8413 13.8081 26.9708 14.8373 26.9708H50.3833C51.4124 26.9708 52.2833 27.8413 52.2833 28.87V43.1138C52.2041 44.1425 51.4124 45.0129 50.3833 45.0129Z" fill="white"/>
<path d="M16.03 32.3912H16.6498V34H16.9052V32.3912H17.5249V32.1771H16.03V32.3912ZM17.5312 33.3377C17.5312 33.5439 17.5921 33.712 17.714 33.8422C17.8367 33.9725 18.0003 34.0376 18.2048 34.0376C18.4084 34.0376 18.5712 33.9725 18.6931 33.8422C18.8158 33.712 18.8771 33.5439 18.8771 33.3377V33.2976C18.8771 33.0923 18.8158 32.9245 18.6931 32.7943C18.5712 32.6641 18.408 32.599 18.2035 32.599C17.9999 32.599 17.8367 32.6641 17.714 32.7943C17.5921 32.9245 17.5312 33.0923 17.5312 33.2976V33.3377ZM17.7854 33.2976C17.7854 33.1607 17.8204 33.0447 17.8905 32.9496C17.9606 32.8544 18.065 32.8068 18.2035 32.8068C18.3429 32.8068 18.4477 32.8544 18.5178 32.9496C18.5879 33.0447 18.6229 33.1607 18.6229 33.2976V33.3377C18.6229 33.4754 18.5879 33.5918 18.5178 33.687C18.4477 33.7822 18.3429 33.8297 18.2035 33.8297C18.065 33.8297 17.9606 33.7822 17.8905 33.687C17.8204 33.5918 17.7854 33.4754 17.7854 33.3377V33.2976ZM18.9848 32.8319H19.7948V32.6366H18.9848V32.8319ZM19.2389 33.6595C19.2389 33.7897 19.2694 33.8852 19.3303 33.9462C19.3921 34.0071 19.4747 34.0376 19.5782 34.0376C19.6216 34.0376 19.6617 34.0338 19.6984 34.0263C19.7351 34.0188 19.7652 34.01 19.7886 34V33.7947C19.7635 33.803 19.7389 33.8097 19.7147 33.8147C19.6913 33.8197 19.6671 33.8222 19.6421 33.8222C19.5887 33.8222 19.5494 33.8097 19.5244 33.7847C19.4993 33.7596 19.4868 33.7179 19.4868 33.6595V32.3574H19.2389V32.7154V32.753V33.6595ZM19.9714 33.5994C19.9714 33.7371 20.0185 33.8427 20.1128 33.9161C20.208 33.9887 20.3227 34.025 20.4571 34.025C20.5773 34.025 20.6754 34.0033 20.7514 33.9599C20.8273 33.9165 20.8824 33.8669 20.9166 33.8109C20.9191 33.8452 20.9254 33.8798 20.9354 33.9149C20.9454 33.9499 20.9567 33.9783 20.9692 34H21.2096V33.98C21.1937 33.9432 21.1812 33.9011 21.172 33.8535C21.1637 33.8051 21.1595 33.7538 21.1595 33.6995V33.0522C21.1595 32.902 21.1119 32.7889 21.0168 32.7129C20.9216 32.637 20.7881 32.599 20.6161 32.599C20.4434 32.599 20.3061 32.6399 20.2042 32.7217C20.1032 32.8035 20.0527 32.8991 20.0527 33.0084V33.0147H20.3006V33.0084C20.3006 32.9525 20.3244 32.9037 20.372 32.8619C20.4196 32.8194 20.4984 32.7981 20.6086 32.7981C20.7196 32.7981 20.7977 32.8219 20.8427 32.8694C20.8887 32.9162 20.9116 32.9771 20.9116 33.0522V33.1599H20.5823C20.4054 33.1599 20.2593 33.1987 20.1441 33.2763C20.0289 33.3531 19.9714 33.4608 19.9714 33.5994ZM20.2193 33.5868C20.2193 33.5109 20.2522 33.4508 20.3182 33.4066C20.3841 33.3615 20.4809 33.3389 20.6086 33.3389H20.9116V33.528C20.9116 33.5989 20.8707 33.6665 20.7889 33.7308C20.7071 33.7943 20.6157 33.826 20.5147 33.826C20.4137 33.826 20.339 33.8051 20.2906 33.7634C20.243 33.7208 20.2193 33.662 20.2193 33.5868ZM21.5389 34H21.7868V32.0769H21.5389V34Z" fill="#555867"/>
<path d="M17.0634 39.3769V40.2949L16.6148 40.702V38.8452L17.0634 39.3769ZM17.9897 39.2689L18.6294 39.9418L18.5837 40.54C18.1877 40.1246 17.9855 39.9128 17.9772 39.9045C17.9717 39.8962 17.9634 39.8878 17.9523 39.8795C17.9412 39.8712 17.9329 39.8629 17.9274 39.8546L17.3002 39.1983L17.9897 39.2689ZM16.6148 38.8452L17.0634 39.2772V40.2949L16.6148 40.702V38.8452ZM17.0925 38.9948C16.9955 38.9145 16.8986 38.8383 16.8017 38.7663L17.0925 38.5462H18.2306L18.5214 38.7663L18.2306 38.9948H17.0925ZM16.7352 36.6645H18.5878L18.1849 37.1131H17.1589L16.7352 36.6645ZM16.6023 38.6998V36.8431L17.0509 37.246V38.2762L16.6023 38.6998ZM18.7208 36.8431V38.6998L18.2722 38.2969V37.2709L18.7208 36.8431ZM17.3002 39.1983H17.9232C18.0146 39.2952 18.1448 39.4337 18.3137 39.6137C18.4854 39.7909 18.5906 39.9003 18.6294 39.9418L18.5837 40.54C18.1877 40.1246 17.9855 39.9128 17.9772 39.9045C17.9717 39.8962 17.9634 39.8878 17.9523 39.8795C17.9412 39.8712 17.9329 39.8629 17.9274 39.8546L17.3002 39.1983ZM20.0575 40.6771L20.4853 40.2285H20.5892V38.7871H20.4147C20.3178 38.7095 20.2195 38.6334 20.1198 38.5586L20.4147 38.3385H20.5892V36.9054H20.4812L20.0533 36.4568H20.5892V36.1245H20.826V36.4568H21.1292V36.1245H21.3618V36.4568H21.9101L21.4989 36.9054H21.3618V38.3385H21.5487L21.8395 38.5586L21.5487 38.7871H21.3618V40.2285H21.5113L21.9143 40.6771H21.3618V40.864H21.1292V40.6771H20.826V40.864H20.5892V40.6771H20.0575ZM22.0472 40.4943L21.5986 40.0665V39.0446L22.0472 38.6375V40.4943ZM19.9204 38.4922V36.6354L20.369 37.0383V38.0685L19.9204 38.4922ZM20.826 36.9054V38.3385H21.1292V36.9054H20.826ZM20.826 38.7871V40.2285H21.1292V38.7871H20.826ZM25.3695 40.702L24.9208 40.2742V39.2523L25.3695 38.8452V40.702ZM25.357 36.8431V38.6998L24.9084 38.2969V37.2709L25.357 36.8431ZM25.9668 40.27H26.4902V40.8017H25.9668V40.27ZM29.1055 40.702L28.6569 40.2742V39.2523L29.1055 38.8452V40.702ZM27.473 38.9948C27.3761 38.9172 27.2778 38.8411 27.1781 38.7663L27.473 38.5462H28.607L28.8978 38.7663L28.607 38.9948H27.473ZM26.9787 38.6998V36.8431L27.4273 37.246V38.2762L26.9787 38.6998ZM29.093 36.8431V38.6998L28.6444 38.2969V37.2709L29.093 36.8431ZM30.4381 40.8848L30.8659 40.4362H31.8919L32.2948 40.8848H30.4381ZM30.3134 38.8452L30.7621 39.2772V40.2949L30.3134 40.702V38.8452ZM32.4277 40.702L31.9791 40.2742V39.2523L32.4277 38.8452V40.702ZM30.4339 36.6645H32.2907L31.8794 37.1131H30.8617L30.4339 36.6645ZM30.301 38.6998V36.8431L30.7496 37.246V38.2762L30.301 38.6998ZM32.4153 36.8431V38.6998L31.9667 38.2969V37.2709L32.4153 36.8431ZM33.7603 40.8848L34.1882 40.4362H35.2142L35.6171 40.8848H33.7603ZM33.6357 38.8452L34.0843 39.2772V40.2949L33.6357 40.702V38.8452ZM34.1176 38.9948C34.0206 38.9172 33.9223 38.8411 33.8226 38.7663L34.1176 38.5462H35.2516L35.5423 38.7663L35.2516 38.9948H34.1176ZM33.7562 36.6645H35.6129L35.2017 37.1131H34.184L33.7562 36.6645ZM35.7376 36.8431V38.6998L35.2889 38.2969V37.2709L35.7376 36.8431ZM36.3474 39.6095H36.8749V40.1412H36.3474V39.6095ZM36.879 40.2783C36.8181 40.3032 36.76 40.3462 36.7046 40.4071C36.652 40.468 36.609 40.5317 36.5758 40.5982C36.5426 40.6674 36.5135 40.7338 36.4886 40.7975C36.4637 40.8612 36.4429 40.9138 36.4263 40.9554C36.4097 40.9969 36.3972 41.0177 36.3889 41.0177C36.3778 41.0177 36.3695 40.9692 36.364 40.8723C36.3612 40.7754 36.357 40.5774 36.3515 40.2783H36.879ZM37.4963 40.8848L37.9242 40.4362H38.9502L39.3531 40.8848H37.4963ZM37.3717 38.8452L37.8203 39.2772V40.2949L37.3717 40.702V38.8452ZM39.486 40.702L39.0374 40.2742V39.2523L39.486 38.8452V40.702ZM37.4922 36.6645H39.349L38.9377 37.1131H37.92L37.4922 36.6645ZM37.3593 38.6998V36.8431L37.8079 37.246V38.2762L37.3593 38.6998ZM39.4736 36.8431V38.6998L39.025 38.2969V37.2709L39.4736 36.8431ZM40.8186 40.8848L41.2465 40.4362H42.2725L42.6754 40.8848H40.8186ZM40.694 38.8452L41.1426 39.2772V40.2949L40.694 40.702V38.8452ZM42.8083 40.702L42.3597 40.2742V39.2523L42.8083 38.8452V40.702ZM40.8145 36.6645H42.6712L42.26 37.1131H41.2423L40.8145 36.6645ZM40.6815 38.6998V36.8431L41.1302 37.246V38.2762L40.6815 38.6998ZM42.7958 36.8431V38.6998L42.3472 38.2969V37.2709L42.7958 36.8431Z" fill="#555867"/>
<path d="M22.8331 58.6237H14.2831C13.5706 58.6237 12.9373 57.9906 12.9373 57.2784V51.7392C12.9373 51.027 13.5706 50.3939 14.2831 50.3939H22.754C23.4665 50.3939 24.0998 51.027 24.0998 51.7392V57.2784C24.179 58.0697 23.5456 58.6237 22.8331 58.6237Z" fill="#4D6BB8"/>
<path d="M36.8458 58.6237H28.3749C27.6624 58.6237 27.0291 57.9906 27.0291 57.2784V51.7392C27.0291 51.027 27.6624 50.3939 28.3749 50.3939H36.8458C37.5583 50.3939 38.1916 51.027 38.1916 51.7392V57.2784C38.1916 58.0697 37.5583 58.6237 36.8458 58.6237Z" fill="#B1B9CC"/>
<path d="M50.8586 58.6237H42.3877C41.6752 58.6237 41.0419 57.9906 41.0419 57.2784V51.7392C41.0419 51.027 41.6752 50.3939 42.3877 50.3939H50.8586C51.5711 50.3939 52.2044 51.027 52.2044 51.7392V57.2784C52.2044 58.0697 51.6503 58.6237 50.8586 58.6237Z" fill="#B1B9CC"/>
<path d="M24.1792 68.8316C24.1792 69.5438 23.5458 70.1769 22.8333 70.1769H14.2833C13.5708 70.1769 12.9374 69.5438 12.9374 68.8316V63.2924C12.9374 62.5802 13.5708 61.9471 14.2833 61.9471H22.7542C23.4667 61.9471 24.1 62.5802 24.1 63.2924V68.8316H24.1792Z" fill="#B1B9CC"/>
<path d="M36.8458 70.1769H28.3749C27.6624 70.1769 27.0291 69.5438 27.0291 68.8316V63.2924C27.0291 62.5802 27.6624 61.9471 28.3749 61.9471H36.8458C37.5583 61.9471 38.1916 62.5802 38.1916 63.2924V68.8316C38.1916 69.623 37.5583 70.1769 36.8458 70.1769Z" fill="#B1B9CC"/>
<path d="M50.8586 70.1769H42.3877C41.6752 70.1769 41.0419 69.5438 41.0419 68.8316V63.2924C41.0419 62.5802 41.6752 61.9471 42.3877 61.9471H50.8586C51.5711 61.9471 52.2044 62.5802 52.2044 63.2924V68.8316C52.2044 69.623 51.6503 70.1769 50.8586 70.1769Z" fill="#B1B9CC"/>
<path d="M22.0414 58.6237H13.4913C12.7788 58.6237 12.1455 57.9906 12.1455 57.2784V51.7392C12.1455 51.027 12.7788 50.3939 13.4913 50.3939H21.9622C22.6747 50.3939 23.3081 51.027 23.3081 51.7392V57.2784C23.3872 58.0697 22.7539 58.6237 22.0414 58.6237Z" fill="#7A95DC"/>
<path d="M36.0542 58.6237H27.5833C26.8708 58.6237 26.2374 57.9906 26.2374 57.2784V51.7392C26.2374 51.027 26.8708 50.3939 27.5833 50.3939H36.0542C36.7667 50.3939 37.4 51.027 37.4 51.7392V57.2784C37.4 58.0697 36.7667 58.6237 36.0542 58.6237Z" fill="white"/>
<path d="M50.0665 58.6237H41.5957C40.8832 58.6237 40.2498 57.9906 40.2498 57.2784V51.7392C40.2498 51.027 40.8832 50.3939 41.5957 50.3939H50.0665C50.779 50.3939 51.4124 51.027 51.4124 51.7392V57.2784C51.4124 58.0697 50.8582 58.6237 50.0665 58.6237Z" fill="white"/>
<path d="M23.3871 68.8316C23.3871 69.5438 22.7538 70.1769 22.0413 70.1769H13.4912C12.7787 70.1769 12.1454 69.5438 12.1454 68.8316V63.2924C12.1454 62.5802 12.7787 61.9471 13.4912 61.9471H21.9621C22.6746 61.9471 23.308 62.5802 23.308 63.2924V68.8316H23.3871Z" fill="white"/>
<path d="M36.0542 70.1769H27.5833C26.8708 70.1769 26.2374 69.5438 26.2374 68.8316V63.2924C26.2374 62.5802 26.8708 61.9471 27.5833 61.9471H36.0542C36.7667 61.9471 37.4 62.5802 37.4 63.2924V68.8316C37.4 69.623 36.7667 70.1769 36.0542 70.1769Z" fill="white"/>
<path d="M50.0665 70.1769H41.5957C40.8832 70.1769 40.2498 69.5438 40.2498 68.8316V63.2924C40.2498 62.5802 40.8832 61.9471 41.5957 61.9471H50.0665C50.779 61.9471 51.4124 62.5802 51.4124 63.2924V68.8316C51.4124 69.623 50.8582 70.1769 50.0665 70.1769Z" fill="white"/>
<g filter="url(#filter0_d_6_5531)">
<rect x="48" y="33" width="30.7739" height="30.7739" rx="4" fill="#F7691A"/>
</g>
<path d="M56.2713 51.871V53.3852C56.2713 54.2218 56.949 54.8994 57.7856 54.8994H59.2998" stroke="white" stroke-width="0.851755" stroke-linecap="round" stroke-linejoin="round"/>
<path d="M69.8994 44.2998V42.7856C69.8994 41.949 69.2218 41.2714 68.3852 41.2714H66.871" stroke="white" stroke-width="0.851755" stroke-linecap="round" stroke-linejoin="round"/>
<path d="M63.0854 51.1138V49.5996" stroke="white" stroke-width="0.851755" stroke-linecap="round" stroke-linejoin="round"/>
<path d="M59.2998 41.2714H57.7856C56.949 41.2714 56.2713 41.949 56.2713 42.7856V44.2998" stroke="white" stroke-width="0.851755" stroke-linecap="round" stroke-linejoin="round"/>
<path d="M66.871 54.8994H68.3852C69.2218 54.8994 69.8994 54.2218 69.8994 53.3852V51.871" stroke="white" stroke-width="0.851755" stroke-linecap="round" stroke-linejoin="round"/>
<path d="M65.3567 51.1138V49.5996C65.3567 48.3451 64.3399 47.3282 63.0854 47.3282C62.4585 47.3282 61.8907 47.5826 61.4795 47.9938" stroke="white" stroke-width="0.851755" stroke-linecap="round" stroke-linejoin="round"/>
<path d="M60.814 50.3567V51.1138" stroke="white" stroke-width="0.851755" stroke-linecap="round" stroke-linejoin="round"/>
<path d="M67.6281 51.114V49.5997C67.6281 48.7336 67.3813 47.9273 66.9611 47.2383" stroke="white" stroke-width="0.851755" stroke-linecap="round" stroke-linejoin="round"/>
<path d="M65.4468 45.7239C64.7579 45.3037 63.9515 45.0569 63.0854 45.0569C60.5763 45.0569 58.5427 47.0905 58.5427 49.5996V51.1138" stroke="white" stroke-width="0.851755" stroke-linecap="round" stroke-linejoin="round"/>
<defs>
<filter id="filter0_d_6_5531" x="35" y="30" width="46.7739" height="46.7739" filterUnits="userSpaceOnUse" color-interpolation-filters="sRGB">
<feFlood flood-opacity="0" result="BackgroundImageFix"/>
<feColorMatrix in="SourceAlpha" type="matrix" values="0 0 0 0 0 0 0 0 0 0 0 0 0 0 0 0 0 0 127 0" result="hardAlpha"/>
<feOffset dx="-5" dy="5"/>
<feGaussianBlur stdDeviation="4"/>
<feColorMatrix type="matrix" values="0 0 0 0 0.619271 0 0 0 0 0.657369 0 0 0 0 0.725 0 0 0 0.66 0"/>
<feBlend mode="normal" in2="BackgroundImageFix" result="effect1_dropShadow_6_5531"/>
<feBlend mode="normal" in="SourceGraphic" in2="effect1_dropShadow_6_5531" result="shape"/>
</filter>
</defs>
</svg>
