<svg width="135" height="102" viewBox="0 0 135 102" fill="none" xmlns="http://www.w3.org/2000/svg">
<path opacity="0.3" d="M109.701 43.6379C109.701 53.1431 106.482 61.9571 101.089 69.0429C98.1311 72.845 94.5646 76.215 90.4761 78.8074C83.8649 83.1279 75.949 85.6339 67.4241 85.6339C44.0241 85.5475 25.0605 66.7097 25.0605 43.5514C25.0605 20.3067 44.0241 1.55542 67.3371 1.55542C75.862 1.55542 83.778 4.06136 90.3891 8.29552C94.4776 10.8879 98.0441 14.2579 101.002 18.06C106.482 25.3186 109.701 34.1326 109.701 43.6379Z" fill="#E0EDFD"/>
<path d="M88.3009 79.6715C88.3009 82.8687 85.6913 85.5475 82.3857 85.5475H50.8088C47.5902 85.5475 44.8936 82.9551 44.8936 79.6715V5.87599C44.8936 2.67876 47.5032 0 50.8088 0H82.6467C85.8652 0 88.5619 2.59235 88.5619 5.87599V79.7579H88.3009V79.6715Z" fill="white"/>
<path d="M82.5597 0C85.7783 0 88.4749 2.59235 88.4749 5.87599V79.9307C88.4749 83.1279 85.8652 85.8067 82.5597 85.8067H50.8088C47.5902 85.8067 44.8936 83.2143 44.8936 79.9307V5.87599C44.8936 2.67876 47.5032 0 50.8088 0H82.5597Z" fill="#1C3754"/>
<path d="M85.4296 5.61685V79.6716C85.4296 80.7949 84.8207 81.659 83.9508 82.1775C83.5159 82.3503 83.081 82.5231 82.559 82.5231H50.8081C50.4602 82.5231 50.1122 82.4367 49.7643 82.3503C48.6334 82.0047 47.9375 80.9677 47.9375 79.6716V5.87609C47.9375 4.57992 48.7204 3.62939 49.7643 3.19733C50.1122 3.11092 50.4602 3.02451 50.8081 3.02451H55.5055C56.1144 3.02451 56.5494 3.45657 56.5494 4.06145C56.5494 5.27121 57.5933 6.30815 58.8111 6.30815H74.904C76.1219 6.30815 77.1657 5.27121 77.1657 4.06145C77.1657 3.45657 77.6007 3.02451 78.2096 3.02451H82.646V2.85168C83.1679 2.85168 83.6029 2.9381 84.0378 3.19733C84.8207 3.62939 85.4296 4.4935 85.4296 5.61685Z" fill="white"/>
<path d="M69.4241 3.80217H65.1617C64.7267 3.80217 64.5527 3.37011 64.5527 3.19729C64.5527 2.76523 64.9877 2.59241 65.1617 2.59241H69.4241C69.859 2.59241 70.033 3.02447 70.033 3.19729C70.033 3.62935 69.859 3.80217 69.4241 3.80217Z" fill="#2D5887"/>
<path d="M62.7262 3.80217H62.5523C62.1173 3.80217 61.9433 3.37011 61.9433 3.19729C61.9433 2.76523 62.3783 2.59241 62.5523 2.59241H62.7262C63.1612 2.59241 63.3352 3.02447 63.3352 3.19729C63.3352 3.62935 63.1612 3.80217 62.7262 3.80217Z" fill="#2D5887"/>
<g filter="url(#filter0_d_6_5565)">
<path d="M49.3145 61.185H25.4795C23.5658 61.185 22 59.6296 22 57.7286V28.7807C22 26.8796 23.5658 25.3242 25.4795 25.3242H49.3145C51.2282 25.3242 52.794 26.8796 52.794 28.7807V57.7286C52.881 59.6296 51.3152 61.185 49.3145 61.185Z" fill="white"/>
</g>
<path d="M43.2249 52.2478H26.697C26.1751 52.2478 25.8271 51.8157 25.8271 51.3836C25.8271 50.8652 26.2621 50.5195 26.697 50.5195H43.3119C43.8338 50.5195 44.1818 50.9516 44.1818 51.3836C44.0948 51.8157 43.7468 52.2478 43.2249 52.2478Z" fill="#EBEBED"/>
<path d="M34.0041 56.1732H26.697C26.1751 56.1732 25.8271 55.7411 25.8271 55.3091C25.8271 54.877 26.2621 54.4449 26.697 54.4449H34.0041C34.526 54.4449 34.874 54.877 34.874 55.3091C34.787 55.8275 34.439 56.1732 34.0041 56.1732Z" fill="#EBEBED"/>
<g filter="url(#filter1_d_6_5565)">
<rect x="81.2568" y="25" width="31" height="36" rx="4" fill="white"/>
</g>
<path fill-rule="evenodd" clip-rule="evenodd" d="M94.8818 41C93.8463 41 93.0068 41.8395 93.0068 42.875C93.0068 43.2202 93.2867 43.5 93.6318 43.5H99.8818C100.227 43.5 100.507 43.2202 100.507 42.875C100.507 41.8395 99.6674 41 98.6318 41H94.8818ZM91.7568 42.875C91.7568 41.1491 93.1559 39.75 94.8818 39.75H98.6318C100.358 39.75 101.757 41.1491 101.757 42.875C101.757 43.9105 100.917 44.75 99.8818 44.75H93.6318C92.5963 44.75 91.7568 43.9105 91.7568 42.875Z" fill="#C9CCD2"/>
<path fill-rule="evenodd" clip-rule="evenodd" d="M96.7568 33.5C95.7213 33.5 94.8818 34.3395 94.8818 35.375C94.8818 36.4105 95.7213 37.25 96.7568 37.25C97.7924 37.25 98.6318 36.4105 98.6318 35.375C98.6318 34.3395 97.7924 33.5 96.7568 33.5ZM93.6318 35.375C93.6318 33.6491 95.0309 32.25 96.7568 32.25C98.4827 32.25 99.8818 33.6491 99.8818 35.375C99.8818 37.1009 98.4827 38.5 96.7568 38.5C95.0309 38.5 93.6318 37.1009 93.6318 35.375Z" fill="#C9CCD2"/>
<path fill-rule="evenodd" clip-rule="evenodd" d="M32.8818 41C31.8463 41 31.0068 41.8395 31.0068 42.875C31.0068 43.2202 31.2867 43.5 31.6318 43.5H37.8818C38.227 43.5 38.5068 43.2202 38.5068 42.875C38.5068 41.8395 37.6674 41 36.6318 41H32.8818ZM29.7568 42.875C29.7568 41.1491 31.1559 39.75 32.8818 39.75H36.6318C38.3577 39.75 39.7568 41.1491 39.7568 42.875C39.7568 43.9105 38.9174 44.75 37.8818 44.75H31.6318C30.5963 44.75 29.7568 43.9105 29.7568 42.875Z" fill="#C9CCD2"/>
<path fill-rule="evenodd" clip-rule="evenodd" d="M34.7568 33.5C33.7213 33.5 32.8818 34.3395 32.8818 35.375C32.8818 36.4105 33.7213 37.25 34.7568 37.25C35.7924 37.25 36.6318 36.4105 36.6318 35.375C36.6318 34.3395 35.7924 33.5 34.7568 33.5ZM31.6318 35.375C31.6318 33.6491 33.0309 32.25 34.7568 32.25C36.4827 32.25 37.8818 33.6491 37.8818 35.375C37.8818 37.1009 36.4827 38.5 34.7568 38.5C33.0309 38.5 31.6318 37.1009 31.6318 35.375Z" fill="#C9CCD2"/>
<path d="M103.356 52H86.1573C85.617 52 85.2568 51.5 85.2568 51C85.2568 50.4 85.7071 50 86.1573 50H103.356C103.897 50 104.257 50.5 104.257 51C104.257 51.5 103.807 52 103.356 52Z" fill="#EBEBED"/>
<path d="M97.0068 56H86.5068C85.7568 56 85.2568 55.5 85.2568 55C85.2568 54.5 85.8818 54 86.5068 54H97.0068C97.7568 54 98.2568 54.5 98.2568 55C98.2568 55.6 97.7568 56 97.0068 56Z" fill="#EBEBED"/>
<g filter="url(#filter2_d_6_5565)">
<rect x="46.257" y="20" width="41" height="47" rx="4" fill="white"/>
</g>
<path d="M75.1239 56H53.39C52.772 56 52.257 55.3182 52.257 54.5C52.257 53.6818 52.772 53 53.39 53H75.1239C75.742 53 76.257 53.6818 76.257 54.5C76.257 55.3182 75.742 56 75.1239 56Z" fill="#EBEBED"/>
<path d="M64.9179 61H53.5961C52.8657 61 52.257 60.3182 52.257 59.5C52.257 58.6818 52.8657 58 53.5961 58H64.9179C65.6483 58 66.257 58.6818 66.257 59.5C66.1352 60.3182 65.6483 61 64.9179 61Z" fill="#EBEBED"/>
<g filter="url(#filter3_d_6_5565)">
<path d="M100.405 76.9149C100.144 78.0382 99.7957 79.0749 99.3607 80.1119C99.2737 80.3711 99.1866 80.5442 99.0126 80.8034C97.5338 83.655 95.1852 85.9882 92.3145 87.3708C91.9666 87.5436 91.6188 87.7164 91.3578 87.8028C88.5742 88.9262 85.4424 89.3582 82.3108 88.667C74.0469 86.9387 68.7407 78.9022 70.4805 70.6931C72.2203 62.484 80.3101 57.2128 88.574 58.941C91.5316 59.5459 94.1414 61.0152 96.3161 63.089C99.8827 66.7183 101.448 71.903 100.405 76.9149Z" fill="#F7691A"/>
</g>
<path d="M91.7807 78.6342L89.519 76.3875C91.2588 73.7952 90.5629 70.3387 87.9532 68.6105C85.3436 66.8822 81.864 67.5735 80.1242 70.1659C78.3845 72.7582 79.0804 76.2147 81.69 77.9429C83.6038 79.1527 86.0395 79.1527 87.8662 77.9429L90.1279 80.1896C90.5629 80.6217 91.2588 80.6217 91.6937 80.1896C92.2157 79.7576 92.2157 79.0663 91.7807 78.6342ZM82.3859 75.6962C81.0811 74.4 81.0811 72.2398 82.3859 70.9436C83.6908 69.6474 85.8655 69.6474 87.1703 70.9436C88.4752 72.2398 88.4752 74.4 87.1703 75.6962C85.8655 76.9924 83.6908 76.9924 82.3859 75.6962Z" fill="white"/>
<path fill-rule="evenodd" clip-rule="evenodd" d="M62.8818 40.3333C61.294 40.3333 60.0068 41.6205 60.0068 43.2083C60.0068 43.7376 60.4359 44.1666 60.9652 44.1666H70.5485C71.0778 44.1666 71.5068 43.7376 71.5068 43.2083C71.5068 41.6205 70.2197 40.3333 68.6318 40.3333H62.8818ZM58.0902 43.2083C58.0902 40.5619 60.2355 38.4166 62.8818 38.4166H68.6318C71.2782 38.4166 73.4235 40.5619 73.4235 43.2083C73.4235 44.7961 72.1363 46.0833 70.5485 46.0833H60.9652C59.3774 46.0833 58.0902 44.7961 58.0902 43.2083Z" fill="#F7691A"/>
<path fill-rule="evenodd" clip-rule="evenodd" d="M65.7568 28.8333C64.169 28.8333 62.8818 30.1205 62.8818 31.7083C62.8818 33.2961 64.169 34.5833 65.7568 34.5833C67.3447 34.5833 68.6318 33.2961 68.6318 31.7083C68.6318 30.1205 67.3447 28.8333 65.7568 28.8333ZM60.9652 31.7083C60.9652 29.0619 63.1105 26.9166 65.7568 26.9166C68.4032 26.9166 70.5485 29.0619 70.5485 31.7083C70.5485 34.3547 68.4032 36.5 65.7568 36.5C63.1105 36.5 60.9652 34.3547 60.9652 31.7083Z" fill="#F7691A"/>
<defs>
<filter id="filter0_d_6_5565" x="0" y="14.3242" width="74.7975" height="79.8608" filterUnits="userSpaceOnUse" color-interpolation-filters="sRGB">
<feFlood flood-opacity="0" result="BackgroundImageFix"/>
<feColorMatrix in="SourceAlpha" type="matrix" values="0 0 0 0 0 0 0 0 0 0 0 0 0 0 0 0 0 0 127 0" result="hardAlpha"/>
<feOffset dy="11"/>
<feGaussianBlur stdDeviation="11"/>
<feColorMatrix type="matrix" values="0 0 0 0 0.397708 0 0 0 0 0.47749 0 0 0 0 0.575 0 0 0 0.18 0"/>
<feBlend mode="normal" in2="BackgroundImageFix" result="effect1_dropShadow_6_5565"/>
<feBlend mode="normal" in="SourceGraphic" in2="effect1_dropShadow_6_5565" result="shape"/>
</filter>
<filter id="filter1_d_6_5565" x="59.2568" y="14" width="75" height="80" filterUnits="userSpaceOnUse" color-interpolation-filters="sRGB">
<feFlood flood-opacity="0" result="BackgroundImageFix"/>
<feColorMatrix in="SourceAlpha" type="matrix" values="0 0 0 0 0 0 0 0 0 0 0 0 0 0 0 0 0 0 127 0" result="hardAlpha"/>
<feOffset dy="11"/>
<feGaussianBlur stdDeviation="11"/>
<feColorMatrix type="matrix" values="0 0 0 0 0.397708 0 0 0 0 0.47749 0 0 0 0 0.575 0 0 0 0.18 0"/>
<feBlend mode="normal" in2="BackgroundImageFix" result="effect1_dropShadow_6_5565"/>
<feBlend mode="normal" in="SourceGraphic" in2="effect1_dropShadow_6_5565" result="shape"/>
</filter>
<filter id="filter2_d_6_5565" x="24.257" y="9" width="85" height="91" filterUnits="userSpaceOnUse" color-interpolation-filters="sRGB">
<feFlood flood-opacity="0" result="BackgroundImageFix"/>
<feColorMatrix in="SourceAlpha" type="matrix" values="0 0 0 0 0 0 0 0 0 0 0 0 0 0 0 0 0 0 127 0" result="hardAlpha"/>
<feOffset dy="11"/>
<feGaussianBlur stdDeviation="11"/>
<feColorMatrix type="matrix" values="0 0 0 0 0.397708 0 0 0 0 0.47749 0 0 0 0 0.575 0 0 0 0.18 0"/>
<feBlend mode="normal" in2="BackgroundImageFix" result="effect1_dropShadow_6_5565"/>
<feBlend mode="normal" in="SourceGraphic" in2="effect1_dropShadow_6_5565" result="shape"/>
</filter>
<filter id="filter3_d_6_5565" x="57.1502" y="55.6129" width="46.5726" height="46.387" filterUnits="userSpaceOnUse" color-interpolation-filters="sRGB">
<feFlood flood-opacity="0" result="BackgroundImageFix"/>
<feColorMatrix in="SourceAlpha" type="matrix" values="0 0 0 0 0 0 0 0 0 0 0 0 0 0 0 0 0 0 127 0" result="hardAlpha"/>
<feOffset dx="-5" dy="5"/>
<feGaussianBlur stdDeviation="4"/>
<feColorMatrix type="matrix" values="0 0 0 0 0.619271 0 0 0 0 0.657369 0 0 0 0 0.725 0 0 0 0.66 0"/>
<feBlend mode="normal" in2="BackgroundImageFix" result="effect1_dropShadow_6_5565"/>
<feBlend mode="normal" in="SourceGraphic" in2="effect1_dropShadow_6_5565" result="shape"/>
</filter>
</defs>
</svg>
