<svg width="74" height="45" viewBox="0 0 74 45" fill="none" xmlns="http://www.w3.org/2000/svg">
<circle opacity="0.7" cx="23" cy="22.5" r="22.5" fill="url(#paint0_linear_6_4677)"/>
<circle cx="51" cy="22.5" r="22.5" fill="#093093"/>
<path d="M47.4455 19.1942C48.5945 19.1942 48.7167 17.9585 48.7167 17.4178C48.7167 15.8179 47.8244 15.6414 47.4455 15.6414C46.2965 15.6414 46.1743 16.8771 46.1743 17.4178C46.1743 19.0287 47.0544 19.1942 47.4455 19.1942Z" fill="white"/>
<path d="M57.9802 12.3531C57.4668 12.1214 56.7089 12 55.7187 12C54.8385 12 54.0439 12.1324 53.3593 12.3862C52.6625 12.64 52.1247 13.0372 51.7335 13.5778C51.3423 14.1185 51.1467 14.8247 51.1467 15.6853V17.5279V18.4548V24.1372C50.9878 24.1151 50.8288 24.093 50.6821 24.0489C50.4499 23.9937 50.2543 24.0048 50.0831 24.093C49.912 24.1813 49.7775 24.3799 49.6797 24.6778C49.6186 24.8764 49.5941 25.053 49.6064 25.2295C49.6064 25.2736 49.6186 25.3178 49.6186 25.3619C49.6431 25.5385 49.7531 25.6819 49.8998 25.726C50.9755 26.0901 52.1491 26.0791 53.2493 25.8033C53.6038 25.715 53.8361 25.3509 53.8361 24.9647V18.3003C54.0072 18.2451 54.2028 18.19 54.4106 18.1458C54.9485 18.0355 55.4986 18.0024 56.0487 18.0355C56.5988 18.0686 57.1001 18.1348 57.5402 18.2451C57.6502 18.1127 57.748 17.9362 57.8091 17.7265C57.8702 17.5169 57.8824 17.3073 57.8335 17.1086C57.7113 16.6232 57.3446 16.3252 56.7333 16.2039C56.3055 16.1046 55.8165 16.0715 55.2664 16.0935C54.7652 16.1156 54.2884 16.1708 53.8117 16.259V15.7846C53.8117 15.1557 53.995 14.7033 54.3618 14.4274C54.7285 14.1516 55.3153 14.0192 56.1221 14.0192C56.5133 14.0192 56.8922 14.0523 57.2468 14.1185C57.6013 14.1847 57.9313 14.273 58.2125 14.3833C58.347 14.273 58.4692 14.1295 58.567 13.964C58.6648 13.7875 58.7137 13.5999 58.7137 13.4013C58.7504 12.9379 58.4937 12.5958 57.9802 12.3531Z" fill="white"/>
<path d="M55.4391 28.2199C55.4269 28.2309 53.7643 29.0805 51.2461 29.0805C48.74 29.0805 47.1264 28.253 47.053 28.2199C46.5641 27.9551 45.9284 28.0985 45.6472 28.5399C45.3538 28.9812 45.5127 29.555 46.0017 29.8198C46.0873 29.8639 48.1166 30.9453 51.2461 30.9453C54.3634 30.9453 56.4049 29.8639 56.4904 29.8198C56.9794 29.555 57.1383 28.9923 56.8449 28.5509C56.5638 28.1096 55.9281 27.9661 55.4391 28.2199Z" fill="white"/>
<defs>
<linearGradient id="paint0_linear_6_4677" x1="17" y1="-41.5" x2="23" y2="45" gradientUnits="userSpaceOnUse">
<stop stop-color="#093093"/>
<stop offset="1" stop-color="#093093" stop-opacity="0"/>
</linearGradient>
</defs>
</svg>
